<svg id="uuid-7f261d3e-f631-4d5d-a9c3-9c173d42eaad" xmlns="http://www.w3.org/2000/svg" viewBox="0 0 290.46 114.26"><g id="uuid-809d1564-4af9-4d40-baac-a7ad0a85889f"><path d="m124.93.46c0-.35-.11-.46-.46-.46-4.06,3.01-9.39,8-15.42,14.15-7.77,7.88-16.7,17.86-25.41,27.84-6.5,7.43-14.97,17.87-21.11,25.17-4.52,5.23-7.55,8.82-9.75,8.82-.93,0-1.51-.7-1.51-1.39,0-4.99,22.62-38.98,29.35-48.84,5.81-8.47,12.65-17.63,14.15-20.18l3.02-5.11c0-.35-.12-.46-.46-.46-2.79,1.62-8.82,7.77-16.13,15.08-10.32,10.32-25.86,30.16-42.22,45.7-9.63,9.05-18.56,15.31-28.3,15.43-7.66,0-9.74-3.71-9.74-7.88,1.39.93,2.44,1.62,4.18,1.62,2.09,0,3.83-1.62,3.83-3.6,0-2.2-1.86-3.71-3.71-3.71-2.67,0-5.22,2.9-5.22,6.38,0,5.11,4.87,8.12,10.56,8.12,7.89,0,16.59-4.75,25.06-11.94,8.24-6.96,17.05-17.4,25.87-27.14,13.69-15.08,22.5-25.52,32.48-34.11l-2.44,3.13c-5.33,6.96-44.31,51.28-44.31,64.49,0,3.6,1.86,5.57,4.41,5.57s4.75-1.86,9.51-7.19c6.61-7.42,15.07-18.44,24.59-29.23,11.72-13.34,24.48-27.26,34.57-36.31l-2.44,3.13c-5.8,7.43-44.9,51.62-44.9,63.11,0,4.52,2.9,6.49,6.85,6.49,4.76,0,9.51-4.29,14.74-8.93l2.43-2.2.46-.7-.23-.23-.35.12-2.9,2.79c-3.48,3.24-9.28,8-12.64,8-2.32,0-3.71-1.05-3.71-3.13,0-4.76,14.97-26.57,27.38-44.09L124.93.46Z"/><path d="m122.84,65.77l-.12-.23-.57.12-2.56,2.43c-3.71,3.6-9.98,8.12-14.15,8.12-2.79,0-4.52-1.5-4.52-3.48,0-1.51,1.5-4.41,2.55-5.8l2.9-.81c6.37-1.75,14.15-6.04,14.15-11.14,0-1.97-1.51-2.79-3.48-2.79-3.94,0-12.06,4.99-21,13.93l-1.39,1.38c-.11.12-.11.24-.11.36s.11.23.23.23.24,0,.35-.11l1.98-1.86c-.69,1.38-1.05,2.89-1.05,4.29,0,3.83,3.6,6.73,8.24,6.73,6.96,0,13.11-6.03,15.78-8.58l2.56-2.43.23-.36Zm-3.01-10.79c0,4.64-9.51,9.98-15.67,10.91l3.02-4.29c3.36-4.76,7.66-8.7,10.2-8.7,1.16,0,2.44.81,2.44,2.08Z"/><path d="m155.1,65.77l-.12-.23-.58.12-2.55,2.43c-3.83,3.6-10.1,8.24-14.85,8.24-1.39,0-2.79-.35-4.06-1.16,3.36-1.63,11.94-6.15,11.94-13.34,0-4.41-4.41-9.28-4.41-12.3,1.27-1.86,3.48-3.7,3.48-5.1,0-.58-.46-.93-.93-.93-2.08,0-2.67,4.17-3.94,6.03-7.88,8.24-11.94,12.07-17.4,17.06l-3.49,3.13.24.35h.46c-.46.81-.46,1.62-.46,2.55,0,2.2,2.55,4.52,6.73,4.52,3.01,0,5.45-.93,6.61-1.39,1.74.7,3.49,1.39,5.33,1.39,5.34,0,11.72-5.57,15.08-8.58l2.67-2.43.24-.36Zm-14.85-9.74c0,9.63-11.37,19.84-16.71,19.84-3.01,0-3.82-1.62-3.94-2.9.58.7,1.51,1.17,2.44,1.17,1.97,0,3.01-1.27,3.01-3.01,0-1.98-1.74-3.02-2.55-3.02-.58,0-1.17.12-1.51.12,7.89-7.31,13.81-13.23,18.44-17.75.7,2.32.82,4.18.82,5.57Z"/><path d="m187.34,65.77l-.11-.23-.58.12-2.56,2.43c-3.82,3.6-10.09,8.24-14.85,8.24-1.39,0-2.78-.35-4.06-1.16,3.37-1.63,11.95-6.15,11.95-13.34,0-4.41-4.41-9.28-4.41-12.3,1.27-1.86,3.48-3.7,3.48-5.1,0-.58-.46-.93-.93-.93-2.08,0-2.67,4.17-3.94,6.03-7.89,8.24-11.95,12.07-17.4,17.06l-3.48,3.13.23.35h.46c-.46.81-.46,1.62-.46,2.55,0,2.2,2.56,4.52,6.74,4.52,3.01,0,5.44-.93,6.61-1.39,1.74.7,3.48,1.39,5.33,1.39,5.33,0,11.72-5.57,15.08-8.58l2.67-2.43.23-.36Zm-14.85-9.74c0,9.63-11.37,19.84-16.7,19.84-3.01,0-3.82-1.62-3.94-2.9.58.7,1.51,1.17,2.43,1.17,1.98,0,3.02-1.27,3.02-3.01,0-1.98-1.74-3.02-2.56-3.02-.57,0-1.16.12-1.5.12,7.88-7.31,13.8-13.23,18.44-17.75.69,2.32.81,4.18.81,5.57Z"/><path d="m224.23,65.3l-.24-.23q-.12,0-.46.23l-3.6,3.37c-2.79,2.55-7.66,7.07-10.44,7.07-.93,0-1.62-.69-1.62-1.27,0-1.27,1.39-3.25,2.89-5.45l11.02-16.24h-4.52l-4.41,5.33v-2.2c0-1.62-1.98-3.71-4.64-3.71-4.29,0-12.18,4.64-16.47,8.82l-6.62,6.49-.12.36.24.12.23-.12,1.63-1.39c-.58,1.62-1.17,3.94-1.17,5.33,0,3.37,1.98,5.33,5.69,5.33,2.08,0,5.8-1.74,9.05-4.41l3.82-3.25c-.23,1.05-.57,2.32-.57,3.25,0,2.08,1.38,4.41,4.17,4.41,3.6,0,9.05-4.64,12.42-8l3.48-3.48c.12-.12.24-.24.24-.36Zm-12.07-9.05c0,4.52-13.92,19.95-19.6,19.95-1.51,0-2.67-.81-2.67-2.32,0-3.94,12.41-20.76,18.55-20.76,1.75,0,3.71,1.28,3.71,3.13Z"/><path d="m264.71,65.77l-.12-.23-.57.12-2.56,2.43c-6.14,5.8-12.64,7.89-16.82,8.82l17.4-24.01h-4.52l-4.52,5.68c-.12-2.32-.58-6.38-6.5-6.38-5.33,0-11.6,2.68-19.02,9.75l-5.68,5.45c-.12.11-.12.23-.12.35s.12.24.12.24c.12,0,.24,0,.35-.12l3.02-2.56c-.7,1.86-1.63,3.95-1.63,5.81,0,3.82,2.67,6.03,6.62,6.03s6.73-1.39,10.9-3.36l-4.06,5.33c-8.35,3.94-15.42,7.19-24.47,14.38-6.96,5.57-12.42,12.06-12.42,16.48,0,3.01,2.32,4.29,4.75,4.29,5.45,0,12.65-4.52,21.81-14.26,5.69-6.15,15.89-20.19,17.05-21.81,6.5-1.74,11.95-3.71,18.21-9.63l2.55-2.43.24-.36Zm-12.64-8.23c0,6.73-12.76,18.79-20.76,18.79-1.98,0-3.37-1.05-3.37-2.67,0-3.83,12.53-20.54,19.26-20.54,2.43,0,4.87,1.51,4.87,4.41Zm-15.89,22.73c-11.25,15.89-22.85,33.06-31.55,33.06-2.2,0-3.6-1.39-3.6-3.36,0-3.95,4.52-9.63,10.1-14.39,7.88-6.73,19.13-12.75,25.05-15.31Z"/><path d="m290.46,65.77l-.12-.23-.57.12-2.56,2.43c-3.71,3.6-9.98,8.12-14.15,8.12-2.78,0-4.52-1.5-4.52-3.48,0-1.51,1.51-4.41,2.56-5.8l2.89-.81c6.38-1.75,14.15-6.04,14.15-11.14,0-1.97-1.5-2.79-3.48-2.79-3.94,0-12.06,4.99-21,13.93l-1.39,1.38c-.11.12-.11.24-.11.36s.11.23.23.23.24,0,.35-.11l1.98-1.86c-.69,1.38-1.05,2.89-1.05,4.29,0,3.83,3.6,6.73,8.24,6.73,6.96,0,13.11-6.03,15.78-8.58l2.56-2.43.23-.36Zm-3.01-10.79c0,4.64-9.51,9.98-15.67,10.91l3.02-4.29c3.36-4.76,7.66-8.7,10.2-8.7,1.17,0,2.44.81,2.44,2.08Z"/></g></svg>