
<svg width="124px" height="355px" version="1.1" xmlns="http://www.w3.org/2000/svg" xmlns:xlink="http://www.w3.org/1999/xlink" xml:space="preserve" xmlns:serif="http://www.serif.com/" style="fill-rule:evenodd;clip-rule:evenodd;stroke-linejoin:round;stroke-miterlimit:2;">
    <g transform="matrix(1,0,0,1,-10362.8,-4292.38)">
        <g transform="matrix(5.77183e-17,4.28045,-4.24923,2.23374e-16,9574.65,923.176)">
            <path d="M807.477,-196.078C804.505,-195.027 802.055,-194.039 800.054,-193.083C800.026,-193.128 799.998,-193.173 799.968,-193.217C799.626,-193.718 799.167,-194.152 798.659,-194.539C797.637,-195.312 796.427,-195.929 795.164,-196.557C793.9,-197.185 792.561,-197.811 791.27,-198.604C790.627,-199.001 789.996,-199.442 789.433,-199.964C788.87,-200.485 788.377,-201.094 788.056,-201.794C787.729,-202.493 787.611,-203.261 787.649,-204.018C787.685,-204.776 787.866,-205.52 788.123,-206.22C788.38,-206.922 788.714,-207.584 789.093,-208.201C789.472,-208.818 789.897,-209.39 790.35,-209.916C791.255,-210.965 792.273,-211.833 793.334,-212.457C794.391,-213.082 795.511,-213.452 796.55,-213.451C797.068,-213.449 797.557,-213.352 797.994,-213.181C798.432,-213.012 798.819,-212.785 799.155,-212.537C799.267,-212.454 799.374,-212.369 799.476,-212.283C800.819,-211.101 801.825,-209.197 802.029,-207.192C802.321,-204.323 800.87,-202.227 800.232,-201.459C800.206,-201.428 800.21,-201.38 800.242,-201.354C800.274,-201.328 800.321,-201.332 800.348,-201.364C800.997,-202.146 802.475,-204.282 802.178,-207.207C801.983,-209.125 801.065,-210.953 799.816,-212.168C799.648,-212.338 799.462,-212.507 799.257,-212.671C798.921,-212.939 798.528,-213.189 798.075,-213.382C797.623,-213.576 797.104,-213.698 796.555,-213.716C796.006,-213.735 795.431,-213.654 794.858,-213.491C794.284,-213.328 793.712,-213.083 793.153,-212.773C792.036,-212.152 790.967,-211.279 790.012,-210.211C789.535,-209.677 789.086,-209.092 788.683,-208.456C788.281,-207.821 787.924,-207.135 787.645,-206.398C787.368,-205.662 787.168,-204.871 787.124,-204.044C787.099,-203.632 787.123,-203.211 787.193,-202.793C787.264,-202.375 787.393,-201.963 787.572,-201.573C787.931,-200.79 788.475,-200.128 789.076,-199.578C789.679,-199.025 790.339,-198.572 791.004,-198.169C792.339,-197.368 793.697,-196.758 794.968,-196.153C796.238,-195.55 797.442,-194.966 798.442,-194.248C798.939,-193.888 799.381,-193.489 799.71,-193.036C799.731,-193.007 799.751,-192.977 799.771,-192.947C799.137,-192.639 798.55,-192.334 798.008,-192.031C794.878,-190.284 793.368,-188.651 793.521,-187.178C793.573,-186.679 793.888,-185.842 794.544,-185.582C794.698,-185.521 794.872,-185.491 795.063,-185.491C795.673,-185.491 796.454,-185.796 797.293,-186.373C798.018,-186.872 798.766,-187.575 799.358,-188.376C799.466,-188.516 799.573,-188.665 799.677,-188.823C799.912,-189.181 800.135,-189.587 800.303,-190.049C800.324,-190.106 800.344,-190.165 800.365,-190.224C800.383,-190.284 800.4,-190.344 800.417,-190.405L800.444,-190.497L800.464,-190.591C800.478,-190.654 800.491,-190.718 800.505,-190.781C800.515,-190.846 800.522,-190.912 800.532,-190.978L800.545,-191.077L800.55,-191.178C800.553,-191.245 800.557,-191.313 800.559,-191.382C800.557,-191.451 800.554,-191.52 800.552,-191.589C800.533,-191.867 800.476,-192.15 800.377,-192.426C800.313,-192.606 800.229,-192.781 800.133,-192.952C802.136,-193.907 804.602,-194.903 807.527,-195.937C807.566,-195.951 807.586,-195.993 807.572,-196.032C807.559,-196.071 807.516,-196.091 807.477,-196.078L807.477,-196.078ZM794.599,-185.721C794.005,-185.956 793.718,-186.73 793.67,-187.193C793.498,-188.857 795.573,-190.74 799.855,-192.818C800.098,-192.424 800.247,-191.995 800.287,-191.568C800.291,-191.504 800.295,-191.441 800.299,-191.378C800.3,-191.315 800.297,-191.252 800.297,-191.189L800.295,-191.096L800.286,-191.003C800.279,-190.941 800.274,-190.88 800.267,-190.819C800.256,-190.758 800.245,-190.698 800.234,-190.639L800.218,-190.549L800.196,-190.461C800.181,-190.403 800.167,-190.345 800.153,-190.288C800.134,-190.231 800.117,-190.175 800.099,-190.119C799.953,-189.672 799.752,-189.27 799.535,-188.912C799.436,-188.749 799.333,-188.596 799.229,-188.45C798.649,-187.67 797.917,-186.984 797.208,-186.496C796.164,-185.778 795.189,-185.488 794.599,-185.721L794.599,-185.721Z" style="fill:rgb(239,198,124);fill-rule:nonzero;"/>
            <path d="M824.107,-201.085C824.103,-201.139 824.095,-201.251 823.062,-201.318C823.045,-201.32 823.029,-201.323 823.012,-201.325C822.694,-201.37 822.232,-201.42 821.66,-201.461C820.517,-201.542 818.935,-201.598 817.188,-201.517C816.541,-201.486 815.919,-201.438 815.334,-201.379C815.445,-202.227 815.574,-203.096 815.724,-203.981C815.858,-204.762 815.997,-205.527 816.15,-206.271C816.312,-207.07 816.283,-207.496 816.158,-207.524C816.072,-207.544 815.94,-207.37 815.809,-206.991C815.556,-206.528 815.151,-205.356 814.334,-202.904C814.148,-202.347 813.955,-201.769 813.758,-201.186C813.39,-201.134 813.049,-201.079 812.741,-201.026C812.177,-200.928 811.723,-200.837 811.409,-200.771C811.392,-200.767 811.377,-200.764 811.361,-200.76C811.013,-200.714 810.665,-200.666 810.318,-200.614C810.297,-200.611 810.283,-200.592 810.286,-200.572C810.289,-200.553 810.305,-200.54 810.323,-200.54C810.325,-200.54 810.327,-200.54 810.329,-200.54C810.676,-200.591 811.023,-200.64 811.371,-200.686C811.387,-200.687 811.403,-200.687 811.42,-200.688C811.74,-200.706 812.201,-200.731 812.771,-200.762C813.035,-200.776 813.323,-200.792 813.63,-200.808C813.145,-199.38 812.638,-197.944 812.148,-196.728C811.129,-194.195 810.605,-193.702 810.344,-193.739C810.278,-193.766 810.219,-193.812 810.165,-193.874C810.048,-194.041 809.917,-194.402 809.832,-195.166C809.832,-195.17 809.831,-195.173 809.83,-195.176C809.829,-195.18 809.828,-195.184 809.827,-195.187C809.825,-195.191 809.823,-195.194 809.82,-195.198C809.818,-195.201 809.817,-195.204 809.814,-195.207C809.812,-195.21 809.808,-195.212 809.805,-195.215C809.802,-195.217 809.8,-195.22 809.797,-195.222C809.793,-195.224 809.789,-195.225 809.785,-195.227C809.782,-195.228 809.779,-195.23 809.776,-195.231C809.775,-195.231 809.775,-195.231 809.775,-195.231C809.774,-195.231 809.774,-195.231 809.774,-195.231C809.769,-195.232 809.765,-195.231 809.761,-195.232C809.758,-195.232 809.754,-195.233 809.751,-195.232C809.746,-195.232 809.742,-195.23 809.737,-195.229C809.734,-195.228 809.731,-195.228 809.728,-195.227C809.724,-195.225 809.72,-195.221 809.716,-195.219C809.713,-195.217 809.711,-195.216 809.708,-195.214C809.703,-195.209 809.699,-195.204 809.695,-195.198C809.695,-195.197 809.694,-195.196 809.693,-195.196C809.331,-194.577 809.019,-194.098 808.75,-193.728C808.166,-192.923 807.787,-192.637 807.542,-192.586C807.476,-192.572 807.42,-192.575 807.372,-192.59L807.372,-192.59C807.245,-192.629 807.14,-192.764 807.063,-192.977C807.048,-193.069 807.038,-193.178 807.035,-193.303C807.03,-193.508 807.038,-193.759 807.06,-194.025C807.086,-194.288 807.137,-194.573 807.212,-194.869C807.363,-195.459 807.577,-195.98 807.805,-196.316C807.872,-196.417 807.941,-196.5 808.005,-196.567C808.173,-196.684 808.341,-196.741 808.5,-196.733C808.657,-196.724 809.07,-196.615 809.51,-195.783C809.53,-195.746 809.575,-195.732 809.611,-195.752C809.648,-195.771 809.662,-195.816 809.643,-195.853C809.184,-196.72 808.735,-196.87 808.508,-196.882C808.315,-196.893 808.114,-196.826 807.919,-196.69C807.825,-196.647 807.72,-196.585 807.612,-196.498C807.431,-196.356 807.244,-196.151 807.082,-195.896C806.921,-195.642 806.783,-195.337 806.697,-195C806.611,-194.663 806.587,-194.327 806.612,-194.024C806.639,-193.725 806.699,-193.467 806.774,-193.252C806.818,-193.125 806.87,-193.016 806.921,-192.927C807.007,-192.69 807.135,-192.507 807.327,-192.447C807.346,-192.442 807.366,-192.437 807.385,-192.434C807.391,-192.433 807.397,-192.433 807.402,-192.432C807.417,-192.43 807.432,-192.429 807.447,-192.429C807.45,-192.429 807.454,-192.428 807.457,-192.428C807.461,-192.428 807.464,-192.429 807.468,-192.429C807.476,-192.429 807.484,-192.429 807.492,-192.43C807.501,-192.43 807.51,-192.431 807.519,-192.433C807.527,-192.434 807.535,-192.435 807.543,-192.436C807.553,-192.438 807.562,-192.44 807.572,-192.442C807.58,-192.444 807.588,-192.445 807.597,-192.448C807.607,-192.45 807.616,-192.453 807.626,-192.456C807.635,-192.459 807.643,-192.461 807.651,-192.464C807.662,-192.468 807.672,-192.472 807.683,-192.476C807.691,-192.48 807.699,-192.483 807.707,-192.486C807.719,-192.491 807.731,-192.497 807.743,-192.503C807.75,-192.506 807.757,-192.51 807.765,-192.513C807.781,-192.522 807.797,-192.531 807.814,-192.54C807.819,-192.543 807.823,-192.546 807.828,-192.549C807.847,-192.56 807.865,-192.571 807.884,-192.584C807.892,-192.588 807.899,-192.594 807.907,-192.599C807.92,-192.608 807.933,-192.617 807.946,-192.627C807.955,-192.633 807.964,-192.64 807.973,-192.647C807.985,-192.656 807.998,-192.666 808.01,-192.676C808.02,-192.683 808.029,-192.691 808.039,-192.699C808.051,-192.709 808.063,-192.719 808.076,-192.73C808.086,-192.738 808.095,-192.747 808.105,-192.755C808.118,-192.766 808.13,-192.778 808.143,-192.789C808.153,-192.798 808.163,-192.808 808.173,-192.817C808.186,-192.829 808.199,-192.842 808.212,-192.854C808.222,-192.864 808.232,-192.874 808.243,-192.885C808.256,-192.897 808.269,-192.911 808.282,-192.924C808.292,-192.935 808.303,-192.946 808.313,-192.957C808.327,-192.971 808.341,-192.986 808.354,-193.001C808.365,-193.012 808.375,-193.023 808.386,-193.035C808.4,-193.051 808.415,-193.067 808.43,-193.084C808.44,-193.095 808.449,-193.106 808.459,-193.118C808.476,-193.137 808.493,-193.157 808.51,-193.177C808.518,-193.187 808.526,-193.196 808.535,-193.206C808.56,-193.236 808.586,-193.268 808.611,-193.3C808.613,-193.302 808.615,-193.305 808.617,-193.307C808.641,-193.337 808.665,-193.367 808.69,-193.399C808.699,-193.411 808.709,-193.424 808.719,-193.436C808.736,-193.458 808.753,-193.481 808.77,-193.503C808.781,-193.518 808.793,-193.534 808.804,-193.549C808.82,-193.57 808.836,-193.591 808.852,-193.613C808.864,-193.63 808.876,-193.647 808.888,-193.664C808.904,-193.686 808.919,-193.707 808.935,-193.729C808.948,-193.747 808.96,-193.765 808.973,-193.783C808.989,-193.805 809.005,-193.828 809.02,-193.85C809.033,-193.869 809.046,-193.888 809.059,-193.907C809.075,-193.93 809.091,-193.953 809.107,-193.977C809.121,-193.997 809.134,-194.016 809.147,-194.036C809.163,-194.06 809.179,-194.084 809.195,-194.109C809.209,-194.129 809.223,-194.15 809.237,-194.171C809.253,-194.196 809.27,-194.222 809.286,-194.247C809.3,-194.268 809.314,-194.289 809.327,-194.311C809.345,-194.338 809.362,-194.365 809.38,-194.393C809.393,-194.414 809.406,-194.434 809.42,-194.456C809.439,-194.486 809.458,-194.517 809.477,-194.548C809.489,-194.567 809.501,-194.586 809.514,-194.606C809.545,-194.656 809.576,-194.707 809.607,-194.759C809.617,-194.775 809.627,-194.791 809.636,-194.807C809.657,-194.842 809.679,-194.877 809.7,-194.913C809.748,-194.38 809.86,-194.009 810.039,-193.791C810.117,-193.678 810.207,-193.612 810.309,-193.593C810.329,-193.589 810.348,-193.588 810.368,-193.588C811.183,-193.588 812.355,-196.604 813.789,-200.816C814.095,-200.832 814.419,-200.849 814.758,-200.866C814.659,-199.912 814.59,-198.987 814.549,-198.104C814.504,-197.182 814.502,-196.304 814.513,-195.483C814.519,-195.278 814.525,-195.076 814.531,-194.878C814.535,-194.78 814.538,-194.682 814.541,-194.584C814.546,-194.488 814.55,-194.392 814.555,-194.296C814.574,-193.916 814.598,-193.552 814.624,-193.205C814.715,-191.993 814.839,-190.988 814.946,-190.24C815.059,-189.243 815.205,-188.248 815.386,-187.262C815.392,-187.226 815.424,-187.201 815.459,-187.201C815.464,-187.201 815.468,-187.201 815.473,-187.202C815.514,-187.21 815.541,-187.249 815.533,-187.289C815.256,-188.8 815.059,-190.331 814.942,-191.863C814.921,-192.28 814.902,-192.732 814.889,-193.218C814.88,-193.565 814.873,-193.928 814.87,-194.306C814.87,-194.4 814.869,-194.496 814.869,-194.592C814.869,-194.688 814.87,-194.786 814.871,-194.884C814.873,-195.08 814.874,-195.28 814.876,-195.483C814.897,-196.297 814.928,-197.165 814.997,-198.077C815.063,-198.976 815.154,-199.918 815.271,-200.891C815.883,-200.922 816.535,-200.953 817.213,-200.985C818.946,-201.067 820.517,-201.141 821.656,-201.195C822.226,-201.221 822.687,-201.237 823.006,-201.242C823.026,-201.242 823.043,-201.243 823.061,-201.243C823.657,-201.205 824.015,-201.15 824.032,-201.079C824.03,-201.059 823.963,-200.948 822.845,-200.733C822.825,-200.729 822.812,-200.709 822.816,-200.689C822.82,-200.669 822.839,-200.655 822.86,-200.659C823.968,-200.872 824.114,-200.99 824.107,-201.085L824.107,-201.085ZM815.2,-204.07C815.041,-203.136 814.912,-202.217 814.809,-201.322C814.501,-201.287 814.204,-201.249 813.923,-201.21C814.104,-201.742 814.288,-202.293 814.476,-202.857C814.868,-204.032 815.267,-205.229 815.574,-206.051C815.439,-205.405 815.315,-204.744 815.2,-204.07Z" style="fill:rgb(239,198,124);fill-rule:nonzero;"/>
            <path d="M819.922,-197.302C819.719,-197.341 819.492,-197.283 819.262,-197.136C819.158,-197.091 819.041,-197.025 818.92,-196.934C818.719,-196.783 818.507,-196.564 818.327,-196.282C818.148,-195.999 817.996,-195.652 817.942,-195.254C817.89,-194.856 817.946,-194.481 818.046,-194.162C818.146,-193.842 818.294,-193.576 818.45,-193.378C818.543,-193.258 818.64,-193.164 818.729,-193.093C818.913,-192.893 819.116,-192.779 819.323,-192.764C819.339,-192.763 819.355,-192.762 819.371,-192.762C820.066,-192.762 820.746,-193.874 820.877,-194.866C821.011,-195.883 820.624,-197.169 819.922,-197.302ZM820.729,-194.886C820.605,-193.955 819.956,-192.867 819.334,-192.913C819.166,-192.926 818.996,-193.023 818.838,-193.195C818.784,-193.282 818.729,-193.388 818.679,-193.513C818.595,-193.72 818.524,-193.977 818.483,-194.264C818.441,-194.551 818.427,-194.868 818.47,-195.184C818.512,-195.5 818.608,-195.803 818.722,-196.069C818.837,-196.336 818.972,-196.566 819.107,-196.744C819.188,-196.853 819.269,-196.941 819.344,-197.011C819.503,-197.112 819.656,-197.164 819.795,-197.164C819.829,-197.164 819.862,-197.161 819.894,-197.155C820.507,-197.038 820.852,-195.818 820.729,-194.886Z" style="fill:rgb(239,198,124);fill-rule:nonzero;"/>
            <path d="M860.571,-211.038C858.593,-211.478 856.596,-211.765 854.595,-211.901C854.428,-211.915 854.257,-211.93 854.08,-211.943C853.199,-212.005 852.192,-212.047 851.079,-212.04C850.94,-212.038 850.799,-212.039 850.656,-212.036C850.514,-212.032 850.37,-212.028 850.224,-212.024C850.078,-212.02 849.931,-212.015 849.782,-212.011C849.634,-212.003 849.483,-211.996 849.331,-211.988C848.81,-211.966 848.268,-211.92 847.713,-211.863C847.655,-212.415 847.593,-212.959 847.526,-213.493C847.432,-214.262 847.253,-214.629 847.128,-214.613C847,-214.597 846.926,-214.199 847.011,-213.432C847.071,-212.899 847.129,-212.356 847.185,-211.805C845.958,-211.663 844.661,-211.471 843.306,-211.232C841.857,-210.974 840.342,-210.668 838.787,-210.265C838.01,-210.061 837.222,-209.836 836.435,-209.546C836.041,-209.399 835.647,-209.239 835.26,-209.023C835.067,-208.912 834.874,-208.793 834.691,-208.608C834.603,-208.513 834.508,-208.4 834.461,-208.223C834.439,-208.136 834.436,-208.033 834.459,-207.94C834.481,-207.847 834.524,-207.767 834.572,-207.702C834.669,-207.573 834.778,-207.496 834.883,-207.428C834.989,-207.362 835.095,-207.311 835.201,-207.265L835.279,-207.233L835.35,-207.202L835.489,-207.142C835.582,-207.1 835.677,-207.065 835.767,-207.017C835.948,-206.925 836.132,-206.841 836.306,-206.737C836.395,-206.687 836.483,-206.637 836.571,-206.588C836.658,-206.536 836.743,-206.481 836.828,-206.428C837.513,-205.999 838.15,-205.512 838.747,-204.998C839.942,-203.971 840.972,-202.835 841.87,-201.692C841.985,-201.551 842.091,-201.405 842.199,-201.261C842.306,-201.117 842.416,-200.976 842.518,-200.831C842.719,-200.539 842.928,-200.258 843.113,-199.967C843.208,-199.823 843.303,-199.68 843.396,-199.538C843.486,-199.393 843.574,-199.25 843.662,-199.108C843.842,-198.825 844.004,-198.538 844.166,-198.257C844.808,-197.13 845.33,-196.037 845.754,-195.017C845.807,-194.89 845.863,-194.766 845.911,-194.64C845.96,-194.514 846.008,-194.39 846.055,-194.267C846.15,-194.022 846.244,-193.783 846.322,-193.547C846.404,-193.312 846.486,-193.084 846.561,-192.862C846.631,-192.638 846.699,-192.421 846.764,-192.211C846.796,-192.106 846.831,-192.004 846.859,-191.901C846.887,-191.799 846.915,-191.699 846.942,-191.6C846.96,-191.538 846.976,-191.478 846.993,-191.418C847.43,-189.705 847.744,-187.825 847.858,-185.787C847.861,-185.747 847.893,-185.716 847.933,-185.716L847.933,-185.716C847.972,-185.716 848.005,-185.746 848.008,-185.786C848.232,-188.976 848.349,-192.216 848.357,-195.414C848.359,-196.588 848.346,-197.764 848.319,-198.941C848.321,-199.052 848.322,-199.166 848.323,-199.284C848.323,-199.805 848.329,-200.398 848.32,-201.054C848.298,-203.678 848.171,-207.307 847.772,-211.296C847.765,-211.367 847.757,-211.437 847.75,-211.507C848.3,-211.578 848.834,-211.637 849.352,-211.673C849.503,-211.685 849.652,-211.696 849.799,-211.708C849.946,-211.717 850.092,-211.725 850.237,-211.733C850.381,-211.742 850.524,-211.75 850.665,-211.758C850.807,-211.763 850.947,-211.768 851.085,-211.773C852.19,-211.814 853.192,-211.805 854.071,-211.774C854.248,-211.768 854.419,-211.76 854.587,-211.751C856.579,-211.616 858.568,-211.33 860.539,-210.892C860.579,-210.883 860.619,-210.908 860.628,-210.949C860.637,-210.989 860.611,-211.029 860.571,-211.038L860.571,-211.038ZM847.929,-186.859C847.762,-188.674 847.44,-190.354 847.021,-191.896C847.018,-191.912 847.014,-191.927 847.01,-191.943C846.986,-192.047 846.954,-192.151 846.926,-192.257C846.867,-192.471 846.806,-192.691 846.744,-192.919C846.676,-193.145 846.602,-193.377 846.527,-193.617C846.456,-193.857 846.369,-194.1 846.281,-194.35C846.237,-194.475 846.193,-194.602 846.148,-194.73C846.103,-194.859 846.05,-194.986 846.001,-195.116C845.604,-196.158 845.107,-197.277 844.484,-198.433C844.327,-198.721 844.169,-199.016 843.994,-199.307C843.908,-199.453 843.821,-199.6 843.733,-199.749C843.642,-199.895 843.549,-200.042 843.456,-200.19C843.273,-200.489 843.068,-200.779 842.868,-201.079C842.767,-201.228 842.658,-201.373 842.553,-201.522C842.445,-201.67 842.34,-201.82 842.226,-201.966C841.332,-203.144 840.299,-204.316 839.081,-205.383C838.473,-205.916 837.819,-206.423 837.108,-206.873C837.019,-206.929 836.931,-206.987 836.84,-207.041C836.748,-207.094 836.656,-207.146 836.564,-207.199C836.382,-207.308 836.187,-207.398 835.996,-207.496C835.901,-207.546 835.799,-207.584 835.7,-207.629L835.551,-207.694L835.477,-207.726L835.41,-207.754C835.323,-207.792 835.239,-207.833 835.165,-207.879C835.093,-207.924 835.03,-207.976 835,-208.018C834.985,-208.038 834.979,-208.054 834.976,-208.063C834.975,-208.073 834.974,-208.079 834.977,-208.094C834.983,-208.123 835.02,-208.184 835.075,-208.24C835.188,-208.357 835.353,-208.466 835.521,-208.562C835.864,-208.754 836.241,-208.911 836.619,-209.054C837.378,-209.337 838.153,-209.565 838.918,-209.773C840.451,-210.185 841.952,-210.51 843.388,-210.791C844.728,-211.051 846.011,-211.268 847.223,-211.437C847.23,-211.372 847.236,-211.308 847.243,-211.243C847.64,-207.27 847.899,-203.661 848.054,-201.045C848.096,-200.392 848.124,-199.8 848.155,-199.28C848.159,-199.202 848.163,-199.127 848.167,-199.052C848.196,-197.838 848.21,-196.625 848.207,-195.415C848.2,-192.574 848.107,-189.702 847.929,-186.859Z" style="fill:rgb(239,198,124);fill-rule:nonzero;"/>
            <path d="M856.92,-196.098C856.886,-196.122 856.839,-196.114 856.815,-196.08C855.226,-193.827 854.624,-193.518 854.069,-193.736C853.768,-193.854 853.594,-194.334 853.551,-195.162C853.55,-195.187 853.537,-195.209 853.517,-195.221C853.51,-195.226 853.502,-195.229 853.494,-195.231C853.49,-195.232 853.486,-195.231 853.482,-195.232C853.462,-195.233 853.442,-195.227 853.427,-195.214C853.421,-195.209 853.416,-195.203 853.412,-195.196C853.284,-194.978 853.163,-194.777 853.047,-194.592C852.931,-194.407 852.822,-194.238 852.718,-194.084C851.921,-192.901 851.455,-192.582 851.186,-192.577C851.157,-192.577 851.13,-192.58 851.105,-192.587C851.1,-192.588 851.095,-192.589 851.09,-192.59C850.963,-192.629 850.859,-192.764 850.781,-192.977C850.767,-193.069 850.757,-193.178 850.754,-193.303C850.748,-193.508 850.757,-193.759 850.779,-194.025C850.805,-194.288 850.855,-194.573 850.931,-194.869C851.081,-195.459 851.296,-195.98 851.524,-196.316C851.591,-196.417 851.66,-196.5 851.724,-196.567C851.891,-196.684 852.059,-196.741 852.219,-196.733C852.376,-196.724 852.788,-196.615 853.229,-195.783C853.248,-195.746 853.293,-195.732 853.33,-195.752C853.367,-195.771 853.381,-195.816 853.361,-195.853C852.902,-196.72 852.454,-196.87 852.227,-196.882C852.034,-196.893 851.833,-196.826 851.638,-196.69C851.544,-196.647 851.439,-196.585 851.33,-196.498C851.149,-196.356 850.963,-196.151 850.801,-195.896C850.639,-195.642 850.501,-195.337 850.415,-195C850.329,-194.663 850.306,-194.327 850.33,-194.024C850.358,-193.725 850.418,-193.467 850.493,-193.252C850.537,-193.125 850.588,-193.016 850.64,-192.927C850.725,-192.69 850.854,-192.506 851.046,-192.447C851.088,-192.434 851.131,-192.428 851.176,-192.428C851.589,-192.428 852.153,-192.967 852.885,-194.064C852.913,-194.107 852.941,-194.15 852.97,-194.193C853.027,-194.281 853.086,-194.372 853.145,-194.466C853.234,-194.608 853.325,-194.757 853.418,-194.913C853.487,-194.159 853.682,-193.727 854.014,-193.597C854.654,-193.346 855.282,-193.647 856.937,-195.994C856.961,-196.028 856.953,-196.074 856.92,-196.098Z" style="fill:rgb(239,198,124);fill-rule:nonzero;"/>
            <path d="M865.177,-196.078C865.138,-196.091 865.095,-196.07 865.082,-196.031C864.537,-194.393 863.682,-192.979 862.676,-192.047C861.745,-191.185 860.728,-190.787 859.885,-190.954C859.275,-191.076 858.69,-191.518 858.19,-192.235C858.297,-192.29 858.401,-192.348 858.5,-192.41C858.54,-192.42 858.584,-192.432 858.631,-192.449C858.706,-192.476 858.794,-192.506 858.887,-192.549C859.072,-192.635 859.287,-192.76 859.499,-192.942C859.707,-193.127 859.912,-193.371 860.052,-193.682C860.19,-193.991 860.235,-194.339 860.182,-194.643C860.175,-194.681 860.17,-194.719 860.16,-194.755C860.149,-194.791 860.138,-194.826 860.127,-194.861C860.105,-194.93 860.077,-194.995 860.046,-195.053C859.985,-195.169 859.915,-195.266 859.845,-195.348C859.729,-195.481 859.609,-195.57 859.51,-195.625C859.384,-195.746 859.238,-195.828 859.078,-195.83L859.072,-195.83C858.464,-195.83 857.863,-194.642 857.239,-192.203C857.122,-192.986 857.039,-193.777 856.989,-194.568C856.978,-195.052 856.975,-195.621 856.995,-196.263C857.054,-198.422 857.385,-201.403 858.229,-204.58C858.653,-206.166 859.162,-207.65 859.764,-208.932C860.066,-209.571 860.393,-210.16 860.754,-210.667C860.934,-210.921 861.124,-211.154 861.326,-211.354C861.426,-211.455 861.532,-211.544 861.637,-211.628C861.745,-211.708 861.855,-211.779 861.967,-211.836C862.08,-211.891 862.194,-211.933 862.309,-211.958C862.424,-211.98 862.537,-211.983 862.648,-211.972C862.868,-211.942 863.068,-211.847 863.238,-211.73C863.309,-211.679 863.374,-211.626 863.436,-211.572C864.299,-210.749 864.808,-209.072 864.814,-209.05C866.004,-205.048 863.067,-199.966 857.506,-196.402C857.472,-196.38 857.461,-196.333 857.484,-196.298C857.506,-196.264 857.552,-196.253 857.587,-196.276C863.204,-199.876 866.167,-205.027 864.958,-209.092C864.93,-209.186 864.413,-210.89 863.498,-211.72C863.448,-211.769 863.396,-211.817 863.339,-211.865C863.164,-212.004 862.945,-212.131 862.682,-212.185C862.55,-212.208 862.41,-212.213 862.27,-212.195C862.129,-212.175 861.991,-212.134 861.856,-212.078C861.722,-212.02 861.594,-211.947 861.468,-211.865C861.346,-211.779 861.224,-211.688 861.11,-211.584C860.879,-211.379 860.666,-211.143 860.463,-210.886C860.058,-210.372 859.695,-209.777 859.362,-209.13C858.697,-207.835 858.146,-206.331 857.715,-204.717C857.286,-203.102 857.02,-201.53 856.872,-200.093C856.723,-198.656 856.694,-197.353 856.728,-196.263C856.749,-195.601 856.792,-195.019 856.842,-194.528C856.899,-193.625 857.001,-192.722 857.145,-191.831C857.145,-191.83 857.145,-191.829 857.145,-191.828C857.14,-191.807 857.144,-191.786 857.155,-191.769C857.164,-191.715 857.173,-191.659 857.182,-191.605C857.188,-191.568 857.22,-191.542 857.256,-191.542C857.26,-191.542 857.264,-191.543 857.268,-191.544C857.309,-191.55 857.337,-191.589 857.33,-191.63C857.319,-191.694 857.309,-191.759 857.298,-191.824C858.082,-195.018 858.694,-195.686 859.076,-195.68C859.189,-195.679 859.301,-195.618 859.403,-195.522C859.45,-195.435 859.498,-195.317 859.535,-195.175C859.557,-195.089 859.576,-194.995 859.586,-194.899C859.592,-194.85 859.595,-194.802 859.592,-194.753C859.592,-194.729 859.592,-194.705 859.592,-194.681C859.592,-194.656 859.587,-194.631 859.584,-194.606C859.563,-194.405 859.502,-194.192 859.403,-193.969C859.303,-193.746 859.18,-193.535 859.053,-193.342C858.923,-193.151 858.791,-192.978 858.673,-192.832C858.614,-192.759 858.556,-192.696 858.507,-192.636C858.475,-192.598 858.445,-192.565 858.417,-192.535C858.299,-192.462 858.176,-192.394 858.046,-192.331C858.027,-192.321 858.012,-192.304 858.007,-192.283C858.001,-192.262 858.005,-192.24 858.017,-192.222C858.55,-191.43 859.186,-190.94 859.856,-190.807C859.997,-190.779 860.141,-190.765 860.288,-190.765C861.082,-190.765 861.95,-191.171 862.778,-191.937C863.802,-192.885 864.671,-194.322 865.224,-195.983C865.237,-196.023 865.216,-196.065 865.177,-196.078L865.177,-196.078Z" style="fill:rgb(239,198,124);fill-rule:nonzero;"/>
            <path d="M869.884,-196.071C869.848,-196.092 869.802,-196.081 869.781,-196.046C868.646,-194.181 867.528,-192.844 866.7,-192.308C866.66,-192.288 866.619,-192.268 866.576,-192.248C866.423,-192.179 866.238,-192.109 866.051,-192.11C865.96,-192.112 865.872,-192.134 865.803,-192.182C865.734,-192.229 865.675,-192.306 865.626,-192.402C865.577,-192.498 865.543,-192.615 865.515,-192.737C865.486,-192.86 865.468,-192.993 865.454,-193.13C865.4,-193.682 865.428,-194.313 865.474,-194.972C865.491,-195.219 865.512,-195.463 865.535,-195.7C865.56,-195.955 865.453,-196.099 865.326,-196.117C865.2,-196.134 865.055,-196.021 865.02,-195.759C864.988,-195.516 864.961,-195.266 864.943,-195.01C864.896,-194.328 864.899,-193.669 865.01,-193.065C865.039,-192.914 865.073,-192.767 865.122,-192.625C865.171,-192.483 865.228,-192.344 865.313,-192.217C865.397,-192.092 865.509,-191.974 865.651,-191.906C865.793,-191.835 865.945,-191.828 866.071,-191.845C866.327,-191.886 866.509,-192.001 866.66,-192.101C866.707,-192.134 866.75,-192.167 866.79,-192.199C867.651,-192.76 868.766,-194.088 869.909,-195.968C869.93,-196.003 869.919,-196.05 869.884,-196.071ZM865.469,-196.83C865.666,-196.83 865.826,-196.99 865.826,-197.187C865.826,-197.384 865.666,-197.544 865.469,-197.544C865.273,-197.544 865.113,-197.384 865.113,-197.187C865.113,-196.99 865.273,-196.83 865.469,-196.83Z" style="fill:rgb(239,198,124);fill-rule:nonzero;"/>
        </g>
    </g>
</svg>
