
<svg width="144px" height="448px" version="1.1" xmlns="http://www.w3.org/2000/svg" xmlns:xlink="http://www.w3.org/1999/xlink" xml:space="preserve" xmlns:serif="http://www.serif.com/" style="fill-rule:evenodd;clip-rule:evenodd;stroke-linejoin:round;stroke-miterlimit:2;">
    <g transform="matrix(1,0,0,1,-10125.6,-4245.88)">
        <g transform="matrix(-1.40099e-16,4.26555,-4.26407,2.3625e-16,9357.44,888.401)">
            <path d="M806.735,-196.079C805.798,-195.837 803.21,-195.136 800.201,-194.06C800.449,-194.955 800.659,-195.843 800.827,-196.718C801.076,-198.006 801.229,-199.263 801.32,-200.462C801.498,-202.862 801.427,-205.033 801.237,-206.838C801.125,-207.898 800.967,-208.831 800.792,-209.617C800.473,-211.219 800.013,-212.486 799.43,-213.184C799.109,-213.567 798.761,-213.762 798.396,-213.763L798.394,-213.763C796.458,-213.763 795.536,-209.852 794.56,-205.711C793.656,-201.875 792.721,-197.908 790.942,-196.826C790.477,-196.544 789.985,-196.473 789.437,-196.611C788.968,-196.73 788.583,-197.009 788.282,-197.446C788.267,-197.472 788.252,-197.5 788.238,-197.529C788.134,-197.732 788.028,-197.992 787.946,-198.305C787.862,-198.618 787.799,-198.982 787.759,-199.388C787.677,-200.201 787.692,-201.178 787.781,-202.259C787.87,-203.34 788.033,-204.524 788.242,-205.763C788.32,-206.227 788.401,-206.682 788.485,-207.127C788.575,-207.603 788.503,-207.867 788.378,-207.894C788.254,-207.921 788.077,-207.708 787.976,-207.228C787.883,-206.78 787.796,-206.321 787.717,-205.851C787.506,-204.598 787.374,-203.39 787.333,-202.286C787.317,-201.863 787.316,-201.456 787.327,-201.068C787.35,-198.818 787.844,-196.859 789.4,-196.466C789.981,-196.32 790.526,-196.398 791.02,-196.698C792.852,-197.812 793.795,-201.81 794.706,-205.677C795.668,-209.758 796.577,-213.613 798.394,-213.613L798.395,-213.613C798.714,-213.613 799.024,-213.436 799.315,-213.087C799.868,-212.426 800.336,-211.141 800.664,-209.467C800.794,-208.707 800.903,-207.816 800.972,-206.815C801.095,-205.019 801.098,-202.867 800.872,-200.5C800.758,-199.317 800.586,-198.081 800.327,-196.817C800.128,-195.839 799.88,-194.842 799.587,-193.836C798.471,-193.426 797.311,-192.966 796.166,-192.461C793.493,-191.282 791.376,-190.065 789.875,-188.842C788.016,-187.329 787.087,-185.794 787.115,-184.279C787.146,-182.569 788.335,-180.824 789.723,-180.311C789.853,-180.259 789.992,-180.216 790.139,-180.186C790.505,-180.109 790.915,-180.131 791.322,-180.239C791.525,-180.295 791.728,-180.37 791.93,-180.462C792.129,-180.556 792.328,-180.666 792.523,-180.789C793.303,-181.29 794.032,-181.998 794.723,-182.821C795.412,-183.647 796.063,-184.595 796.677,-185.632C797.902,-187.708 798.985,-190.14 799.825,-192.789C799.94,-193.154 800.049,-193.519 800.152,-193.883C803.197,-194.977 805.827,-195.69 806.772,-195.934C806.812,-195.945 806.836,-195.986 806.826,-196.026C806.816,-196.066 806.775,-196.09 806.735,-196.079L806.735,-196.079ZM789.969,-188.726C791.46,-189.94 793.565,-191.15 796.226,-192.324C797.333,-192.812 798.453,-193.257 799.534,-193.657C799.464,-193.422 799.393,-193.186 799.318,-192.949C798.489,-190.337 797.451,-187.925 796.289,-185.857C795.706,-184.824 795.09,-183.877 794.44,-183.05C793.79,-182.227 793.104,-181.516 792.377,-181.011C792.194,-180.887 792.01,-180.775 791.824,-180.679C791.638,-180.585 791.45,-180.507 791.262,-180.447C790.887,-180.331 790.511,-180.296 790.169,-180.352C790.044,-180.371 789.924,-180.401 789.809,-180.439C788.479,-180.918 787.295,-182.645 787.265,-184.282C787.238,-185.748 788.148,-187.243 789.969,-188.726Z" style="fill:rgb(239,198,124);fill-rule:nonzero;"/>
            <path d="M810.907,-196.071C810.871,-196.092 810.825,-196.081 810.804,-196.046C809.299,-193.572 808.074,-192.441 807.263,-192.777C807.089,-192.849 806.96,-193.031 806.87,-193.288C806.844,-193.429 806.825,-193.606 806.82,-193.812C806.804,-194.386 806.88,-195.181 806.965,-196.06C806.98,-196.225 806.996,-196.388 807.011,-196.546C807.046,-196.884 806.551,-196.959 806.496,-196.609C806.472,-196.448 806.451,-196.281 806.435,-196.111C806.43,-196.062 806.426,-196.012 806.422,-195.963C806.202,-195.346 806.014,-194.799 805.855,-194.335C805.585,-193.546 805.374,-192.929 805.192,-192.542C805.176,-192.515 805.159,-192.487 805.141,-192.458C805.119,-192.423 805.096,-192.389 805.071,-192.355C805.048,-192.32 805.016,-192.283 804.998,-192.263C804.955,-192.219 804.905,-192.177 804.842,-192.178C804.811,-192.18 804.78,-192.191 804.758,-192.215C804.736,-192.238 804.722,-192.267 804.71,-192.295C804.696,-192.333 804.66,-192.457 804.642,-192.567C804.602,-192.795 804.583,-193.051 804.572,-193.323C804.55,-193.866 804.558,-194.472 804.566,-195.109C804.569,-195.348 804.573,-195.583 804.576,-195.812C804.584,-196.305 804.084,-196.328 804.057,-195.829C804.046,-195.597 804.037,-195.359 804.034,-195.116C804.026,-194.469 804.051,-193.849 804.125,-193.284C804.162,-193.001 804.211,-192.732 804.289,-192.478C804.332,-192.349 804.366,-192.241 804.468,-192.082C804.516,-192.014 804.57,-191.955 804.636,-191.921C804.669,-191.904 804.704,-191.891 804.74,-191.884C804.757,-191.879 804.776,-191.881 804.793,-191.88C804.811,-191.879 804.829,-191.879 804.846,-191.884C804.988,-191.905 805.09,-192.012 805.159,-192.117C805.195,-192.174 805.217,-192.213 805.236,-192.257C805.257,-192.3 805.275,-192.341 805.291,-192.381C805.302,-192.409 805.311,-192.435 805.321,-192.462C805.504,-192.845 805.709,-193.444 805.997,-194.287C806.114,-194.628 806.246,-195.014 806.395,-195.439C806.382,-194.796 806.442,-194.216 806.557,-193.774C806.592,-193.637 806.632,-193.515 806.675,-193.409C806.777,-193.032 806.944,-192.747 807.206,-192.639C807.319,-192.592 807.437,-192.569 807.561,-192.569C808.426,-192.569 809.558,-193.709 810.932,-195.968C810.953,-196.003 810.942,-196.049 810.907,-196.071L810.907,-196.071Z" style="fill:rgb(239,198,124);fill-rule:nonzero;"/>
            <path d="M819.194,-196.078C819.155,-196.091 819.113,-196.07 819.1,-196.031C818.554,-194.393 817.7,-192.979 816.694,-192.047C815.763,-191.185 814.745,-190.787 813.903,-190.954C813.292,-191.076 812.707,-191.518 812.207,-192.235C812.315,-192.29 812.418,-192.348 812.518,-192.41C812.557,-192.42 812.601,-192.432 812.648,-192.449C812.723,-192.476 812.812,-192.506 812.904,-192.549C813.09,-192.635 813.304,-192.76 813.516,-192.942C813.724,-193.127 813.93,-193.371 814.069,-193.682C814.208,-193.991 814.253,-194.339 814.199,-194.643C814.192,-194.681 814.188,-194.719 814.178,-194.755C814.166,-194.791 814.155,-194.826 814.144,-194.861C814.123,-194.93 814.095,-194.995 814.064,-195.053C814.003,-195.169 813.933,-195.266 813.862,-195.348C813.747,-195.481 813.627,-195.57 813.527,-195.625C813.402,-195.746 813.255,-195.828 813.095,-195.83L813.089,-195.83C812.481,-195.83 811.88,-194.642 811.256,-192.203C811.139,-192.986 811.056,-193.777 811.007,-194.568C810.995,-195.052 810.993,-195.621 811.012,-196.263C811.072,-198.422 811.402,-201.403 812.247,-204.58C812.67,-206.166 813.179,-207.65 813.782,-208.932C814.084,-209.571 814.41,-210.16 814.771,-210.667C814.952,-210.921 815.141,-211.154 815.344,-211.354C815.443,-211.455 815.549,-211.544 815.655,-211.628C815.763,-211.708 815.872,-211.779 815.985,-211.836C816.098,-211.891 816.212,-211.933 816.327,-211.958C816.441,-211.98 816.555,-211.983 816.665,-211.972C816.885,-211.942 817.086,-211.847 817.255,-211.73C817.326,-211.679 817.392,-211.626 817.454,-211.572C818.317,-210.749 818.825,-209.072 818.832,-209.05C820.021,-205.048 817.084,-199.966 811.524,-196.402C811.489,-196.38 811.479,-196.333 811.501,-196.298C811.524,-196.264 811.57,-196.253 811.605,-196.276C817.222,-199.876 820.184,-205.027 818.976,-209.092C818.948,-209.186 818.43,-210.89 817.515,-211.72C817.465,-211.769 817.413,-211.817 817.356,-211.865C817.182,-212.004 816.963,-212.131 816.7,-212.185C816.568,-212.208 816.428,-212.213 816.287,-212.195C816.147,-212.175 816.009,-212.134 815.874,-212.078C815.74,-212.02 815.611,-211.947 815.486,-211.865C815.364,-211.779 815.241,-211.688 815.128,-211.584C814.897,-211.379 814.683,-211.143 814.481,-210.886C814.075,-210.372 813.713,-209.777 813.379,-209.13C812.714,-207.835 812.164,-206.331 811.733,-204.717C811.304,-203.102 811.037,-201.53 810.889,-200.093C810.74,-198.656 810.711,-197.353 810.746,-196.263C810.767,-195.601 810.81,-195.019 810.859,-194.528C810.916,-193.625 811.018,-192.722 811.163,-191.831C811.163,-191.83 811.163,-191.829 811.162,-191.828C811.157,-191.807 811.162,-191.786 811.173,-191.769C811.182,-191.715 811.19,-191.659 811.2,-191.605C811.206,-191.568 811.237,-191.542 811.273,-191.542C811.277,-191.542 811.282,-191.543 811.286,-191.544C811.327,-191.55 811.354,-191.589 811.347,-191.63C811.336,-191.694 811.326,-191.759 811.316,-191.824C812.099,-195.018 812.711,-195.686 813.093,-195.68C813.207,-195.679 813.319,-195.618 813.42,-195.522C813.467,-195.435 813.516,-195.317 813.552,-195.175C813.574,-195.089 813.593,-194.995 813.604,-194.899C813.61,-194.85 813.612,-194.802 813.61,-194.753C813.61,-194.729 813.61,-194.705 813.61,-194.681C813.609,-194.656 813.604,-194.631 813.602,-194.606C813.581,-194.405 813.52,-194.192 813.42,-193.969C813.32,-193.746 813.197,-193.535 813.071,-193.342C812.941,-193.151 812.809,-192.978 812.69,-192.832C812.632,-192.759 812.573,-192.696 812.525,-192.636C812.493,-192.598 812.462,-192.565 812.435,-192.535C812.317,-192.462 812.193,-192.394 812.064,-192.331C812.044,-192.321 812.03,-192.304 812.024,-192.283C812.019,-192.262 812.022,-192.24 812.034,-192.222C812.568,-191.43 813.203,-190.94 813.873,-190.807C814.014,-190.779 814.159,-190.765 814.305,-190.765C815.099,-190.765 815.968,-191.171 816.795,-191.937C817.82,-192.885 818.688,-194.322 819.241,-195.983C819.255,-196.023 819.233,-196.065 819.194,-196.078L819.194,-196.078Z" style="fill:rgb(239,198,124);fill-rule:nonzero;"/>
            <path d="M823.901,-196.071C823.866,-196.092 823.82,-196.081 823.798,-196.046C822.664,-194.181 821.545,-192.844 820.717,-192.308C820.678,-192.288 820.637,-192.268 820.593,-192.248C820.441,-192.179 820.255,-192.109 820.069,-192.11C819.977,-192.112 819.889,-192.134 819.821,-192.182C819.751,-192.229 819.692,-192.306 819.644,-192.402C819.595,-192.498 819.561,-192.615 819.532,-192.737C819.503,-192.86 819.486,-192.993 819.472,-193.13C819.418,-193.682 819.445,-194.313 819.491,-194.972C819.509,-195.219 819.53,-195.463 819.553,-195.7C819.578,-195.955 819.47,-196.099 819.344,-196.117C819.218,-196.134 819.072,-196.021 819.037,-195.759C819.005,-195.516 818.979,-195.266 818.96,-195.01C818.914,-194.328 818.916,-193.669 819.027,-193.065C819.057,-192.914 819.09,-192.767 819.14,-192.625C819.189,-192.483 819.245,-192.344 819.331,-192.217C819.414,-192.092 819.527,-191.974 819.669,-191.906C819.811,-191.835 819.962,-191.828 820.089,-191.845C820.345,-191.886 820.527,-192.001 820.677,-192.101C820.724,-192.134 820.767,-192.167 820.808,-192.199C821.668,-192.76 822.783,-194.088 823.926,-195.968C823.948,-196.003 823.937,-196.05 823.901,-196.071ZM819.487,-196.83C819.684,-196.83 819.844,-196.99 819.844,-197.187C819.844,-197.384 819.684,-197.544 819.487,-197.544C819.29,-197.544 819.13,-197.384 819.13,-197.187C819.13,-196.99 819.29,-196.83 819.487,-196.83Z" style="fill:rgb(239,198,124);fill-rule:nonzero;"/>
            <path d="M846.52,-213.849C845.325,-214.035 843.998,-213.644 842.656,-212.718C842.09,-212.35 841.462,-211.853 840.828,-211.212C839.765,-210.144 838.677,-208.69 837.77,-206.91C837.317,-206.021 836.91,-205.051 836.583,-204.012C836.257,-202.974 836.009,-201.866 835.894,-200.713C835.777,-199.558 835.806,-198.423 835.923,-197.341C836.044,-196.259 836.254,-195.228 836.527,-194.268C837.073,-192.347 837.86,-190.709 838.696,-189.456C839.114,-188.829 839.545,-188.298 839.959,-187.866C840.048,-187.773 840.136,-187.686 840.222,-187.603C841.352,-186.455 842.572,-185.825 843.776,-185.777C843.826,-185.775 843.877,-185.774 843.928,-185.774C845.897,-185.774 847.935,-187.299 849.685,-190.087C851.309,-192.675 852.456,-196.031 852.753,-199.064C853.05,-202.103 852.571,-205.625 851.471,-208.487C850.26,-211.636 848.502,-213.541 846.52,-213.849L846.52,-213.849ZM852.603,-199.078C852.309,-196.067 851.17,-192.736 849.558,-190.166C847.836,-187.423 845.843,-185.924 843.928,-185.924C843.879,-185.924 843.83,-185.925 843.782,-185.927C842.608,-185.974 841.413,-186.598 840.302,-187.735C840.23,-187.813 840.157,-187.894 840.084,-187.979C839.699,-188.424 839.302,-188.966 838.92,-189.599C838.156,-190.864 837.446,-192.494 836.961,-194.385C836.718,-195.33 836.532,-196.339 836.43,-197.393C836.33,-198.447 836.311,-199.547 836.423,-200.66C836.534,-201.773 836.766,-202.848 837.069,-203.863C837.374,-204.877 837.751,-205.832 838.173,-206.711C839.015,-208.473 840.026,-209.935 841.021,-211.028C841.627,-211.699 842.23,-212.224 842.775,-212.62C843.862,-213.362 844.934,-213.745 845.927,-213.745C846.12,-213.745 846.31,-213.73 846.497,-213.701C848.424,-213.401 850.141,-211.531 851.331,-208.433C852.423,-205.592 852.899,-202.095 852.603,-199.078L852.603,-199.078Z" style="fill:rgb(239,198,124);fill-rule:nonzero;"/>
            <path d="M863.035,-196.078C862.996,-196.091 862.954,-196.07 862.94,-196.031C862.395,-194.393 861.541,-192.979 860.535,-192.047C859.603,-191.185 858.586,-190.787 857.743,-190.954C857.133,-191.076 856.548,-191.518 856.048,-192.235C856.156,-192.29 856.259,-192.348 856.358,-192.41C856.398,-192.42 856.442,-192.432 856.489,-192.449C856.564,-192.476 856.653,-192.506 856.745,-192.549C856.931,-192.635 857.145,-192.76 857.357,-192.942C857.565,-193.127 857.771,-193.371 857.91,-193.682C858.049,-193.991 858.094,-194.339 858.04,-194.643C858.033,-194.681 858.028,-194.719 858.018,-194.755C858.007,-194.791 857.996,-194.826 857.985,-194.861C857.964,-194.93 857.936,-194.995 857.905,-195.053C857.843,-195.169 857.774,-195.266 857.703,-195.348C857.588,-195.481 857.468,-195.57 857.368,-195.625C857.243,-195.746 857.096,-195.828 856.936,-195.83L856.93,-195.83C856.322,-195.83 855.721,-194.642 855.097,-192.203C854.98,-192.986 854.897,-193.777 854.848,-194.568C854.836,-195.052 854.834,-195.621 854.853,-196.263C854.913,-198.422 855.243,-201.403 856.088,-204.58C856.511,-206.166 857.02,-207.65 857.623,-208.932C857.925,-209.571 858.251,-210.16 858.612,-210.667C858.793,-210.921 858.982,-211.154 859.185,-211.354C859.284,-211.455 859.39,-211.544 859.496,-211.628C859.604,-211.708 859.713,-211.779 859.826,-211.836C859.938,-211.891 860.053,-211.933 860.167,-211.958C860.282,-211.98 860.396,-211.983 860.506,-211.972C860.726,-211.942 860.927,-211.847 861.096,-211.73C861.167,-211.679 861.233,-211.626 861.294,-211.572C862.158,-210.749 862.666,-209.072 862.673,-209.05C863.862,-205.048 860.925,-199.966 855.365,-196.402C855.33,-196.38 855.32,-196.333 855.342,-196.298C855.364,-196.264 855.411,-196.253 855.446,-196.276C861.063,-199.876 864.025,-205.027 862.816,-209.092C862.789,-209.186 862.271,-210.89 861.356,-211.72C861.306,-211.769 861.254,-211.817 861.197,-211.865C861.022,-212.004 860.804,-212.131 860.54,-212.185C860.408,-212.208 860.269,-212.213 860.128,-212.195C859.988,-212.175 859.849,-212.134 859.715,-212.078C859.581,-212.02 859.452,-211.947 859.327,-211.865C859.204,-211.779 859.082,-211.688 858.969,-211.584C858.738,-211.379 858.524,-211.143 858.322,-210.886C857.916,-210.372 857.554,-209.777 857.22,-209.13C856.555,-207.835 856.005,-206.331 855.573,-204.717C855.145,-203.102 854.878,-201.53 854.73,-200.093C854.581,-198.656 854.552,-197.353 854.587,-196.263C854.607,-195.601 854.651,-195.019 854.7,-194.528C854.757,-193.625 854.859,-192.722 855.004,-191.831C855.004,-191.83 855.003,-191.829 855.003,-191.828C854.998,-191.807 855.003,-191.786 855.014,-191.769C855.023,-191.715 855.031,-191.659 855.04,-191.605C855.047,-191.568 855.078,-191.542 855.114,-191.542C855.118,-191.542 855.123,-191.543 855.127,-191.544C855.168,-191.55 855.195,-191.589 855.188,-191.63C855.177,-191.694 855.167,-191.759 855.157,-191.824C855.94,-195.018 856.552,-195.686 856.934,-195.68C857.048,-195.679 857.16,-195.618 857.261,-195.522C857.308,-195.435 857.357,-195.317 857.393,-195.175C857.415,-195.089 857.434,-194.995 857.445,-194.899C857.451,-194.85 857.453,-194.802 857.451,-194.753C857.451,-194.729 857.451,-194.705 857.451,-194.681C857.45,-194.656 857.445,-194.631 857.443,-194.606C857.422,-194.405 857.361,-194.192 857.261,-193.969C857.161,-193.746 857.038,-193.535 856.912,-193.342C856.782,-193.151 856.65,-192.978 856.531,-192.832C856.472,-192.759 856.414,-192.696 856.366,-192.636C856.334,-192.598 856.303,-192.565 856.276,-192.535C856.158,-192.462 856.034,-192.394 855.905,-192.331C855.885,-192.321 855.871,-192.304 855.865,-192.283C855.86,-192.262 855.863,-192.24 855.875,-192.222C856.409,-191.43 857.044,-190.94 857.714,-190.807C857.855,-190.779 857.999,-190.765 858.146,-190.765C858.94,-190.765 859.808,-191.171 860.636,-191.937C861.661,-192.885 862.529,-194.322 863.082,-195.983C863.096,-196.023 863.074,-196.065 863.035,-196.078L863.035,-196.078Z" style="fill:rgb(239,198,124);fill-rule:nonzero;"/>
            <path d="M868.729,-196.098C868.695,-196.122 868.648,-196.114 868.624,-196.08C867.036,-193.827 866.433,-193.518 865.878,-193.736C865.577,-193.854 865.403,-194.334 865.361,-195.162C865.359,-195.187 865.346,-195.209 865.326,-195.221C865.319,-195.226 865.312,-195.229 865.304,-195.231C865.299,-195.232 865.295,-195.231 865.291,-195.232C865.271,-195.233 865.251,-195.227 865.237,-195.214C865.231,-195.209 865.225,-195.203 865.221,-195.196C865.093,-194.978 864.972,-194.777 864.856,-194.592C864.741,-194.407 864.631,-194.238 864.527,-194.084C863.73,-192.901 863.264,-192.582 862.995,-192.577C862.966,-192.577 862.939,-192.58 862.914,-192.587C862.91,-192.588 862.904,-192.589 862.9,-192.59C862.772,-192.629 862.668,-192.764 862.59,-192.977C862.576,-193.069 862.566,-193.178 862.563,-193.303C862.557,-193.508 862.566,-193.759 862.588,-194.025C862.614,-194.288 862.665,-194.573 862.74,-194.869C862.89,-195.459 863.105,-195.98 863.333,-196.316C863.4,-196.417 863.469,-196.5 863.533,-196.567C863.7,-196.684 863.869,-196.741 864.028,-196.733C864.185,-196.724 864.598,-196.615 865.038,-195.783C865.057,-195.746 865.103,-195.732 865.139,-195.752C865.176,-195.771 865.19,-195.816 865.17,-195.853C864.711,-196.72 864.263,-196.87 864.036,-196.882C863.843,-196.893 863.643,-196.826 863.447,-196.69C863.354,-196.647 863.248,-196.585 863.139,-196.498C862.958,-196.356 862.772,-196.151 862.61,-195.896C862.449,-195.642 862.311,-195.337 862.224,-195C862.138,-194.663 862.115,-194.327 862.139,-194.024C862.167,-193.725 862.227,-193.467 862.302,-193.252C862.346,-193.125 862.397,-193.016 862.449,-192.927C862.535,-192.69 862.663,-192.506 862.855,-192.447C862.897,-192.434 862.94,-192.428 862.985,-192.428C863.398,-192.428 863.962,-192.967 864.694,-194.064C864.722,-194.107 864.75,-194.15 864.779,-194.193C864.836,-194.281 864.895,-194.372 864.954,-194.466C865.043,-194.608 865.134,-194.757 865.228,-194.913C865.296,-194.159 865.491,-193.727 865.823,-193.597C866.464,-193.346 867.092,-193.647 868.747,-195.994C868.771,-196.028 868.763,-196.074 868.729,-196.098Z" style="fill:rgb(239,198,124);fill-rule:nonzero;"/>
            <path d="M876.072,-196.053C876.037,-196.076 875.991,-196.066 875.968,-196.031C874.454,-193.696 873.491,-192.654 873.025,-192.846C872.954,-192.875 872.898,-192.939 872.855,-193.028C872.85,-193.08 872.849,-193.139 872.851,-193.206C872.857,-193.426 872.897,-193.726 872.89,-194.069C872.883,-194.412 872.824,-194.734 872.748,-194.969C872.726,-195.04 872.702,-195.101 872.678,-195.153C872.657,-195.366 872.61,-195.478 872.507,-195.497C872.38,-195.52 872.149,-195.562 871.333,-192.775C871.333,-192.778 871.332,-192.781 871.332,-192.783C871.346,-192.856 871.36,-192.941 871.373,-193.037C871.416,-193.357 871.445,-193.802 871.378,-194.288C871.311,-194.774 871.154,-195.207 870.981,-195.498C870.924,-195.593 870.866,-195.672 870.811,-195.733C870.714,-195.916 870.601,-196.028 870.47,-196.043C869.878,-196.111 869.214,-194.157 868.794,-192.654L868.791,-193.086C868.865,-193.664 868.974,-194.725 868.965,-195.938C868.964,-196.11 868.96,-196.278 868.955,-196.443C868.943,-196.797 868.443,-196.793 868.436,-196.439C868.433,-196.274 868.432,-196.106 868.433,-195.934C868.442,-194.765 868.558,-193.739 868.641,-193.149L868.648,-192.116C868.645,-192.102 868.641,-192.087 868.637,-192.073C868.631,-192.051 868.637,-192.028 868.65,-192.011C868.654,-191.973 868.685,-191.943 868.724,-191.943L868.725,-191.943C868.766,-191.943 868.799,-191.977 868.799,-192.018L868.798,-192.097C869.417,-194.45 870.066,-195.938 870.453,-195.894C870.536,-195.885 870.615,-195.804 870.69,-195.659C870.705,-195.589 870.719,-195.506 870.73,-195.409C870.767,-195.105 870.787,-194.682 870.851,-194.215C870.916,-193.748 871.018,-193.325 871.108,-193.017C871.134,-192.925 871.16,-192.843 871.183,-192.774C871.191,-192.635 871.2,-192.493 871.207,-192.347C871.207,-192.344 871.209,-192.342 871.209,-192.339C871.204,-192.303 871.225,-192.267 871.261,-192.257C871.268,-192.255 871.275,-192.254 871.282,-192.254C871.314,-192.254 871.344,-192.276 871.354,-192.308C872.145,-195.087 872.418,-195.338 872.476,-195.351C872.502,-195.331 872.519,-195.25 872.529,-195.139C872.516,-195.088 872.5,-195.028 872.482,-194.959C872.425,-194.733 872.351,-194.418 872.358,-194.057C872.365,-193.698 872.461,-193.358 872.595,-193.134C872.635,-193.066 872.677,-193.012 872.718,-192.969C872.778,-192.844 872.858,-192.752 872.968,-192.707C873.367,-192.543 874.051,-192.8 876.094,-195.949C876.116,-195.984 876.106,-196.031 876.072,-196.053L876.072,-196.053Z" style="fill:rgb(239,198,124);fill-rule:nonzero;"/>
            <path d="M882.618,-196.071C882.583,-196.092 882.537,-196.081 882.516,-196.046C881.01,-193.572 879.786,-192.441 878.975,-192.777C878.801,-192.849 878.672,-193.031 878.582,-193.288C878.556,-193.429 878.537,-193.606 878.532,-193.812C878.515,-194.386 878.591,-195.181 878.676,-196.06C878.692,-196.225 878.708,-196.388 878.723,-196.546C878.758,-196.884 878.263,-196.959 878.208,-196.609C878.184,-196.448 878.163,-196.281 878.147,-196.111C878.142,-196.062 878.138,-196.012 878.134,-195.963C877.913,-195.346 877.726,-194.799 877.567,-194.335C877.297,-193.546 877.086,-192.929 876.904,-192.542C876.888,-192.515 876.871,-192.487 876.853,-192.458C876.831,-192.423 876.808,-192.389 876.783,-192.355C876.76,-192.32 876.728,-192.283 876.71,-192.263C876.667,-192.219 876.616,-192.177 876.553,-192.178C876.523,-192.18 876.492,-192.191 876.47,-192.215C876.448,-192.238 876.433,-192.267 876.422,-192.295C876.408,-192.333 876.372,-192.457 876.353,-192.567C876.314,-192.795 876.295,-193.051 876.284,-193.323C876.262,-193.866 876.27,-194.472 876.278,-195.109C876.281,-195.348 876.284,-195.583 876.288,-195.812C876.296,-196.305 875.796,-196.328 875.769,-195.829C875.758,-195.597 875.749,-195.359 875.746,-195.116C875.738,-194.469 875.763,-193.849 875.836,-193.284C875.874,-193.001 875.923,-192.732 876.001,-192.478C876.044,-192.349 876.078,-192.241 876.18,-192.082C876.228,-192.014 876.282,-191.955 876.348,-191.921C876.381,-191.904 876.416,-191.891 876.451,-191.884C876.469,-191.879 876.487,-191.881 876.505,-191.88C876.523,-191.879 876.541,-191.879 876.558,-191.884C876.7,-191.905 876.802,-192.012 876.871,-192.117C876.907,-192.174 876.928,-192.213 876.948,-192.257C876.969,-192.3 876.987,-192.341 877.003,-192.381C877.014,-192.409 877.023,-192.435 877.033,-192.462C877.216,-192.845 877.421,-193.444 877.709,-194.287C877.826,-194.628 877.958,-195.014 878.107,-195.439C878.094,-194.796 878.154,-194.216 878.269,-193.774C878.303,-193.637 878.344,-193.515 878.387,-193.409C878.489,-193.032 878.656,-192.747 878.918,-192.639C879.031,-192.592 879.149,-192.569 879.273,-192.569C880.138,-192.569 881.269,-193.709 882.644,-195.968C882.665,-196.003 882.654,-196.049 882.618,-196.071L882.618,-196.071Z" style="fill:rgb(239,198,124);fill-rule:nonzero;"/>
            <path d="M886.323,-196.063C886.29,-196.087 886.243,-196.08 886.218,-196.047C885.535,-195.125 884.979,-194.71 884.565,-194.812C884.307,-194.876 884.16,-195.131 884.03,-195.357C883.912,-195.562 883.809,-195.74 883.636,-195.74L883.636,-195.74C883.381,-195.74 883.041,-195.391 882.613,-192.892C882.616,-192.927 882.619,-192.962 882.623,-192.999C882.684,-193.606 882.785,-194.439 882.891,-195.354C882.911,-195.525 882.931,-195.693 882.95,-195.857C882.972,-196.032 882.862,-196.14 882.737,-196.162C882.611,-196.185 882.469,-196.116 882.437,-195.934C882.407,-195.765 882.383,-195.592 882.362,-195.415C882.254,-194.474 882.285,-193.614 882.357,-192.997C882.379,-192.809 882.404,-192.643 882.427,-192.504C882.434,-192.312 882.446,-192.121 882.46,-191.93C882.459,-191.924 882.458,-191.919 882.457,-191.914C882.455,-191.9 882.458,-191.886 882.464,-191.874C882.469,-191.808 882.473,-191.742 882.478,-191.677C882.482,-191.638 882.515,-191.609 882.553,-191.609C882.555,-191.609 882.557,-191.609 882.56,-191.609C882.601,-191.613 882.631,-191.649 882.628,-191.69C882.621,-191.768 882.616,-191.846 882.61,-191.924C883.102,-195.232 883.491,-195.59 883.636,-195.59L883.636,-195.59C883.723,-195.59 883.809,-195.44 883.9,-195.282C884.038,-195.043 884.209,-194.746 884.529,-194.667C885.014,-194.547 885.606,-194.969 886.339,-195.958C886.363,-195.991 886.356,-196.038 886.323,-196.063Z" style="fill:rgb(239,198,124);fill-rule:nonzero;"/>
            <path d="M891.98,-196.098C891.946,-196.122 891.9,-196.114 891.876,-196.08C890.287,-193.827 889.685,-193.518 889.129,-193.736C888.829,-193.854 888.654,-194.334 888.612,-195.162C888.611,-195.187 888.597,-195.209 888.577,-195.221C888.57,-195.226 888.563,-195.229 888.555,-195.231C888.551,-195.232 888.546,-195.231 888.542,-195.232C888.522,-195.233 888.503,-195.227 888.488,-195.214C888.482,-195.209 888.477,-195.203 888.472,-195.196C888.345,-194.978 888.223,-194.777 888.108,-194.592C887.992,-194.407 887.882,-194.238 887.778,-194.084C886.981,-192.901 886.516,-192.582 886.247,-192.577C886.217,-192.577 886.191,-192.58 886.166,-192.587C886.161,-192.588 886.156,-192.589 886.151,-192.59C886.024,-192.629 885.919,-192.764 885.842,-192.977C885.828,-193.069 885.818,-193.178 885.814,-193.303C885.809,-193.508 885.817,-193.759 885.84,-194.025C885.865,-194.288 885.916,-194.573 885.991,-194.869C886.142,-195.459 886.357,-195.98 886.584,-196.316C886.652,-196.417 886.72,-196.5 886.784,-196.567C886.952,-196.684 887.12,-196.741 887.279,-196.733C887.436,-196.724 887.849,-196.615 888.289,-195.783C888.309,-195.746 888.354,-195.732 888.391,-195.752C888.427,-195.771 888.441,-195.816 888.422,-195.853C887.963,-196.72 887.514,-196.87 887.287,-196.882C887.094,-196.893 886.894,-196.826 886.699,-196.69C886.605,-196.647 886.499,-196.585 886.391,-196.498C886.21,-196.356 886.023,-196.151 885.861,-195.896C885.7,-195.642 885.562,-195.337 885.476,-195C885.39,-194.663 885.367,-194.327 885.391,-194.024C885.418,-193.725 885.479,-193.467 885.553,-193.252C885.597,-193.125 885.649,-193.016 885.7,-192.927C885.786,-192.69 885.914,-192.506 886.107,-192.447C886.148,-192.434 886.191,-192.428 886.236,-192.428C886.649,-192.428 887.213,-192.967 887.945,-194.064C887.973,-194.107 888.002,-194.15 888.03,-194.193C888.088,-194.281 888.146,-194.372 888.205,-194.466C888.294,-194.608 888.385,-194.757 888.479,-194.913C888.547,-194.159 888.743,-193.727 889.075,-193.597C889.715,-193.346 890.343,-193.647 891.998,-195.994C892.022,-196.028 892.014,-196.074 891.98,-196.098Z" style="fill:rgb(239,198,124);fill-rule:nonzero;"/>
        </g>
    </g>
</svg>
