<?xml version="1.0" encoding="UTF-8" standalone="no"?>
<!DOCTYPE svg PUBLIC "-//W3C//DTD SVG 1.1//EN" "http://www.w3.org/Graphics/SVG/1.1/DTD/svg11.dtd">
<svg width="194px" height="194px" version="1.1" xmlns="http://www.w3.org/2000/svg"
          xmlns:xlink="http://www.w3.org/1999/xlink" xml:space="preserve" xmlns:serif="http://www.serif.com/"
          style="fill-rule:evenodd;clip-rule:evenodd;stroke-linejoin:round;stroke-miterlimit:2;">
          <g transform="matrix(1,0,0,1,-13512.3,-16403)">
            <a href="#" >
              <g id="go-top-icon">
                <g id="shape">
                  <g transform="matrix(0.445272,0,0,0.445272,-3753.39,15069.5)">
                    <path
                      d="M38863.2,3341.37C38813.5,3319.45 38778.8,3269.7 38778.8,3211.9C38778.8,3154.11 38813.5,3104.36 38863.2,3082.43C38885.2,3032.7 38934.9,2997.96 38992.7,2997.96C39050.5,2997.96 39100.2,3032.71 39122.2,3082.43C39171.9,3104.36 39206.6,3154.11 39206.6,3211.9C39206.6,3269.7 39171.9,3319.45 39122.2,3341.37C39100.2,3391.1 39050.5,3425.85 38992.7,3425.85C38934.9,3425.85 38885.2,3391.1 38863.2,3341.37Z"
                      style="fill:rgb(255,32,26);fill-opacity:0;" />
                    <path
                      d="M38863.2,3341.37C38813.5,3319.45 38778.8,3269.7 38778.8,3211.9C38778.8,3154.11 38813.5,3104.36 38863.2,3082.43C38885.2,3032.7 38934.9,2997.96 38992.7,2997.96C39050.5,2997.96 39100.2,3032.71 39122.2,3082.43C39171.9,3104.36 39206.6,3154.11 39206.6,3211.9C39206.6,3269.7 39171.9,3319.45 39122.2,3341.37C39100.2,3391.1 39050.5,3425.85 38992.7,3425.85C38934.9,3425.85 38885.2,3391.1 38863.2,3341.37ZM38867.3,3339.56C38888.6,3387.71 38936.7,3421.35 38992.7,3421.35C39048.7,3421.35 39096.8,3387.71 39118.1,3339.56C39118.5,3338.54 39119.3,3337.72 39120.4,3337.26C39168.5,3316.03 39202.2,3267.87 39202.2,3211.9C39202.2,3155.94 39168.5,3107.77 39120.4,3086.54C39119.3,3086.09 39118.5,3085.27 39118.1,3084.24C39096.8,3036.1 39048.7,3002.45 38992.7,3002.45C38936.7,3002.45 38888.6,3036.1 38867.3,3084.24C38866.9,3085.27 38866.1,3086.09 38865,3086.54C38816.9,3107.77 38783.3,3155.94 38783.3,3211.9C38783.3,3267.87 38816.9,3316.03 38865,3337.26C38866.1,3337.72 38866.9,3338.54 38867.3,3339.56Z" />
                  </g>
                  <g transform="matrix(0.445272,0,0,0.445272,-3753.39,15069.5)">
                    <path
                      d="M38876.5,3328.16C38829.5,3310.45 38796,3265.05 38796,3211.9C38796,3158.75 38829.5,3113.36 38876.5,3095.65C38894.2,3048.66 38939.6,3015.2 38992.7,3015.2C39045.9,3015.2 39091.2,3048.66 39109,3095.65C39155.9,3113.36 39189.4,3158.75 39189.4,3211.9C39189.4,3265.05 39155.9,3310.45 39109,3328.16C39091.2,3375.14 39045.9,3408.6 38992.7,3408.6C38939.6,3408.6 38894.2,3375.14 38876.5,3328.16ZM38878.6,3327.36C38895.9,3373.5 38940.5,3406.36 38992.7,3406.36C39044.9,3406.36 39089.5,3373.5 39106.9,3327.36C39107.1,3326.76 39107.6,3326.28 39108.2,3326.05C39154.3,3308.66 39187.2,3264.09 39187.2,3211.9C39187.2,3159.72 39154.3,3115.14 39108.2,3097.75C39107.6,3097.52 39107.1,3097.05 39106.9,3096.44C39089.5,3050.3 39044.9,3017.45 38992.7,3017.45C38940.5,3017.45 38895.9,3050.3 38878.6,3096.44C38878.3,3097.05 38877.8,3097.52 38877.2,3097.75C38831.1,3115.14 38798.3,3159.72 38798.3,3211.9C38798.3,3264.09 38831.1,3308.66 38877.2,3326.05C38877.8,3326.28 38878.3,3326.76 38878.6,3327.36Z"
                      style="fill-opacity:0.3;" />
                  </g>
                </g>
                <g id="arrow">
                  <g transform="matrix(0.579647,0,0,7.29237,891.538,-76790.2)">
                    <path
                      d="M21939.9,12790.6C21939.9,12790.6 21943.1,12793.3 21943.1,12795.1C21943.1,12796.5 21939.9,12797.7 21939.9,12797.7C21939.9,12797.7 21936.8,12796.5 21936.8,12795.1C21936.8,12793.3 21939.9,12790.6 21939.9,12790.6Z" />
                  </g>
                  <g transform="matrix(-1.97868,6.66935e-16,-4.71112e-16,-1.31535,74014,27570.9)">
                    <path
                      d="M30541.9,8419.13C30538.7,8420.51 30535.9,8422.49 30533.5,8424.93C30531.1,8427.37 30529.2,8430.26 30527.9,8433.47C30525.3,8427.05 30520.2,8421.89 30513.9,8419.13C30520.2,8422.99 30525.3,8430.19 30527.9,8439.15C30529.2,8434.67 30531.1,8430.63 30533.5,8427.23C30535.9,8423.83 30538.7,8421.06 30541.9,8419.13Z" />
                  </g>
                </g>
              </g>
            </a>
          </g>
        </svg>