<?xml version="1.0" encoding="UTF-8" standalone="no"?>
<!DOCTYPE svg PUBLIC "-//W3C//DTD SVG 1.1//EN" "http://www.w3.org/Graphics/SVG/1.1/DTD/svg11.dtd">
<svg width="181px" height="80px" version="1.1" xmlns="http://www.w3.org/2000/svg" xmlns:xlink="http://www.w3.org/1999/xlink" xml:space="preserve" xmlns:serif="http://www.serif.com/" style="fill-rule:evenodd;clip-rule:evenodd;stroke-linejoin:round;stroke-miterlimit:2;">
    <g transform="matrix(1,0,0,1,-13081.8,-17367)">
        <g transform="matrix(1.8858,0,0,1.8858,-46862.2,13959.9)">
            <path d="M31831.6,1817.56C31831.4,1817.81 31831.2,1818.06 31831,1818.31C31829.8,1819.92 31827.8,1822.91 31825.1,1827.28C31822.6,1831.18 31819.8,1834.87 31816.8,1838.33C31815.3,1840 31813.7,1841.52 31811.9,1842.89C31810.4,1844.04 31808.8,1845 31807.1,1845.77C31805.3,1846.59 31803.4,1847.1 31801.5,1847.32C31800.2,1847.46 31799.1,1847.52 31798.1,1847.5C31796.9,1847.48 31795.8,1847.31 31794.7,1846.99C31794.1,1846.83 31793.5,1846.58 31793,1846.26C31792.5,1845.93 31792.1,1845.52 31791.8,1845.05C31791,1843.83 31791,1842.46 31791.7,1840.96C31792.3,1839.82 31793.2,1839.31 31794.4,1839.43C31795,1839.49 31795.3,1839.79 31795.6,1840.34C31795.9,1841.17 31795.8,1841.83 31795.3,1842.3C31794.9,1842.66 31794.4,1842.84 31793.8,1842.84C31793.1,1842.84 31792.7,1842.49 31792.4,1841.77C31792.3,1841.5 31792.2,1841.5 31792.1,1841.77C31791.8,1842.53 31791.7,1843.26 31791.9,1843.97C31792,1844.48 31792.2,1844.92 31792.7,1845.31C31793.7,1846.16 31794.9,1846.67 31796.4,1846.85C31798.6,1847.09 31800.5,1846.96 31802.3,1846.44C31804.8,1845.68 31807.2,1844.36 31809.3,1842.46C31810.9,1841.1 31812.2,1839.8 31813.2,1838.57C31814.9,1836.52 31816.6,1834.41 31818.1,1832.24C31820.2,1829.35 31822.2,1826.48 31824.3,1823.61C31824.5,1823.31 31824.5,1823.28 31824.2,1823.54C31824,1823.75 31823.8,1823.95 31823.5,1824.15C31823.3,1824.39 31823,1824.59 31822.9,1824.75C31821.6,1825.95 31820.3,1827.13 31819,1828.3C31819,1828.31 31818.5,1828.84 31817.3,1829.88C31816.3,1830.81 31815.2,1831.73 31814,1832.64C31813.3,1833.2 31812.5,1833.63 31811.7,1833.93C31810.7,1834.26 31809.9,1834.34 31809.1,1834.17C31807.9,1833.92 31807.1,1833.22 31806.8,1832.08C31806.6,1831.28 31806.6,1830.37 31806.9,1829.34C31807.2,1828.44 31807.5,1827.58 31808.1,1826.77C31809.5,1824.49 31811.2,1822.34 31813,1820.32C31814.1,1819.06 31815.1,1817.72 31816,1816.3C31816.7,1815.22 31817.1,1814.27 31817.2,1813.47C31817.3,1812.32 31817.1,1811.28 31816.5,1810.35C31815.9,1809.38 31814.9,1808.62 31813.6,1808.05C31812.4,1807.55 31811.2,1807.3 31809.8,1807.3C31807.3,1807.3 31804.9,1807.72 31802.6,1808.56C31797.8,1810.27 31793.8,1812.99 31790.6,1816.71C31790.1,1817.28 31789.6,1817.93 31789.2,1818.65C31788.6,1819.53 31788.2,1820.24 31788,1820.78C31787.5,1821.91 31787.4,1823.07 31787.6,1824.24C31787.7,1825.05 31788.1,1825.75 31788.6,1826.32C31789.1,1826.83 31789.8,1827.19 31790.6,1827.42C31792,1827.82 31793.4,1827.72 31794.8,1827.12C31796.5,1826.41 31798.1,1825.45 31799.5,1824.24C31803.4,1820.97 31806.4,1817.02 31808.5,1812.41C31808.5,1812.35 31808.6,1812.3 31808.6,1812.29C31808.7,1812.25 31808.7,1812.32 31808.7,1812.49C31808.7,1814.02 31808.4,1815.52 31807.8,1816.97C31807.3,1818.2 31806.6,1819.51 31805.6,1820.91C31804.1,1823.09 31802.2,1824.93 31799.9,1826.42C31798.3,1827.51 31796.5,1828.19 31794.6,1828.46C31793.4,1828.63 31792.2,1828.57 31791,1828.26C31788.8,1827.67 31787.5,1826.28 31787.2,1824.09C31787,1822.66 31787.3,1821.17 31788.1,1819.63C31788.9,1818.06 31790,1816.6 31791.3,1815.25C31792.3,1814.29 31793.5,1813.28 31795,1812.2C31798.9,1809.29 31803.2,1807.51 31808.1,1806.87C31809.6,1806.67 31811.1,1806.76 31812.6,1807.13C31814.1,1807.54 31815.4,1808.21 31816.4,1809.15C31818.4,1810.96 31819,1813.42 31818.3,1816.54C31818.1,1817.34 31817.7,1818.3 31817.1,1819.4C31816.2,1820.96 31815.2,1822.42 31814.1,1823.79C31812.9,1825.17 31811.8,1826.55 31810.6,1827.94C31810,1828.67 31809.5,1829.45 31809.1,1830.27C31808.7,1830.84 31808.5,1831.44 31808.5,1832.08C31808.4,1832.42 31808.5,1832.73 31808.6,1833C31808.7,1833.23 31809,1833.42 31809.3,1833.56C31810,1833.91 31810.7,1833.92 31811.5,1833.6C31812.8,1833.01 31814.2,1832.14 31815.5,1830.99C31818.1,1828.75 31820.6,1826.43 31823.1,1824.02C31826.3,1820.8 31829.7,1816.32 31834.2,1812.71C31838.5,1809.4 31843.6,1807.82 31850.4,1807.7C31853,1807.65 31856.2,1807.78 31860,1808C31865.7,1808.34 31869.7,1808.54 31872.2,1808.59C31874.8,1808.64 31877.5,1808.45 31880.5,1808.02C31880.8,1807.97 31881.1,1807.9 31881.5,1807.81C31881.8,1807.72 31882.1,1807.64 31882.4,1807.56C31882.5,1807.55 31882.6,1807.58 31882.6,1807.64C31882.6,1807.75 31882.6,1807.84 31882.4,1807.93C31880.6,1809.05 31878.6,1809.76 31876.5,1810.06C31873.2,1810.53 31869.9,1810.52 31866.5,1810.02C31865.2,1809.83 31863.9,1809.62 31862.6,1809.41C31859.5,1808.91 31856.7,1808.56 31854.2,1808.33C31853.2,1808.24 31852.1,1808.2 31850.9,1808.21C31849.6,1808.22 31848.5,1808.32 31847.5,1808.53C31843.2,1809.4 31839.4,1811.39 31836.1,1814.49C31835,1815.55 31834,1816.73 31833.2,1818.05C31832.7,1818.82 31832.5,1819.63 31832.3,1820.46C31832.3,1821.02 31832.4,1821.55 31832.7,1822.04C31833.2,1822.88 31834,1823.43 31834.9,1823.69C31836.6,1824.16 31838.3,1824.08 31840,1823.47C31841.8,1822.79 31843.4,1821.75 31844.7,1820.35C31846.7,1818.33 31848.2,1816.04 31849.3,1813.47C31849.3,1813.47 31849.3,1813.47 31849.3,1813.47C31849.3,1813.41 31849.4,1813.38 31849.5,1813.4C31849.5,1813.4 31849.5,1813.4 31849.5,1813.4C31849.6,1813.48 31849.6,1813.6 31849.5,1813.78C31849.5,1813.92 31849.4,1814 31849.4,1814.01C31847.8,1818.07 31845.1,1821.17 31841.3,1823.3C31839.3,1824.41 31837.2,1824.73 31835.1,1824.28C31834,1824.04 31833.1,1823.51 31832.4,1822.67C31831.9,1821.94 31831.5,1821.01 31831.4,1819.88C31831.3,1819.08 31831.4,1818.3 31831.6,1817.56ZM31817.8,1842.72C31817.5,1843.42 31817.5,1844.1 31817.7,1844.77C31817.8,1845.3 31818.2,1845.81 31818.8,1846.33C31820.1,1847.52 31821.8,1848.14 31823.8,1848.18C31825.8,1848.23 31827.6,1847.94 31829.3,1847.32C31830.6,1846.87 31831.9,1846.08 31833.4,1844.95C31836,1842.91 31838.4,1840.46 31840.5,1837.6C31843.5,1833.65 31846.4,1829.7 31849.3,1825.74C31850.6,1824.05 31851.5,1822.8 31852.2,1822C31854,1819.89 31856,1817.89 31858.2,1815.99C31859.8,1814.6 31861.5,1813.49 31863.3,1812.67C31863.4,1812.64 31863.5,1812.66 31863.5,1812.72C31863.6,1812.83 31863.5,1812.93 31863.4,1813.01C31863.3,1813.07 31863.2,1813.11 31863.2,1813.12C31859.8,1815.36 31857.1,1818.23 31855.1,1821.73C31854.6,1822.51 31854.4,1822.91 31854.4,1822.91C31852.9,1825.34 31851.1,1828.25 31848.9,1831.64C31847.6,1833.58 31846.3,1835.37 31845,1836.99C31843.8,1838.42 31842.7,1839.6 31841.8,1840.52C31839.7,1842.64 31837.2,1844.49 31834.3,1846.07C31830.9,1847.95 31827.3,1848.82 31823.7,1848.65C31822.8,1848.61 31822,1848.49 31821.3,1848.27C31820.6,1848.03 31819.8,1847.68 31819.1,1847.23C31818.6,1846.9 31818.2,1846.5 31817.9,1846.03C31817.5,1845.56 31817.3,1845.04 31817.2,1844.47C31817,1843.54 31817.1,1842.65 31817.5,1841.8C31817.8,1841.19 31818.2,1840.76 31818.7,1840.51C31819.1,1840.32 31819.5,1840.23 31820,1840.25C31820.4,1840.27 31820.8,1840.4 31821.2,1840.63C31821.8,1841.08 31822,1841.75 31821.7,1842.65C31821.6,1842.98 31821.5,1843.24 31821.2,1843.44C31820.9,1843.61 31820.6,1843.72 31820.3,1843.76C31819.4,1843.88 31818.6,1843.52 31818,1842.7C31818,1842.69 31818,1842.68 31818,1842.68C31818,1842.63 31817.9,1842.64 31817.9,1842.7C31817.8,1842.7 31817.8,1842.71 31817.8,1842.72Z" style="stroke:white;stroke-width:0.11px;"/>
        </g>
    </g>
</svg>
