<svg
  id="uuid-d2222e04-13fd-4342-a6f8-08b3f21fca44"
  xmlns="http://www.w3.org/2000/svg"
  viewBox="0 0 339 339"
>
  <g id="uuid-2cdbfca5-c57f-42da-9c41-bbef75f126ee">
    <path
      id="logo"
      d="m334,169.5c0-44.48-27.79-82.46-66.95-97.55C251.96,32.79,213.98,5,169.5,5s-81.7,27.24-97.09,65.78C33.01,85.74,5,123.85,5,168.5s27.03,81.41,65.33,96.9c14.64,40.03,53.07,68.6,98.17,68.6s82.18-27.58,97.38-66.51c39.78-14.77,68.12-53.07,68.12-97.99Z"
      style="
        fill: none;
        stroke: #b59468;
        stroke-miterlimit: 10;
        stroke-width: 10px;
      "
    />
    <path
      id="circle"
      d="m333,170c0,45.29-18.36,86.29-48.03,115.97-29.68,29.68-70.68,48.03-115.97,48.03s-86.29-18.36-115.97-48.03c-29.68-29.68-48.03-70.68-48.03-115.97S23.36,83.71,53.03,54.03C82.71,24.36,123.71,6,169,6s86.29,18.36,115.97,48.03c29.68,29.68,48.03,70.68,48.03,115.97Z"
      style="
        fill: none;
        stroke: #b59468;
        stroke-miterlimit: 10;
        stroke-width: 10px;
      "
    />
  </g>
</svg>
