<?xml version="1.0" encoding="UTF-8" standalone="no"?>
<!DOCTYPE svg PUBLIC "-//W3C//DTD SVG 1.1//EN" "http://www.w3.org/Graphics/SVG/1.1/DTD/svg11.dtd">
<svg width="248px" height="120px" version="1.1" xmlns="http://www.w3.org/2000/svg" xmlns:xlink="http://www.w3.org/1999/xlink" xml:space="preserve" xmlns:serif="http://www.serif.com/" style="fill-rule:evenodd;clip-rule:evenodd;stroke-linejoin:round;stroke-miterlimit:2;">
    <g transform="matrix(1,0,0,1,-12297.5,-6476.19)">
        <g id="ornament-sato" transform="matrix(0.997126,0,0,0.997126,11379.1,4710.35)">
            <path d="M1089.07,1780.53C1089.07,1774.38 1084.91,1770.94 1077.67,1770.94C1051.97,1770.94 1022.29,1810.93 1012.7,1824.68L1000.94,1826.67C994.062,1827.76 985.195,1829.03 975.422,1829.93L969.45,1830.48C969.269,1830.48 968.726,1830.48 968.726,1830.84C968.726,1831.2 969.269,1831.38 969.631,1831.38L971.622,1831.74C972.346,1831.74 989.176,1829.93 1001.3,1827.94L1011.44,1826.31L1002.21,1839.16C992.796,1852.37 983.928,1865.4 975.06,1873.91C966.374,1882.23 958.049,1889.83 941.038,1889.83C929.094,1889.83 922.398,1882.96 922.398,1876.26C922.398,1874.81 922.579,1873 923.484,1871.56C925.112,1873.18 926.198,1875 929.818,1875C932.894,1875 935.247,1872.82 935.247,1869.75C935.247,1865.4 932.351,1864.32 929.637,1864.32C924.75,1864.32 920.95,1869.38 920.95,1875.54C920.95,1884.4 929.456,1891.28 941.219,1891.28C949,1891.28 954.43,1891.28 964.564,1886.58C976.689,1881.15 990.624,1870.47 1004.38,1852.01C1011.07,1842.96 1021.21,1828.12 1024.1,1823.24C1034.24,1820.34 1044.55,1817.27 1057.04,1811.29C1063.74,1808.22 1089.07,1795.19 1089.07,1780.53ZM1085.09,1779.08C1085.09,1785.23 1071.16,1802.24 1051.97,1811.65C1042.2,1816.54 1032.97,1819.8 1025.19,1821.61C1031.34,1811.47 1055.77,1772.38 1076.77,1772.38C1082.19,1772.38 1085.09,1774.92 1085.09,1779.08Z" style="fill:rgb(24,48,67);fill-rule:nonzero;"/>
            <path d="M1082.74,1872.82L1082.38,1872.46C1082.19,1872.46 1082.19,1872.46 1081.65,1872.82L1076.04,1878.07C1071.7,1882.05 1064.1,1889.11 1059.76,1889.11C1058.31,1889.11 1057.22,1888.03 1057.22,1887.12C1057.22,1885.13 1059.39,1882.05 1061.75,1878.61L1078.94,1853.28L1071.88,1853.28L1065,1861.6L1065,1858.16C1065,1855.63 1061.93,1852.37 1057.76,1852.37C1051.07,1852.37 1038.76,1859.61 1032.07,1866.13L1021.75,1876.26L1021.57,1876.8L1021.93,1876.99L1022.29,1876.8L1024.83,1874.63C1023.92,1877.17 1023.02,1880.79 1023.02,1882.96C1023.02,1888.21 1026.09,1891.28 1031.88,1891.28C1035.14,1891.28 1040.93,1888.57 1046,1884.4L1051.97,1879.34C1051.61,1880.97 1051.07,1882.96 1051.07,1884.4C1051.07,1887.66 1053.24,1891.28 1057.58,1891.28C1063.19,1891.28 1071.7,1884.04 1076.95,1878.8L1082.38,1873.37C1082.56,1873.18 1082.74,1873 1082.74,1872.82ZM1063.92,1858.71C1063.92,1865.77 1042.2,1889.83 1033.33,1889.83C1030.98,1889.83 1029.17,1888.57 1029.17,1886.22C1029.17,1880.06 1048.54,1853.82 1058.13,1853.82C1060.84,1853.82 1063.92,1855.81 1063.92,1858.71Z" style="fill:rgb(24,48,67);fill-rule:nonzero;"/>
            <path d="M1150.06,1833.19C1150.06,1832.83 1149.88,1832.47 1149.34,1832.47L1134.32,1832.47L1147.71,1815.82L1140.11,1815.82L1125.81,1832.47L1119.29,1832.47C1118.75,1832.47 1118.57,1833.01 1118.57,1833.37C1118.57,1833.73 1118.75,1833.91 1119.29,1833.91L1124.72,1833.91L1117.85,1842.06C1114.77,1845.68 1111.69,1848.93 1108.07,1851.83L1082.56,1872.64L1079.66,1875.36C1079.48,1875.54 1079.3,1875.72 1079.3,1876.26L1079.48,1876.44C1079.66,1876.44 1079.84,1876.44 1080.2,1876.08L1083.46,1873.18L1106.08,1854.91L1098.66,1864.32C1093.05,1871.38 1086.72,1879.16 1086.72,1884.04C1086.72,1888.21 1089.98,1891.28 1095.04,1891.28C1101.02,1891.28 1110.25,1885.31 1118.03,1877.89L1122.01,1874.09L1122.37,1873.55L1122.19,1873.18L1121.29,1873.37L1117.3,1877.17C1110.79,1883.32 1101.92,1889.47 1096.49,1889.47C1094.14,1889.47 1092.87,1887.84 1092.87,1886.4C1092.87,1884.4 1095.77,1880.79 1102.28,1872.46L1133.05,1833.91L1149.34,1833.91C1149.88,1833.91 1150.06,1833.73 1150.06,1833.19Z" style="fill:rgb(24,48,67);fill-rule:nonzero;"/>
            <path d="M1169.24,1873.55L1168.88,1873.18L1168.16,1873.37L1164.17,1877.17C1161.64,1879.52 1158.93,1882.05 1155.31,1882.05C1153.68,1882.05 1151.87,1881.15 1150.6,1880.42C1154.04,1876.8 1164.17,1867.03 1164.17,1859.25C1164.17,1856.54 1162,1852.37 1157.3,1852.37C1144.45,1852.37 1130.52,1865.4 1122.37,1872.82L1117.49,1877.35C1117.3,1877.53 1116.94,1877.89 1116.94,1878.07C1116.94,1878.25 1116.94,1878.43 1117.3,1878.43C1117.49,1878.43 1117.67,1878.43 1118.03,1878.25L1122.91,1873.91C1121.83,1876.08 1121.29,1879.34 1121.29,1881.51C1121.29,1887.66 1125.27,1891.28 1130.52,1891.28C1138.12,1891.28 1143.91,1885.85 1149.7,1881.51C1151.51,1882.41 1153.32,1883.5 1155.13,1883.5C1158.93,1883.5 1162,1880.42 1164.72,1877.89L1169.24,1873.55ZM1162.73,1859.43C1162.73,1869.38 1141.37,1889.83 1132.87,1889.83C1129.25,1889.83 1127.8,1888.39 1127.8,1885.49C1127.8,1879.88 1145.72,1853.82 1156.94,1853.82C1160.01,1853.82 1162.73,1856.17 1162.73,1859.43Z" style="fill:rgb(24,48,67);fill-rule:nonzero;"/>
        </g>
    </g>
</svg>
