<?xml version="1.0" encoding="UTF-8" standalone="no"?>
<!DOCTYPE svg PUBLIC "-//W3C//DTD SVG 1.1//EN" "http://www.w3.org/Graphics/SVG/1.1/DTD/svg11.dtd">
<svg width="279px" height="120px" version="1.1" xmlns="http://www.w3.org/2000/svg" xmlns:xlink="http://www.w3.org/1999/xlink" xml:space="preserve" xmlns:serif="http://www.serif.com/" style="fill-rule:evenodd;clip-rule:evenodd;stroke-linejoin:round;stroke-miterlimit:2;">
    <g transform="matrix(1,0,0,1,-12888.2,-6076.37)">
        <g id="ornament-taki" transform="matrix(0.997126,0,0,0.997126,11946.3,4310.53)">
            <path d="M1136.67,1772.57C1136.67,1772.38 1136.49,1772.2 1136.31,1772.2L1134.13,1772.75C1126.89,1774.56 1116.94,1774.74 1109.16,1774.74C1093.42,1774.74 1061.57,1770.94 1040.75,1770.94C1012.7,1770.94 984.652,1785.78 984.652,1803.69C984.652,1815.82 992.253,1820.16 1002.02,1820.16C1017.77,1820.16 1033.88,1802.79 1038.22,1789.76L1038.76,1788.13C1038.76,1787.95 1038.4,1787.59 1038.22,1787.59C1038.04,1787.59 1038.04,1787.77 1037.86,1787.95L1036.77,1790.66C1035.87,1793.02 1034.24,1795.55 1032.79,1797.72C1024.29,1810.39 1014.33,1818.71 1001.66,1818.71C992.977,1818.71 987.547,1814.19 987.547,1808.76C987.547,1797 1012.7,1772.38 1041.12,1772.38C1062.47,1772.38 1089.07,1780.17 1105.72,1780.17C1116.58,1780.17 1127.62,1778.54 1134.32,1774.38L1136.31,1773.11C1136.49,1773.11 1136.67,1772.75 1136.67,1772.57ZM1082.56,1787.04L1082.38,1786.14C1071.88,1789.94 1056.13,1803.69 1043.11,1820.7C1033.69,1833.01 1012.16,1863.23 1005.64,1869.57C994.605,1880.24 984.652,1889.83 967.098,1889.83C952.439,1889.83 946.105,1881.51 946.105,1877.17C946.105,1875.72 946.286,1874.09 947.191,1872.64C948.639,1874.27 949.905,1876.44 953.525,1876.44C956.601,1876.44 958.954,1874.27 958.954,1871.19C958.954,1867.39 955.696,1865.77 952.982,1865.77C947.372,1865.77 944.657,1870.83 944.657,1876.08C944.657,1884.4 954.43,1891.28 967.279,1891.28C977.775,1891.28 988.814,1889.47 1006.37,1877.71C1019.76,1868.84 1033.15,1851.11 1038.94,1842.24L1049.26,1826.49C1057.22,1814.19 1063.01,1798.81 1082.56,1787.04Z" style="fill:rgb(24,48,67);fill-rule:nonzero;"/>
            <path d="M1112.78,1872.82L1112.42,1872.46C1112.24,1872.46 1112.24,1872.46 1111.69,1872.82L1106.08,1878.07C1101.74,1882.05 1094.14,1889.11 1089.8,1889.11C1088.35,1889.11 1087.26,1888.03 1087.26,1887.12C1087.26,1885.13 1089.43,1882.05 1091.79,1878.61L1108.98,1853.28L1101.92,1853.28L1095.04,1861.6L1095.04,1858.16C1095.04,1855.63 1091.97,1852.37 1087.81,1852.37C1081.11,1852.37 1068.8,1859.61 1062.11,1866.13L1051.79,1876.26L1051.61,1876.8L1051.97,1876.99L1052.34,1876.8L1054.87,1874.63C1053.96,1877.17 1053.06,1880.79 1053.06,1882.96C1053.06,1888.21 1056.13,1891.28 1061.93,1891.28C1065.18,1891.28 1070.97,1888.57 1076.04,1884.4L1082.01,1879.34C1081.65,1880.97 1081.11,1882.96 1081.11,1884.4C1081.11,1887.66 1083.28,1891.28 1087.62,1891.28C1093.24,1891.28 1101.74,1884.04 1106.99,1878.8L1112.42,1873.37C1112.6,1873.18 1112.78,1873 1112.78,1872.82ZM1093.96,1858.71C1093.96,1865.77 1072.24,1889.83 1063.37,1889.83C1061.02,1889.83 1059.21,1888.57 1059.21,1886.22C1059.21,1880.06 1078.58,1853.82 1088.17,1853.82C1090.88,1853.82 1093.96,1855.81 1093.96,1858.71Z" style="fill:rgb(24,48,67);fill-rule:nonzero;"/>
            <path d="M1185.89,1797.18L1179.56,1797.18L1148.07,1836.63C1143.36,1842.42 1138.12,1846.94 1133.41,1851.65L1112.06,1873L1109.52,1875.72C1109.34,1875.9 1109.16,1876.08 1109.16,1876.44L1109.34,1876.62C1109.52,1876.62 1109.7,1876.62 1110.07,1876.26L1140.83,1846.4L1105.9,1891.28L1115.13,1891.28L1127.44,1875.18C1131.24,1870.11 1138.48,1864.32 1145.54,1864.32C1147.35,1864.32 1149.7,1865.4 1149.7,1867.21C1149.7,1868.66 1148.79,1869.93 1147.89,1871.19L1143.73,1876.99C1142.28,1879.16 1141.55,1881.15 1141.55,1883.86C1141.55,1888.39 1146.62,1891.28 1150.6,1891.28C1155.49,1891.28 1164.72,1886.94 1174.67,1877.89L1178.83,1874.09L1179.2,1873.55L1179.02,1873.18L1178.11,1873.37L1174.13,1877.17C1163.99,1886.76 1154.58,1889.47 1151.14,1889.47C1150.06,1889.47 1147.35,1888.75 1147.35,1886.76C1147.35,1885.31 1147.89,1883.86 1149.7,1881.69L1153.32,1876.99C1154.58,1875.18 1155.67,1872.64 1155.67,1870.65C1155.67,1866.31 1152.23,1862.51 1147.53,1862.51C1145.17,1862.51 1143.73,1862.69 1139.74,1864.14C1144.99,1860.15 1154.58,1853.64 1162.37,1853.64C1163.45,1853.64 1164.54,1854 1165.44,1854.55C1164.9,1855.09 1163.63,1856.72 1163.63,1858.16C1163.63,1860.52 1165.62,1862.51 1167.98,1862.51C1169.97,1862.51 1171.96,1861.24 1171.96,1859.07C1171.96,1854 1168.16,1852.37 1164.17,1852.37C1152.59,1852.37 1143.18,1859.79 1134.32,1866.13L1185.89,1797.18Z" style="fill:rgb(24,48,67);fill-rule:nonzero;"/>
            <path d="M1224.26,1833.01C1224.26,1830.66 1222.45,1828.85 1220.1,1828.85C1217.92,1828.85 1215.93,1830.66 1215.93,1833.01C1215.93,1835.36 1217.92,1837.17 1220.1,1837.17C1222.45,1837.17 1224.26,1835.36 1224.26,1833.01ZM1212.86,1873.55L1212.68,1873.18L1211.77,1873.37L1207.79,1877.17C1201.45,1883.14 1191.32,1889.11 1187.88,1889.11C1185.89,1889.11 1184.81,1887.84 1184.81,1885.85C1184.81,1884.04 1187.16,1881.15 1190.96,1876.08L1207.97,1854.18L1199.1,1854.18C1195.12,1858.16 1191.32,1861.97 1187.16,1865.77L1175.21,1876.62C1175.03,1876.8 1174.85,1876.99 1174.85,1877.35L1175.03,1877.53C1175.21,1877.53 1175.4,1877.53 1175.76,1877.17L1182.63,1871.38C1180.46,1875.9 1178.29,1880.42 1178.29,1884.59C1178.29,1889.29 1180.83,1891.28 1185.53,1891.28C1192.05,1891.28 1203.08,1882.96 1208.51,1877.89L1212.5,1874.09L1212.86,1873.55Z" style="fill:rgb(24,48,67);fill-rule:nonzero;"/>
        </g>
    </g>
</svg>
