<?xml version="1.0" encoding="UTF-8" standalone="no"?>
<!DOCTYPE svg PUBLIC "-//W3C//DTD SVG 1.1//EN" "http://www.w3.org/Graphics/SVG/1.1/DTD/svg11.dtd">
<svg width="360px" height="360px" version="1.1" xmlns="http://www.w3.org/2000/svg" xmlns:xlink="http://www.w3.org/1999/xlink" xml:space="preserve" xmlns:serif="http://www.serif.com/" style="fill-rule:evenodd;clip-rule:evenodd;stroke-linejoin:round;stroke-miterlimit:2;">
    <g transform="matrix(1,0,0,1,-0.5,-8381.8)">
        <g transform="matrix(0.781603,0,0,0.781603,-23305.8,3458.2)">
            <path d="M30032.1,6314.71C30041.6,6306.03 30056.2,6306.03 30065.7,6314.71C30073.4,6321.81 30082.4,6329.99 30088.9,6336.01C30094.9,6341.48 30103.2,6343.69 30111.1,6341.94C30119.8,6340.01 30131.6,6337.4 30141.9,6335.13C30154.4,6332.35 30167,6339.62 30170.9,6351.89C30174.1,6361.92 30177.7,6373.47 30180.4,6381.98C30182.8,6389.69 30188.9,6395.73 30196.6,6398.17C30205.1,6400.86 30216.7,6404.5 30226.7,6407.67C30238.9,6411.55 30246.2,6424.15 30243.4,6436.7C30241.2,6446.97 30238.6,6458.8 30236.6,6467.51C30234.9,6475.41 30237.1,6483.66 30242.6,6489.63C30248.6,6496.21 30256.8,6505.15 30263.9,6512.9C30272.5,6522.39 30272.5,6536.94 30263.9,6546.43C30256.8,6554.18 30248.6,6563.12 30242.6,6569.7C30237.1,6575.67 30234.9,6583.92 30236.6,6591.82C30238.6,6600.53 30241.2,6612.36 30243.4,6622.63C30246.2,6635.19 30238.9,6647.78 30226.7,6651.66C30216.7,6654.83 30205.1,6658.47 30196.6,6661.16C30188.9,6663.6 30182.8,6669.64 30180.4,6677.36C30177.7,6685.86 30174.1,6697.41 30170.9,6707.44C30167,6719.7 30154.4,6726.98 30141.9,6724.2C30131.6,6721.93 30119.8,6719.32 30111.1,6717.39C30103.2,6715.64 30094.9,6717.86 30088.9,6723.32C30082.4,6729.34 30073.4,6737.52 30065.7,6744.62C30056.2,6753.3 30041.6,6753.3 30032.1,6744.62C30024.4,6737.52 30015.5,6729.34 30008.9,6723.32C30002.9,6717.86 29994.7,6715.64 29986.8,6717.39C29978,6719.32 29966.2,6721.93 29955.9,6724.2C29943.4,6726.98 29930.8,6719.7 29926.9,6707.44C29923.7,6697.41 29920.1,6685.86 29917.4,6677.36C29915,6669.64 29908.9,6663.6 29901.2,6661.16C29892.7,6658.47 29881.2,6654.83 29871.1,6651.66C29858.9,6647.78 29851.6,6635.19 29854.4,6622.63C29856.6,6612.36 29859.3,6600.53 29861.2,6591.82C29862.9,6583.92 29860.7,6575.67 29855.3,6569.7C29849.2,6563.12 29841.1,6554.18 29834,6546.43C29825.3,6536.94 29825.3,6522.39 29834,6512.9C29841.1,6505.15 29849.2,6496.21 29855.3,6489.63C29860.7,6483.66 29862.9,6475.41 29861.2,6467.51C29859.3,6458.8 29856.6,6446.97 29854.4,6436.7C29851.6,6424.15 29858.9,6411.55 29871.1,6407.67C29881.2,6404.5 29892.7,6400.86 29901.2,6398.17C29908.9,6395.73 29915,6389.69 29917.4,6381.98C29920.1,6373.47 29923.7,6361.92 29926.9,6351.89C29930.8,6339.62 29943.4,6332.35 29955.9,6335.13C29966.2,6337.4 29978,6340.01 29986.8,6341.94C29994.7,6343.69 30002.9,6341.48 30008.9,6336.01C30015.5,6329.99 30024.4,6321.81 30032.1,6314.71Z" style="fill:rgb(251,250,249);"/>
        </g>
    </g>
</svg>
