<?xml version="1.0" encoding="UTF-8" standalone="no"?>
<!DOCTYPE svg PUBLIC "-//W3C//DTD SVG 1.1//EN" "http://www.w3.org/Graphics/SVG/1.1/DTD/svg11.dtd">
<svg width="437px" height="215px" version="1.1" xmlns="http://www.w3.org/2000/svg" xmlns:xlink="http://www.w3.org/1999/xlink" xml:space="preserve" xmlns:serif="http://www.serif.com/" style="fill-rule:evenodd;clip-rule:evenodd;stroke-linejoin:round;stroke-miterlimit:2;">
    <g transform="matrix(1,0,0,1,-9941.27,-5040.84)">
        <g transform="matrix(3.18811,-0.56215,2.32362e-16,3.28723,7432.62,6239.5)">
            <path d="M798.361,-195.985L798.293,-196.053C798.259,-196.053 798.259,-196.053 798.157,-195.985L797.104,-194.999C796.288,-194.252 794.861,-192.927 794.045,-192.927C793.774,-192.927 793.57,-193.13 793.57,-193.3C793.57,-193.674 793.977,-194.252 794.419,-194.897L797.647,-199.654L796.322,-199.654L795.031,-198.091L795.031,-198.737C795.031,-199.213 794.453,-199.824 793.672,-199.824C792.414,-199.824 790.104,-198.465 788.847,-197.242L786.91,-195.339L786.876,-195.237L786.944,-195.203L787.012,-195.237L787.487,-195.645C787.318,-195.169 787.148,-194.49 787.148,-194.082C787.148,-193.096 787.725,-192.519 788.813,-192.519C789.424,-192.519 790.512,-193.029 791.463,-193.81L792.584,-194.761C792.516,-194.456 792.414,-194.082 792.414,-193.81C792.414,-193.198 792.822,-192.519 793.638,-192.519C794.691,-192.519 796.288,-193.878 797.273,-194.863L798.293,-195.883C798.327,-195.917 798.361,-195.951 798.361,-195.985ZM794.827,-198.635C794.827,-197.31 790.749,-192.791 789.084,-192.791C788.643,-192.791 788.303,-193.029 788.303,-193.47C788.303,-194.626 791.939,-199.553 793.74,-199.553C794.249,-199.553 794.827,-199.179 794.827,-198.635Z" style="fill:rgb(239,198,124);fill-rule:nonzero;"/>
            <path d="M808.996,-195.849L808.962,-195.917L808.792,-195.883L808.045,-195.169C807.229,-194.422 806.855,-194.116 806.244,-194.116C805.768,-194.116 805.53,-194.422 805.53,-194.727C805.53,-195.611 806.414,-197.106 807.399,-198.397L808.283,-199.553L807.161,-199.553C806.72,-199.145 806.244,-198.703 805.7,-198.193C805.055,-197.582 804.341,-196.766 803.593,-195.985C804.001,-196.766 804.409,-197.548 804.409,-198.397C804.409,-199.349 803.661,-199.824 802.982,-199.824C801.725,-199.824 800.603,-198.329 799.448,-197.174L797.749,-195.475C797.715,-195.441 797.715,-195.407 797.715,-195.373C797.715,-195.373 797.749,-195.339 797.783,-195.339C797.851,-195.339 797.817,-195.339 797.885,-195.373L799.006,-196.392C800.637,-197.888 801.691,-199.553 802.914,-199.553C803.186,-199.553 803.424,-199.281 803.424,-199.009C803.424,-198.465 802.2,-196.902 801.725,-196.189L799.21,-192.519L800.943,-192.519L803.118,-195.033C803.933,-195.985 804.783,-196.868 805.632,-197.786C805.36,-197.174 804.851,-196.019 804.851,-195.271C804.851,-194.558 805.191,-193.844 806.108,-193.844C806.821,-193.844 807.229,-194.15 808.181,-195.033L808.928,-195.747L808.996,-195.849Z" style="fill:rgb(239,198,124);fill-rule:nonzero;"/>
            <path d="M816.506,-195.849L816.472,-195.917L816.302,-195.883L815.554,-195.169C814.467,-194.116 812.632,-192.791 811.409,-192.791C810.593,-192.791 810.083,-193.232 810.083,-193.81C810.083,-194.252 810.525,-195.101 810.831,-195.509L811.68,-195.747C813.549,-196.257 815.826,-197.514 815.826,-199.009C815.826,-199.586 815.384,-199.824 814.807,-199.824C813.651,-199.824 811.273,-198.363 808.656,-195.747L808.249,-195.339C808.215,-195.305 808.215,-195.271 808.215,-195.237C808.215,-195.203 808.249,-195.169 808.283,-195.169C808.317,-195.169 808.351,-195.169 808.385,-195.203L808.962,-195.747C808.758,-195.339 808.656,-194.897 808.656,-194.49C808.656,-193.368 809.71,-192.519 811.069,-192.519C813.108,-192.519 814.909,-194.286 815.69,-195.033L816.438,-195.747L816.506,-195.849ZM815.622,-199.009C815.622,-197.65 812.836,-196.087 811.035,-195.815L811.918,-197.072C812.904,-198.465 814.161,-199.62 814.909,-199.62C815.248,-199.62 815.622,-199.383 815.622,-199.009Z" style="fill:rgb(239,198,124);fill-rule:nonzero;"/>
            <path d="M836.655,-195.849L836.621,-195.917L836.451,-195.883L835.704,-195.169C833.903,-193.47 832,-192.859 830.777,-192.587L835.874,-199.62L834.548,-199.62L833.223,-197.955C833.189,-198.635 833.053,-199.824 831.32,-199.824C829.757,-199.824 827.922,-199.043 825.748,-196.97L824.083,-195.373C824.049,-195.339 824.049,-195.305 824.049,-195.271C824.049,-195.237 824.083,-195.203 824.083,-195.203C824.117,-195.203 824.151,-195.203 824.185,-195.237L825.068,-195.985C824.864,-195.441 824.593,-194.829 824.593,-194.286C824.593,-193.164 825.374,-192.519 826.529,-192.519C827.651,-192.519 828.5,-192.927 829.723,-193.504L828.534,-191.941C826.088,-190.786 824.015,-189.835 821.365,-187.728C819.326,-186.097 817.729,-184.194 817.729,-182.903C817.729,-182.019 818.408,-181.646 819.122,-181.646C820.719,-181.646 822.826,-182.971 825.51,-185.825C827.175,-187.626 830.165,-191.737 830.505,-192.213C832.408,-192.723 834.005,-193.3 835.84,-195.033L836.587,-195.747L836.655,-195.849ZM832.951,-198.261C832.951,-196.291 829.214,-192.757 826.869,-192.757C826.291,-192.757 825.884,-193.063 825.884,-193.538C825.884,-194.66 829.553,-199.553 831.524,-199.553C832.238,-199.553 832.951,-199.111 832.951,-198.261ZM828.296,-191.601C825,-186.946 821.602,-181.917 819.054,-181.917C818.408,-181.917 818.001,-182.325 818.001,-182.903C818.001,-184.058 819.326,-185.723 820.957,-187.116C823.267,-189.087 826.563,-190.854 828.296,-191.601Z" style="fill:rgb(239,198,124);fill-rule:nonzero;"/>
            <path d="M844.198,-195.849L844.164,-195.917L843.995,-195.883L843.247,-195.169C842.16,-194.116 840.325,-192.791 839.102,-192.791C838.286,-192.791 837.776,-193.232 837.776,-193.81C837.776,-194.252 838.218,-195.101 838.524,-195.509L839.373,-195.747C841.242,-196.257 843.519,-197.514 843.519,-199.009C843.519,-199.586 843.077,-199.824 842.499,-199.824C841.344,-199.824 838.966,-198.363 836.349,-195.747L835.942,-195.339C835.908,-195.305 835.908,-195.271 835.908,-195.237C835.908,-195.203 835.942,-195.169 835.975,-195.169C836.009,-195.169 836.043,-195.169 836.077,-195.203L836.655,-195.747C836.451,-195.339 836.349,-194.897 836.349,-194.49C836.349,-193.368 837.403,-192.519 838.762,-192.519C840.801,-192.519 842.601,-194.286 843.383,-195.033L844.13,-195.747L844.198,-195.849ZM843.315,-199.009C843.315,-197.65 840.529,-196.087 838.728,-195.815L839.611,-197.072C840.597,-198.465 841.854,-199.62 842.601,-199.62C842.941,-199.62 843.315,-199.383 843.315,-199.009Z" style="fill:rgb(239,198,124);fill-rule:nonzero;"/>
            <path d="M856.941,-203.426C856.941,-203.494 856.907,-203.562 856.805,-203.562L853.984,-203.562L856.499,-206.688L855.072,-206.688L852.387,-203.562L851.164,-203.562C851.062,-203.562 851.028,-203.46 851.028,-203.392C851.028,-203.324 851.062,-203.29 851.164,-203.29L852.183,-203.29L850.892,-201.761C850.315,-201.082 849.737,-200.47 849.057,-199.926L844.266,-196.019L843.723,-195.509C843.689,-195.475 843.655,-195.441 843.655,-195.339L843.689,-195.305C843.723,-195.305 843.757,-195.305 843.825,-195.373L844.436,-195.917L848.684,-199.349L847.29,-197.582C846.237,-196.257 845.048,-194.795 845.048,-193.878C845.048,-193.096 845.659,-192.519 846.611,-192.519C847.732,-192.519 849.465,-193.64 850.926,-195.033L851.674,-195.747L851.742,-195.849L851.708,-195.917L851.538,-195.883L850.79,-195.169C849.567,-194.014 847.902,-192.859 846.883,-192.859C846.441,-192.859 846.203,-193.164 846.203,-193.436C846.203,-193.81 846.747,-194.49 847.97,-196.053L853.747,-203.29L856.805,-203.29C856.907,-203.29 856.941,-203.324 856.941,-203.426Z" style="fill:rgb(239,198,124);fill-rule:nonzero;"/>
            <path d="M864.484,-203.426C864.484,-203.494 864.45,-203.562 864.348,-203.562L861.528,-203.562L864.042,-206.688L862.615,-206.688L859.931,-203.562L858.707,-203.562C858.605,-203.562 858.572,-203.46 858.572,-203.392C858.572,-203.324 858.605,-203.29 858.707,-203.29L859.727,-203.29L858.436,-201.761C857.858,-201.082 857.28,-200.47 856.601,-199.926L851.81,-196.019L851.266,-195.509C851.232,-195.475 851.198,-195.441 851.198,-195.339L851.232,-195.305C851.266,-195.305 851.3,-195.305 851.368,-195.373L851.98,-195.917L856.227,-199.349L854.834,-197.582C853.78,-196.257 852.591,-194.795 852.591,-193.878C852.591,-193.096 853.203,-192.519 854.154,-192.519C855.276,-192.519 857.008,-193.64 858.47,-195.033L859.217,-195.747L859.285,-195.849L859.251,-195.917L859.081,-195.883L858.334,-195.169C857.11,-194.014 855.445,-192.859 854.426,-192.859C853.984,-192.859 853.747,-193.164 853.747,-193.436C853.747,-193.81 854.29,-194.49 855.513,-196.053L861.29,-203.29L864.348,-203.29C864.45,-203.29 864.484,-203.324 864.484,-203.426Z" style="fill:rgb(239,198,124);fill-rule:nonzero;"/>
            <path d="M867.746,-203.46C867.746,-203.902 867.406,-204.242 866.964,-204.242C866.557,-204.242 866.183,-203.902 866.183,-203.46C866.183,-203.018 866.557,-202.679 866.964,-202.679C867.406,-202.679 867.746,-203.018 867.746,-203.46ZM865.605,-195.849L865.571,-195.917L865.401,-195.883L864.654,-195.169C863.464,-194.048 861.562,-192.927 860.916,-192.927C860.542,-192.927 860.338,-193.164 860.338,-193.538C860.338,-193.878 860.78,-194.422 861.494,-195.373L864.688,-199.485L863.023,-199.485C862.275,-198.737 861.562,-198.023 860.78,-197.31L858.538,-195.271C858.504,-195.237 858.47,-195.203 858.47,-195.135L858.504,-195.101C858.538,-195.101 858.572,-195.101 858.639,-195.169L859.931,-196.257C859.523,-195.407 859.115,-194.558 859.115,-193.776C859.115,-192.893 859.591,-192.519 860.474,-192.519C861.698,-192.519 863.77,-194.082 864.79,-195.033L865.537,-195.747L865.605,-195.849Z" style="fill:rgb(239,198,124);fill-rule:nonzero;"/>
            <path d="M880.522,-195.747L880.454,-195.815C880.42,-195.815 880.42,-195.815 880.318,-195.747L879.061,-194.558C877.702,-193.3 876.614,-192.859 875.799,-192.859C875.391,-192.859 874.915,-192.995 874.915,-193.402C874.915,-193.878 875.153,-194.388 875.493,-194.727L877.022,-196.358C877.532,-196.902 878.008,-197.718 878.008,-198.465C878.008,-199.247 877.328,-199.824 876.478,-199.824C874.678,-199.824 872.367,-197.752 871.348,-196.732C871.653,-197.276 871.891,-197.752 871.891,-198.295C871.891,-199.349 871.416,-199.824 870.396,-199.824C869.241,-199.824 868.086,-198.499 866.998,-197.412L865.197,-195.611C865.163,-195.577 865.129,-195.509 865.129,-195.475C865.129,-195.475 865.163,-195.407 865.197,-195.407C865.231,-195.407 865.231,-195.407 865.333,-195.475L867.032,-197.14C868.391,-198.499 869.343,-199.485 870.328,-199.485C870.6,-199.485 870.77,-199.247 870.77,-198.839C870.77,-198.431 869.988,-197.344 869.343,-196.494L866.251,-192.519L867.984,-192.519L869.853,-194.626C871.45,-196.392 874.372,-199.485 876.207,-199.485C876.546,-199.485 876.886,-199.349 876.886,-198.975C876.886,-198.601 876.58,-198.159 876.343,-197.854L874.949,-196.189C874.44,-195.577 873.828,-194.863 873.828,-194.184C873.828,-193.063 874.542,-192.519 875.595,-192.519C876.648,-192.519 877.872,-193.13 879.095,-194.32L880.454,-195.645C880.488,-195.679 880.522,-195.713 880.522,-195.747Z" style="fill:rgb(239,198,124);fill-rule:nonzero;"/>
            <path d="M892.618,-195.849L892.585,-195.917L892.415,-195.883L891.667,-195.169C889.866,-193.47 887.963,-192.859 886.74,-192.587L891.837,-199.62L890.512,-199.62L889.187,-197.955C889.153,-198.635 889.017,-199.824 887.284,-199.824C885.721,-199.824 883.886,-199.043 881.711,-196.97L880.046,-195.373C880.012,-195.339 880.012,-195.305 880.012,-195.271C880.012,-195.237 880.046,-195.203 880.046,-195.203C880.08,-195.203 880.114,-195.203 880.148,-195.237L881.032,-195.985C880.828,-195.441 880.556,-194.829 880.556,-194.286C880.556,-193.164 881.337,-192.519 882.493,-192.519C883.614,-192.519 884.464,-192.927 885.687,-193.504L884.497,-191.941C882.051,-190.786 879.978,-189.835 877.328,-187.728C875.289,-186.097 873.692,-184.194 873.692,-182.903C873.692,-182.019 874.372,-181.646 875.085,-181.646C876.682,-181.646 878.789,-182.971 881.473,-185.825C883.138,-187.626 886.128,-191.737 886.468,-192.213C888.371,-192.723 889.968,-193.3 891.803,-195.033L892.551,-195.747L892.618,-195.849ZM888.915,-198.261C888.915,-196.291 885.177,-192.757 882.833,-192.757C882.255,-192.757 881.847,-193.063 881.847,-193.538C881.847,-194.66 885.517,-199.553 887.488,-199.553C888.201,-199.553 888.915,-199.111 888.915,-198.261ZM884.26,-191.601C880.964,-186.946 877.566,-181.917 875.017,-181.917C874.372,-181.917 873.964,-182.325 873.964,-182.903C873.964,-184.058 875.289,-185.723 876.92,-187.116C879.231,-189.087 882.527,-190.854 884.26,-191.601Z" style="fill:rgb(239,198,124);fill-rule:nonzero;"/>
            <path d="M858.673,-168.014L858.605,-168.082C858.572,-168.082 858.572,-168.082 858.47,-168.014L857.348,-166.994C855.921,-165.703 854.562,-165.058 853.916,-165.058C853.509,-165.058 853.067,-165.194 853.067,-165.601C853.101,-166.009 853.441,-166.383 853.713,-166.757L855.14,-168.693C855.581,-169.271 855.989,-169.815 855.989,-170.562C855.989,-171.514 855.174,-172.023 854.358,-172.023C852.591,-172.023 851.164,-170.902 849.363,-169.543C849.431,-169.849 849.533,-170.154 849.533,-170.46C849.533,-171.65 849.091,-172.023 848.004,-172.023C846.407,-172.023 844.334,-170.392 842.907,-169.441C843.043,-169.849 843.213,-170.222 843.213,-170.664C843.213,-171.616 842.703,-172.023 841.854,-172.023C840.427,-172.023 839.271,-170.732 837.81,-169.271L836.213,-167.708C836.179,-167.674 836.145,-167.606 836.145,-167.572C836.145,-167.572 836.179,-167.504 836.213,-167.504C836.247,-167.504 836.247,-167.504 836.349,-167.572L837.98,-169.135C839.203,-170.29 840.529,-171.684 841.48,-171.684C841.82,-171.684 842.194,-171.548 842.194,-171.242C842.194,-170.664 841.208,-169.441 840.121,-168.116L837.301,-164.718L838.83,-164.718L840.801,-166.859C842.364,-168.557 845.592,-171.684 847.766,-171.684C848.106,-171.684 848.514,-171.514 848.514,-171.174C848.514,-170.46 846.849,-168.49 846.169,-167.606L843.927,-164.718L845.456,-164.718L846.985,-166.451C848.955,-168.659 852.048,-171.684 853.916,-171.684C854.358,-171.684 855.004,-171.48 855.004,-171.106C855.004,-170.732 854.766,-170.324 854.528,-170.053L853.237,-168.49C852.625,-167.742 851.878,-166.655 851.878,-166.043C851.878,-165.329 852.591,-164.718 853.611,-164.718C854.46,-164.718 855.921,-165.363 857.212,-166.587L858.605,-167.912C858.639,-167.946 858.673,-167.98 858.673,-168.014Z" style="fill:rgb(239,198,124);fill-rule:nonzero;"/>
            <path d="M869.513,-168.184L869.445,-168.252C869.411,-168.252 869.411,-168.252 869.309,-168.184L868.256,-167.198C867.44,-166.451 866.013,-165.126 865.197,-165.126C864.926,-165.126 864.722,-165.329 864.722,-165.499C864.722,-165.873 865.129,-166.451 865.571,-167.096L868.799,-171.853L867.474,-171.853L866.183,-170.29L866.183,-170.936C866.183,-171.412 865.605,-172.023 864.824,-172.023C863.566,-172.023 861.256,-170.664 859.999,-169.441L858.062,-167.538L858.028,-167.436L858.096,-167.402L858.164,-167.436L858.639,-167.844C858.47,-167.368 858.3,-166.689 858.3,-166.281C858.3,-165.295 858.877,-164.718 859.965,-164.718C860.576,-164.718 861.664,-165.228 862.615,-166.009L863.736,-166.96C863.668,-166.655 863.566,-166.281 863.566,-166.009C863.566,-165.397 863.974,-164.718 864.79,-164.718C865.843,-164.718 867.44,-166.077 868.425,-167.062L869.445,-168.082C869.479,-168.116 869.513,-168.15 869.513,-168.184ZM865.979,-170.834C865.979,-169.509 861.901,-164.99 860.236,-164.99C859.795,-164.99 859.455,-165.228 859.455,-165.669C859.455,-166.825 863.091,-171.751 864.892,-171.751C865.401,-171.751 865.979,-171.378 865.979,-170.834Z" style="fill:rgb(239,198,124);fill-rule:nonzero;"/>
            <path d="M880.148,-168.048L880.114,-168.116L879.944,-168.082L879.197,-167.368C878.381,-166.621 878.008,-166.315 877.396,-166.315C876.92,-166.315 876.682,-166.621 876.682,-166.926C876.682,-167.81 877.566,-169.305 878.551,-170.596L879.435,-171.751L878.313,-171.751C877.872,-171.344 877.396,-170.902 876.852,-170.392C876.207,-169.781 875.493,-168.965 874.746,-168.184C875.153,-168.965 875.561,-169.747 875.561,-170.596C875.561,-171.548 874.813,-172.023 874.134,-172.023C872.877,-172.023 871.755,-170.528 870.6,-169.373L868.901,-167.674C868.867,-167.64 868.867,-167.606 868.867,-167.572C868.867,-167.572 868.901,-167.538 868.935,-167.538C869.003,-167.538 868.969,-167.538 869.037,-167.572L870.158,-168.591C871.789,-170.087 872.843,-171.751 874.066,-171.751C874.338,-171.751 874.576,-171.48 874.576,-171.208C874.576,-170.664 873.352,-169.101 872.877,-168.388L870.362,-164.718L872.095,-164.718L874.27,-167.232C875.085,-168.184 875.935,-169.067 876.784,-169.985C876.512,-169.373 876.003,-168.218 876.003,-167.47C876.003,-166.757 876.343,-166.043 877.26,-166.043C877.974,-166.043 878.381,-166.349 879.333,-167.232L880.08,-167.946L880.148,-168.048Z" style="fill:rgb(239,198,124);fill-rule:nonzero;"/>
            <path d="M890.852,-168.048L890.818,-168.116L890.648,-168.082L889.9,-167.368C889.085,-166.621 888.711,-166.315 888.099,-166.315C887.624,-166.315 887.386,-166.621 887.386,-166.926C887.386,-167.81 888.269,-169.305 889.255,-170.596L890.138,-171.751L889.017,-171.751C888.575,-171.344 888.099,-170.902 887.556,-170.392C886.91,-169.781 886.196,-168.965 885.449,-168.184C885.857,-168.965 886.264,-169.747 886.264,-170.596C886.264,-171.548 885.517,-172.023 884.837,-172.023C883.58,-172.023 882.459,-170.528 881.303,-169.373L879.605,-167.674C879.571,-167.64 879.571,-167.606 879.571,-167.572C879.571,-167.572 879.605,-167.538 879.639,-167.538C879.706,-167.538 879.672,-167.538 879.74,-167.572L880.862,-168.591C882.493,-170.087 883.546,-171.751 884.769,-171.751C885.041,-171.751 885.279,-171.48 885.279,-171.208C885.279,-170.664 884.056,-169.101 883.58,-168.388L881.066,-164.718L882.799,-164.718L884.973,-167.232C885.789,-168.184 886.638,-169.067 887.488,-169.985C887.216,-169.373 886.706,-168.218 886.706,-167.47C886.706,-166.757 887.046,-166.043 887.963,-166.043C888.677,-166.043 889.085,-166.349 890.036,-167.232L890.784,-167.946L890.852,-168.048Z" style="fill:rgb(239,198,124);fill-rule:nonzero;"/>
            <path d="M899.278,-175.659C899.278,-176.101 898.939,-176.441 898.497,-176.441C898.089,-176.441 897.715,-176.101 897.715,-175.659C897.715,-175.217 898.089,-174.878 898.497,-174.878C898.939,-174.878 899.278,-175.217 899.278,-175.659ZM897.138,-168.048L897.104,-168.116L896.934,-168.082L896.186,-167.368C894.997,-166.247 893.094,-165.126 892.449,-165.126C892.075,-165.126 891.871,-165.363 891.871,-165.737C891.871,-166.077 892.313,-166.621 893.026,-167.572L896.22,-171.684L894.555,-171.684C893.808,-170.936 893.094,-170.222 892.313,-169.509L890.07,-167.47C890.036,-167.436 890.002,-167.402 890.002,-167.334L890.036,-167.3C890.07,-167.3 890.104,-167.3 890.172,-167.368L891.463,-168.456C891.055,-167.606 890.648,-166.757 890.648,-165.975C890.648,-165.092 891.123,-164.718 892.007,-164.718C893.23,-164.718 895.303,-166.281 896.322,-167.232L897.07,-167.946L897.138,-168.048Z" style="fill:rgb(239,198,124);fill-rule:nonzero;"/>
            <path d="M904.647,-168.048L904.613,-168.116L904.443,-168.082L903.696,-167.368C902.608,-166.315 900.773,-164.99 899.55,-164.99C898.735,-164.99 898.225,-165.431 898.225,-166.009C898.225,-166.451 898.667,-167.3 898.973,-167.708L899.822,-167.946C901.691,-168.456 903.967,-169.713 903.967,-171.208C903.967,-171.785 903.526,-172.023 902.948,-172.023C901.793,-172.023 899.414,-170.562 896.798,-167.946L896.39,-167.538C896.356,-167.504 896.356,-167.47 896.356,-167.436C896.356,-167.402 896.39,-167.368 896.424,-167.368C896.458,-167.368 896.492,-167.368 896.526,-167.402L897.104,-167.946C896.9,-167.538 896.798,-167.096 896.798,-166.689C896.798,-165.567 897.851,-164.718 899.21,-164.718C901.249,-164.718 903.05,-166.485 903.832,-167.232L904.579,-167.946L904.647,-168.048ZM903.764,-171.208C903.764,-169.849 900.977,-168.286 899.176,-168.014L900.06,-169.271C901.045,-170.664 902.302,-171.819 903.05,-171.819C903.39,-171.819 903.764,-171.582 903.764,-171.208Z" style="fill:rgb(239,198,124);fill-rule:nonzero;"/>
            <path d="M923.641,-182.387L922.384,-182.387L913.142,-170.188C913.074,-171.14 913.074,-172.023 911.511,-172.023C909.37,-172.023 907.229,-170.596 905.734,-169.169L904.035,-167.572C904.001,-167.538 904.001,-167.504 904.001,-167.47C904.001,-167.436 904.035,-167.402 904.035,-167.402C904.069,-167.402 904.103,-167.402 904.137,-167.436L905.055,-168.184C904.851,-167.674 904.579,-167.062 904.579,-166.553C904.579,-165.329 905.429,-164.718 906.55,-164.718C908.317,-164.718 909.982,-166.145 910.729,-166.757C910.695,-166.485 910.661,-166.145 910.661,-165.839C910.661,-165.431 911.103,-164.718 912.054,-164.718C913.108,-164.718 914.705,-166.179 915.792,-167.232L916.54,-167.946L916.608,-168.048L916.574,-168.116L916.404,-168.082L915.656,-167.368C914.841,-166.587 913.142,-165.126 912.326,-165.126C911.987,-165.126 911.783,-165.329 911.783,-165.567C911.783,-166.043 912.258,-166.791 912.7,-167.368L923.641,-182.387ZM912.87,-170.596C912.87,-168.557 908.894,-164.922 906.652,-164.922C906.142,-164.922 905.802,-165.194 905.802,-165.839C905.802,-167.13 909.982,-171.684 911.783,-171.684C912.394,-171.684 912.87,-171.378 912.87,-170.596Z" style="fill:rgb(239,198,124);fill-rule:nonzero;"/>
            <path d="M920.107,-165.601C920.107,-166.077 919.7,-166.485 919.224,-166.485C918.748,-166.485 918.341,-166.077 918.341,-165.601C918.341,-165.126 918.748,-164.718 919.224,-164.718C919.7,-164.718 920.107,-165.126 920.107,-165.601Z" style="fill:rgb(239,198,124);fill-rule:nonzero;"/>
        </g>
    </g>
</svg>
