<?xml version="1.0" encoding="UTF-8" standalone="no"?>
<!DOCTYPE svg PUBLIC "-//W3C//DTD SVG 1.1//EN" "http://www.w3.org/Graphics/SVG/1.1/DTD/svg11.dtd">
<svg width="509px" height="120px" version="1.1" xmlns="http://www.w3.org/2000/svg" xmlns:xlink="http://www.w3.org/1999/xlink" xml:space="preserve" xmlns:serif="http://www.serif.com/" style="fill-rule:evenodd;clip-rule:evenodd;stroke-linejoin:round;stroke-miterlimit:2;">
    <g transform="matrix(1,0,0,1,-11554.4,-6626.85)">
        <g id="ornament-okamura" transform="matrix(0.997126,0,0,0.997126,10618.8,4861.01)">
            <path d="M1055.41,1787.04C1055.41,1776.37 1048.54,1770.94 1038.58,1770.94C1009.45,1770.94 938.323,1836.09 938.323,1871.38C938.323,1884.4 946.648,1891.28 958.411,1891.28C973.251,1891.28 993.338,1878.61 1010.17,1860.7C1021.39,1848.75 1037.31,1825.41 1039.49,1811.65C1045.64,1807.13 1055.41,1797.18 1055.41,1787.04ZM1051.79,1783.24C1051.79,1791.75 1044.73,1800.25 1039.85,1805.32C1038.94,1802.06 1036.41,1795.55 1028.09,1795.55C1005.46,1795.55 974.336,1836.09 966.193,1856.36L962.754,1864.86C962.754,1865.04 962.935,1865.4 963.116,1865.4C963.297,1865.4 963.84,1865.04 964.021,1864.68L965.831,1862.15C967.098,1860.34 969.812,1855.45 973.794,1849.3C979.404,1840.43 1012.88,1797.36 1029.17,1797.36C1036.23,1797.36 1038.58,1803.69 1038.58,1806.95C1034.42,1810.57 1029.53,1814.55 1025.19,1816.9L1019.94,1819.8C1019.4,1820.16 1018.31,1820.7 1018.31,1821.07C1018.31,1821.07 1018.49,1821.25 1018.67,1821.25C1019.94,1821.25 1021.75,1820.52 1023.02,1819.98L1029.17,1817.45C1032.25,1816.18 1034.96,1814.37 1037.86,1812.56C1035.32,1826.67 1017.95,1850.75 1009.08,1860.34C993.881,1876.8 974.336,1889.83 958.23,1889.83C948.82,1889.83 943.028,1884.59 943.028,1876.26C943.028,1863.23 968.726,1830.84 990.986,1807.49C1008.36,1789.39 1024.29,1772.38 1039.49,1772.38C1046.36,1772.38 1051.79,1776.18 1051.79,1783.24Z" style="fill:rgb(24,48,67);fill-rule:nonzero;"/>
            <path d="M1098.85,1797.18L1092.51,1797.18L1061.02,1836.63C1056.32,1842.42 1051.07,1846.94 1046.36,1851.65L1025.01,1873L1022.48,1875.72C1022.29,1875.9 1022.11,1876.08 1022.11,1876.44L1022.29,1876.62C1022.48,1876.62 1022.66,1876.62 1023.02,1876.26L1053.78,1846.4L1018.86,1891.28L1028.09,1891.28L1040.39,1875.18C1044.19,1870.11 1051.43,1864.32 1058.49,1864.32C1060.3,1864.32 1062.65,1865.4 1062.65,1867.21C1062.65,1868.66 1061.75,1869.93 1060.84,1871.19L1056.68,1876.99C1055.23,1879.16 1054.51,1881.15 1054.51,1883.86C1054.51,1888.39 1059.57,1891.28 1063.56,1891.28C1068.44,1891.28 1077.67,1886.94 1087.62,1877.89L1091.79,1874.09L1092.15,1873.55L1091.97,1873.18L1091.06,1873.37L1087.08,1877.17C1076.95,1886.76 1067.54,1889.47 1064.1,1889.47C1063.01,1889.47 1060.3,1888.75 1060.3,1886.76C1060.3,1885.31 1060.84,1883.86 1062.65,1881.69L1066.27,1876.99C1067.54,1875.18 1068.62,1872.64 1068.62,1870.65C1068.62,1866.31 1065.18,1862.51 1060.48,1862.51C1058.13,1862.51 1056.68,1862.69 1052.7,1864.14C1057.94,1860.15 1067.54,1853.64 1075.32,1853.64C1076.4,1853.64 1077.49,1854 1078.39,1854.55C1077.85,1855.09 1076.59,1856.72 1076.59,1858.16C1076.59,1860.52 1078.58,1862.51 1080.93,1862.51C1082.92,1862.51 1084.91,1861.24 1084.91,1859.07C1084.91,1854 1081.11,1852.37 1077.13,1852.37C1065.55,1852.37 1056.13,1859.79 1047.27,1866.13L1098.85,1797.18Z" style="fill:rgb(24,48,67);fill-rule:nonzero;"/>
            <path d="M1149.7,1872.82L1149.34,1872.46C1149.15,1872.46 1149.15,1872.46 1148.61,1872.82L1143,1878.07C1138.66,1882.05 1131.06,1889.11 1126.71,1889.11C1125.27,1889.11 1124.18,1888.03 1124.18,1887.12C1124.18,1885.13 1126.35,1882.05 1128.7,1878.61L1145.9,1853.28L1138.84,1853.28L1131.96,1861.6L1131.96,1858.16C1131.96,1855.63 1128.89,1852.37 1124.72,1852.37C1118.03,1852.37 1105.72,1859.61 1099.03,1866.13L1088.71,1876.26L1088.53,1876.8L1088.89,1876.99L1089.25,1876.8L1091.79,1874.63C1090.88,1877.17 1089.98,1880.79 1089.98,1882.96C1089.98,1888.21 1093.05,1891.28 1098.85,1891.28C1102.1,1891.28 1107.89,1888.57 1112.96,1884.4L1118.93,1879.34C1118.57,1880.97 1118.03,1882.96 1118.03,1884.4C1118.03,1887.66 1120.2,1891.28 1124.54,1891.28C1130.15,1891.28 1138.66,1884.04 1143.91,1878.8L1149.34,1873.37C1149.52,1873.18 1149.7,1873 1149.7,1872.82ZM1130.88,1858.71C1130.88,1865.77 1109.16,1889.83 1100.29,1889.83C1097.94,1889.83 1096.13,1888.57 1096.13,1886.22C1096.13,1880.06 1115.49,1853.82 1125.09,1853.82C1127.8,1853.82 1130.88,1855.81 1130.88,1858.71Z" style="fill:rgb(24,48,67);fill-rule:nonzero;"/>
            <path d="M1266.24,1873.73L1265.88,1873.37C1265.7,1873.37 1265.7,1873.37 1265.16,1873.73L1259.18,1879.16C1251.58,1886.03 1244.35,1889.47 1240.91,1889.47C1238.74,1889.47 1236.38,1888.75 1236.38,1886.58C1236.56,1884.4 1238.37,1882.41 1239.82,1880.42L1247.42,1870.11C1249.78,1867.03 1251.95,1864.14 1251.95,1860.15C1251.95,1855.09 1247.6,1852.37 1243.26,1852.37C1233.85,1852.37 1226.25,1858.35 1216.66,1865.58C1217.02,1863.95 1217.56,1862.33 1217.56,1860.7C1217.56,1854.36 1215.21,1852.37 1209.42,1852.37C1200.91,1852.37 1189.87,1861.06 1182.27,1866.13C1183,1863.95 1183.9,1861.97 1183.9,1859.61C1183.9,1854.55 1181.19,1852.37 1176.66,1852.37C1169.06,1852.37 1162.91,1859.25 1155.13,1867.03L1146.62,1875.36C1146.44,1875.54 1146.26,1875.9 1146.26,1876.08C1146.26,1876.08 1146.44,1876.44 1146.62,1876.44C1146.8,1876.44 1146.8,1876.44 1147.35,1876.08L1156.03,1867.76C1162.55,1861.6 1169.6,1854.18 1174.67,1854.18C1176.48,1854.18 1178.47,1854.91 1178.47,1856.54C1178.47,1859.61 1173.22,1866.13 1167.43,1873.18L1152.41,1891.28L1160.56,1891.28L1171.05,1879.88C1179.38,1870.83 1196.57,1854.18 1208.15,1854.18C1209.96,1854.18 1212.13,1855.09 1212.13,1856.9C1212.13,1860.7 1203.27,1871.19 1199.65,1875.9L1187.7,1891.28L1195.85,1891.28L1203.99,1882.05C1214.49,1870.29 1230.95,1854.18 1240.91,1854.18C1243.26,1854.18 1246.7,1855.27 1246.7,1857.26C1246.7,1859.25 1245.43,1861.42 1244.16,1862.87L1237.29,1871.19C1234.03,1875.18 1230.05,1880.97 1230.05,1884.22C1230.05,1888.03 1233.85,1891.28 1239.28,1891.28C1243.8,1891.28 1251.58,1887.84 1258.46,1881.33L1265.88,1874.27C1266.06,1874.09 1266.24,1873.91 1266.24,1873.73Z" style="fill:rgb(24,48,67);fill-rule:nonzero;"/>
            <path d="M1333.38,1873.55L1333.2,1873.18L1332.3,1873.37L1328.32,1877.17C1322.16,1882.96 1311.31,1889.47 1307.14,1889.47C1305.15,1889.47 1304.07,1888.93 1304.07,1887.3C1304.07,1885.49 1306.42,1882.41 1311.12,1876.08L1327.41,1854.18L1318.54,1854.18C1314.92,1858.35 1310.94,1863.05 1307.69,1867.03C1300.99,1875 1286.69,1889.47 1276.56,1889.47C1273.66,1889.47 1272.21,1888.21 1272.21,1885.85C1272.21,1884.04 1274.57,1881.15 1278.37,1876.08L1295.38,1854.18L1286.51,1854.18C1282.53,1858.16 1278.91,1861.42 1274.75,1865.22L1262.81,1876.44C1262.62,1876.62 1262.44,1876.8 1262.44,1877.17L1262.62,1877.35C1262.81,1877.35 1262.99,1877.35 1263.35,1876.99L1270.59,1870.65C1268.78,1875.18 1266.79,1879.34 1266.79,1883.5C1266.79,1889.29 1271.85,1891.28 1275.84,1891.28C1283.43,1891.28 1291.04,1884.77 1299,1878.61C1298.82,1880.42 1298.46,1882.23 1298.46,1884.04C1298.46,1889.11 1300.99,1891.28 1305.69,1891.28C1312.39,1891.28 1323.79,1882.78 1329.04,1877.89L1333.02,1874.09L1333.38,1873.55Z" style="fill:rgb(24,48,67);fill-rule:nonzero;"/>
            <path d="M1390.57,1873.55L1390.39,1873.18L1389.49,1873.37L1385.5,1877.17C1381.16,1881.15 1379.17,1882.78 1375.91,1882.78C1373.38,1882.78 1372.11,1881.15 1372.11,1879.52C1372.11,1874.81 1376.82,1866.85 1382.07,1859.97L1386.77,1853.82L1380.8,1853.82C1378.44,1855.99 1375.91,1858.35 1373.02,1861.06C1369.58,1864.32 1365.78,1868.66 1361.8,1872.82C1363.97,1868.66 1366.14,1864.5 1366.14,1859.97C1366.14,1854.91 1362.16,1852.37 1358.54,1852.37C1351.84,1852.37 1345.87,1860.34 1339.72,1866.49L1330.67,1875.54C1330.49,1875.72 1330.49,1875.9 1330.49,1876.08C1330.49,1876.08 1330.67,1876.26 1330.85,1876.26C1331.21,1876.26 1331.03,1876.26 1331.39,1876.08L1337.37,1870.65C1346.05,1862.69 1351.66,1853.82 1358.18,1853.82C1359.62,1853.82 1360.89,1855.27 1360.89,1856.72C1360.89,1859.61 1354.38,1867.94 1351.84,1871.74L1338.45,1891.28L1347.68,1891.28L1359.26,1877.89C1363.61,1872.82 1368.13,1868.12 1372.65,1863.23C1371.21,1866.49 1368.49,1872.64 1368.49,1876.62C1368.49,1880.42 1370.3,1884.22 1375.19,1884.22C1378.99,1884.22 1381.16,1882.6 1386.23,1877.89L1390.21,1874.09L1390.57,1873.55Z" style="fill:rgb(24,48,67);fill-rule:nonzero;"/>
            <path d="M1447.94,1872.82L1447.58,1872.46C1447.39,1872.46 1447.39,1872.46 1446.85,1872.82L1441.24,1878.07C1436.9,1882.05 1429.3,1889.11 1424.95,1889.11C1423.51,1889.11 1422.42,1888.03 1422.42,1887.12C1422.42,1885.13 1424.59,1882.05 1426.95,1878.61L1444.14,1853.28L1437.08,1853.28L1430.2,1861.6L1430.2,1858.16C1430.2,1855.63 1427.13,1852.37 1422.96,1852.37C1416.27,1852.37 1403.96,1859.61 1397.27,1866.13L1386.95,1876.26L1386.77,1876.8L1387.13,1876.99L1387.49,1876.8L1390.03,1874.63C1389.12,1877.17 1388.22,1880.79 1388.22,1882.96C1388.22,1888.21 1391.29,1891.28 1397.09,1891.28C1400.34,1891.28 1406.13,1888.57 1411.2,1884.4L1417.17,1879.34C1416.81,1880.97 1416.27,1882.96 1416.27,1884.4C1416.27,1887.66 1418.44,1891.28 1422.78,1891.28C1428.39,1891.28 1436.9,1884.04 1442.15,1878.8L1447.58,1873.37C1447.76,1873.18 1447.94,1873 1447.94,1872.82ZM1429.12,1858.71C1429.12,1865.77 1407.4,1889.83 1398.53,1889.83C1396.18,1889.83 1394.37,1888.57 1394.37,1886.22C1394.37,1880.06 1413.74,1853.82 1423.33,1853.82C1426.04,1853.82 1429.12,1855.81 1429.12,1858.71Z" style="fill:rgb(24,48,67);fill-rule:nonzero;"/>
        </g>
    </g>
</svg>
