<?xml version="1.0" encoding="UTF-8" standalone="no"?>
<!DOCTYPE svg PUBLIC "-//W3C//DTD SVG 1.1//EN" "http://www.w3.org/Graphics/SVG/1.1/DTD/svg11.dtd">
<svg width="289px" height="120px" version="1.1" xmlns="http://www.w3.org/2000/svg" xmlns:xlink="http://www.w3.org/1999/xlink" xml:space="preserve" xmlns:serif="http://www.serif.com/" style="fill-rule:evenodd;clip-rule:evenodd;stroke-linejoin:round;stroke-miterlimit:2;">
    <g transform="matrix(1,0,0,1,-11087,-6001.41)">
        <g id="ornament-yuki" transform="matrix(0.997126,0,0,0.997126,10114.9,4235.56)">
            <path d="M1127.8,1783.24L1127.08,1783.24L1123.46,1785.41C1120.56,1787.22 1117.85,1789.03 1115.31,1791.2C1108.98,1796.27 1095.95,1808.94 1082.74,1821.61C1066.81,1836.81 1051.97,1851.29 1044.01,1851.29C1041.12,1851.29 1038.04,1850.02 1038.04,1846.94C1038.04,1833.73 1068.26,1815.82 1068.26,1793.74C1068.26,1778.54 1055.41,1770.94 1041.48,1770.94C1029.17,1770.94 1015.24,1775.28 1003.65,1782.52C988.09,1792.47 974.879,1805.68 974.879,1818.53C974.879,1829.03 982.299,1834.82 993.7,1834.82C1018.67,1834.82 1038.94,1805.14 1038.94,1789.58L1038.94,1787.77C1038.94,1787.59 1038.94,1787.22 1038.76,1787.22C1038.4,1787.22 1038.22,1787.59 1038.04,1787.95L1034.78,1794.46C1027.9,1808.22 1006.37,1832.1 990.443,1832.1C980.67,1832.1 975.965,1826.13 975.965,1818.71C975.965,1806.77 990.443,1791.57 1003.47,1783.97C1014.87,1777.09 1027.9,1772.38 1040.03,1772.38C1055.77,1772.38 1064.28,1779.99 1064.28,1789.76C1064.28,1803.87 1032.61,1824.87 1032.61,1843.33C1032.61,1848.57 1037.13,1852.74 1042.56,1852.74C1051.61,1852.74 1060.66,1843.51 1070.97,1834.1L1086,1820.52L1069.71,1842.96C1053.06,1865.95 1035.51,1889.83 1008.9,1889.83C997.863,1889.83 988.633,1885.31 988.633,1879.16C988.633,1876.08 988.995,1874.45 990.262,1873.18C990.986,1875 992.072,1877.17 994.967,1877.17C998.406,1877.17 1000.58,1875 1000.58,1872.46C1000.58,1869.02 998.406,1866.85 995.329,1866.85C990.986,1866.85 986.823,1870.83 986.823,1877.53C986.823,1886.4 995.872,1891.28 1010.35,1891.28C1036.77,1891.28 1055.95,1875.72 1074.05,1851.83C1087.81,1833.91 1096.13,1817.63 1106.99,1803.69C1111.69,1797.54 1117.67,1791.57 1124.54,1786.32L1127.62,1783.97L1127.8,1783.24Z" style="fill:rgb(24,48,67);fill-rule:nonzero;"/>
            <path d="M1152.41,1873.55L1152.23,1873.18L1151.33,1873.37L1147.35,1877.17C1141.19,1882.96 1130.33,1889.47 1126.17,1889.47C1124.18,1889.47 1123.1,1888.93 1123.1,1887.3C1123.1,1885.49 1125.45,1882.41 1130.15,1876.08L1146.44,1854.18L1137.57,1854.18C1133.95,1858.35 1129.97,1863.05 1126.71,1867.03C1120.02,1875 1105.72,1889.47 1095.59,1889.47C1092.69,1889.47 1091.24,1888.21 1091.24,1885.85C1091.24,1884.04 1093.6,1881.15 1097.4,1876.08L1114.41,1854.18L1105.54,1854.18C1101.56,1858.16 1097.94,1861.42 1093.78,1865.22L1081.83,1876.44C1081.65,1876.62 1081.47,1876.8 1081.47,1877.17L1081.65,1877.35C1081.83,1877.35 1082.01,1877.35 1082.38,1876.99L1089.62,1870.65C1087.81,1875.18 1085.82,1879.34 1085.82,1883.5C1085.82,1889.29 1090.88,1891.28 1094.86,1891.28C1102.46,1891.28 1110.07,1884.77 1118.03,1878.61C1117.85,1880.42 1117.49,1882.23 1117.49,1884.04C1117.49,1889.11 1120.02,1891.28 1124.72,1891.28C1131.42,1891.28 1142.82,1882.78 1148.07,1877.89L1152.05,1874.09L1152.41,1873.55Z" style="fill:rgb(24,48,67);fill-rule:nonzero;"/>
            <path d="M1226.07,1797.18L1219.73,1797.18L1188.24,1836.63C1183.54,1842.42 1178.29,1846.94 1173.59,1851.65L1152.23,1873L1149.7,1875.72C1149.52,1875.9 1149.34,1876.08 1149.34,1876.44L1149.52,1876.62C1149.7,1876.62 1149.88,1876.62 1150.24,1876.26L1181.01,1846.4L1146.08,1891.28L1155.31,1891.28L1167.61,1875.18C1171.41,1870.11 1178.65,1864.32 1185.71,1864.32C1187.52,1864.32 1189.87,1865.4 1189.87,1867.21C1189.87,1868.66 1188.97,1869.93 1188.06,1871.19L1183.9,1876.99C1182.45,1879.16 1181.73,1881.15 1181.73,1883.86C1181.73,1888.39 1186.8,1891.28 1190.78,1891.28C1195.66,1891.28 1204.89,1886.94 1214.85,1877.89L1219.01,1874.09L1219.37,1873.55L1219.19,1873.18L1218.29,1873.37L1214.3,1877.17C1204.17,1886.76 1194.76,1889.47 1191.32,1889.47C1190.24,1889.47 1187.52,1888.75 1187.52,1886.76C1187.52,1885.31 1188.06,1883.86 1189.87,1881.69L1193.49,1876.99C1194.76,1875.18 1195.85,1872.64 1195.85,1870.65C1195.85,1866.31 1192.41,1862.51 1187.7,1862.51C1185.35,1862.51 1183.9,1862.69 1179.92,1864.14C1185.17,1860.15 1194.76,1853.64 1202.54,1853.64C1203.63,1853.64 1204.71,1854 1205.62,1854.55C1205.08,1855.09 1203.81,1856.72 1203.81,1858.16C1203.81,1860.52 1205.8,1862.51 1208.15,1862.51C1210.14,1862.51 1212.13,1861.24 1212.13,1859.07C1212.13,1854 1208.33,1852.37 1204.35,1852.37C1192.77,1852.37 1183.36,1859.79 1174.49,1866.13L1226.07,1797.18Z" style="fill:rgb(24,48,67);fill-rule:nonzero;"/>
            <path d="M1264.43,1833.01C1264.43,1830.66 1262.62,1828.85 1260.27,1828.85C1258.1,1828.85 1256.11,1830.66 1256.11,1833.01C1256.11,1835.36 1258.1,1837.17 1260.27,1837.17C1262.62,1837.17 1264.43,1835.36 1264.43,1833.01ZM1253.03,1873.55L1252.85,1873.18L1251.95,1873.37L1247.96,1877.17C1241.63,1883.14 1231.5,1889.11 1228.06,1889.11C1226.07,1889.11 1224.98,1887.84 1224.98,1885.85C1224.98,1884.04 1227.33,1881.15 1231.13,1876.08L1248.15,1854.18L1239.28,1854.18C1235.3,1858.16 1231.5,1861.97 1227.33,1865.77L1215.39,1876.62C1215.21,1876.8 1215.03,1876.99 1215.03,1877.35L1215.21,1877.53C1215.39,1877.53 1215.57,1877.53 1215.93,1877.17L1222.81,1871.38C1220.64,1875.9 1218.47,1880.42 1218.47,1884.59C1218.47,1889.29 1221,1891.28 1225.71,1891.28C1232.22,1891.28 1243.26,1882.96 1248.69,1877.89L1252.67,1874.09L1253.03,1873.55Z" style="fill:rgb(24,48,67);fill-rule:nonzero;"/>
        </g>
    </g>
</svg>
