<?xml version="1.0" encoding="UTF-8" standalone="no"?>
<!DOCTYPE svg PUBLIC "-//W3C//DTD SVG 1.1//EN" "http://www.w3.org/Graphics/SVG/1.1/DTD/svg11.dtd">
<svg width="426px" height="151px" version="1.1" xmlns="http://www.w3.org/2000/svg" xmlns:xlink="http://www.w3.org/1999/xlink" xml:space="preserve" xmlns:serif="http://www.serif.com/" style="fill-rule:evenodd;clip-rule:evenodd;stroke-linejoin:round;stroke-miterlimit:2;">
    <g transform="matrix(1,0,0,1,-9340.92,-4191.32)">
        <g transform="matrix(3.18811,-0.56215,2.32362e-16,3.28723,6795.98,5422.28)">
            <path d="M826.971,-212.804L826.835,-212.804L826.156,-212.397C825.612,-212.057 825.102,-211.717 824.626,-211.309C823.437,-210.358 820.991,-207.979 818.51,-205.601C815.52,-202.747 812.734,-200.028 811.239,-200.028C810.695,-200.028 810.117,-200.266 810.117,-200.844C810.117,-203.324 815.792,-206.688 815.792,-210.834C815.792,-213.688 813.379,-215.115 810.763,-215.115C808.452,-215.115 805.836,-214.299 803.661,-212.94C800.739,-211.071 798.259,-208.591 798.259,-206.178C798.259,-204.208 799.652,-203.12 801.793,-203.12C806.482,-203.12 810.287,-208.693 810.287,-211.615L810.287,-211.955C810.287,-211.989 810.287,-212.057 810.253,-212.057C810.185,-212.057 810.151,-211.989 810.117,-211.921L809.506,-210.698C808.215,-208.115 804.171,-203.63 801.181,-203.63C799.346,-203.63 798.463,-204.751 798.463,-206.144C798.463,-208.387 801.181,-211.241 803.627,-212.668C805.768,-213.96 808.215,-214.843 810.491,-214.843C813.447,-214.843 815.044,-213.416 815.044,-211.581C815.044,-208.931 809.098,-204.989 809.098,-201.523C809.098,-200.538 809.948,-199.756 810.967,-199.756C812.666,-199.756 814.365,-201.489 816.302,-203.256L819.122,-205.805L816.064,-201.591C812.938,-197.276 809.642,-192.791 804.647,-192.791C802.574,-192.791 800.841,-193.64 800.841,-194.795C800.841,-195.373 800.909,-195.679 801.147,-195.917C801.283,-195.577 801.487,-195.169 802.03,-195.169C802.676,-195.169 803.084,-195.577 803.084,-196.053C803.084,-196.698 802.676,-197.106 802.098,-197.106C801.283,-197.106 800.501,-196.358 800.501,-195.101C800.501,-193.436 802.2,-192.519 804.919,-192.519C809.88,-192.519 813.481,-195.441 816.879,-199.926C819.462,-203.29 821.025,-206.348 823.063,-208.965C823.947,-210.12 825.068,-211.241 826.359,-212.227L826.937,-212.668L826.971,-212.804Z" style="fill:rgb(239,198,124);fill-rule:nonzero;"/>
            <path d="M831.592,-195.849L831.558,-195.917L831.388,-195.883L830.641,-195.169C829.485,-194.082 827.447,-192.859 826.665,-192.859C826.291,-192.859 826.088,-192.961 826.088,-193.266C826.088,-193.606 826.529,-194.184 827.413,-195.373L830.471,-199.485L828.806,-199.485C828.126,-198.703 827.379,-197.82 826.767,-197.072C825.51,-195.577 822.826,-192.859 820.923,-192.859C820.379,-192.859 820.107,-193.096 820.107,-193.538C820.107,-193.878 820.549,-194.422 821.263,-195.373L824.457,-199.485L822.792,-199.485C822.044,-198.737 821.365,-198.125 820.583,-197.412L818.34,-195.305C818.306,-195.271 818.272,-195.237 818.272,-195.169L818.306,-195.135C818.34,-195.135 818.374,-195.135 818.442,-195.203L819.801,-196.392C819.462,-195.543 819.088,-194.761 819.088,-193.98C819.088,-192.893 820.039,-192.519 820.787,-192.519C822.214,-192.519 823.641,-193.742 825.136,-194.897C825.102,-194.558 825.034,-194.218 825.034,-193.878C825.034,-192.927 825.51,-192.519 826.393,-192.519C827.651,-192.519 829.791,-194.116 830.777,-195.033L831.524,-195.747L831.592,-195.849Z" style="fill:rgb(239,198,124);fill-rule:nonzero;"/>
            <path d="M845.422,-210.188L844.232,-210.188L838.32,-202.781C837.437,-201.693 836.451,-200.844 835.568,-199.96L831.558,-195.951L831.083,-195.441C831.049,-195.407 831.015,-195.373 831.015,-195.305L831.049,-195.271C831.083,-195.271 831.116,-195.271 831.184,-195.339L836.961,-200.946L830.403,-192.519L832.136,-192.519L834.446,-195.543C835.16,-196.494 836.519,-197.582 837.844,-197.582C838.184,-197.582 838.626,-197.378 838.626,-197.038C838.626,-196.766 838.456,-196.528 838.286,-196.291L837.505,-195.203C837.233,-194.795 837.097,-194.422 837.097,-193.912C837.097,-193.063 838.048,-192.519 838.796,-192.519C839.713,-192.519 841.446,-193.334 843.315,-195.033L844.096,-195.747L844.164,-195.849L844.13,-195.917L843.961,-195.883L843.213,-195.169C841.31,-193.368 839.543,-192.859 838.898,-192.859C838.694,-192.859 838.184,-192.995 838.184,-193.368C838.184,-193.64 838.286,-193.912 838.626,-194.32L839.305,-195.203C839.543,-195.543 839.747,-196.019 839.747,-196.392C839.747,-197.208 839.102,-197.922 838.218,-197.922C837.776,-197.922 837.505,-197.888 836.757,-197.616C837.742,-198.363 839.543,-199.586 841.004,-199.586C841.208,-199.586 841.412,-199.519 841.582,-199.417C841.48,-199.315 841.242,-199.009 841.242,-198.737C841.242,-198.295 841.616,-197.922 842.058,-197.922C842.431,-197.922 842.805,-198.159 842.805,-198.567C842.805,-199.519 842.092,-199.824 841.344,-199.824C839.17,-199.824 837.403,-198.431 835.738,-197.242L845.422,-210.188Z" style="fill:rgb(239,198,124);fill-rule:nonzero;"/>
            <path d="M852.625,-203.46C852.625,-203.902 852.285,-204.242 851.844,-204.242C851.436,-204.242 851.062,-203.902 851.062,-203.46C851.062,-203.018 851.436,-202.679 851.844,-202.679C852.285,-202.679 852.625,-203.018 852.625,-203.46ZM850.485,-195.849L850.451,-195.917L850.281,-195.883L849.533,-195.169C848.344,-194.048 846.441,-192.927 845.795,-192.927C845.422,-192.927 845.218,-193.164 845.218,-193.538C845.218,-193.878 845.659,-194.422 846.373,-195.373L849.567,-199.485L847.902,-199.485C847.155,-198.737 846.441,-198.023 845.659,-197.31L843.417,-195.271C843.383,-195.237 843.349,-195.203 843.349,-195.135L843.383,-195.101C843.417,-195.101 843.451,-195.101 843.519,-195.169L844.81,-196.257C844.402,-195.407 843.995,-194.558 843.995,-193.776C843.995,-192.893 844.47,-192.519 845.354,-192.519C846.577,-192.519 848.65,-194.082 849.669,-195.033L850.417,-195.747L850.485,-195.849Z" style="fill:rgb(239,198,124);fill-rule:nonzero;"/>
            <path d="M874.678,-195.509C874.678,-195.577 874.61,-195.645 874.508,-195.645C874.406,-195.645 874.236,-195.543 874.066,-195.305C873.284,-194.32 870.94,-193.368 869.683,-193.368C867.644,-193.368 866.557,-194.727 865.673,-196.732C866.659,-198.193 867.95,-200.164 868.697,-200.844C869.309,-201.421 869.954,-201.863 870.328,-201.863C870.362,-201.863 870.396,-201.829 870.396,-201.761C870.396,-201.557 870.294,-201.421 870.294,-201.217C870.294,-200.776 870.634,-200.47 871.11,-200.47C871.619,-200.47 872.061,-200.878 872.061,-201.421C872.061,-201.931 871.653,-202.339 871.178,-202.339C870.6,-202.339 869.377,-201.829 868.425,-200.912C867.508,-200.028 866.591,-198.737 865.469,-197.174C864.824,-199.383 864.484,-200.878 864.246,-203.936C867.508,-206.518 868.663,-207.538 868.663,-208.863C868.663,-209.644 868.12,-210.188 867.372,-210.188C866.625,-210.188 865.537,-209.712 864.79,-208.965C863.634,-207.809 862.989,-205.907 862.887,-203.392C858.164,-199.96 856.023,-197.888 856.023,-195.407C856.023,-193.606 857.654,-192.315 859.421,-192.315C861.392,-192.315 862.819,-193.334 864.518,-195.169C865.503,-193.436 867.066,-192.519 869.037,-192.519C870.26,-192.519 871.178,-192.757 872.231,-193.3C872.945,-193.674 874.678,-194.931 874.678,-195.509ZM868.391,-208.829C868.391,-207.538 867.1,-206.552 864.212,-204.276L864.212,-205.023C864.212,-207.334 865.775,-209.916 867.304,-209.916C867.882,-209.916 868.391,-209.508 868.391,-208.829ZM864.314,-195.577C862.513,-193.98 861.698,-193.504 860.236,-193.504C858.504,-193.504 857.552,-194.354 857.552,-195.713C857.552,-198.499 859.591,-200.674 862.921,-203.052C863.261,-199.179 863.498,-197.718 864.314,-195.577Z" style="fill:rgb(239,198,124);fill-rule:nonzero;"/>
            <path d="M915.384,-214.809C915.384,-214.843 915.35,-214.877 915.316,-214.877L914.909,-214.775C913.55,-214.435 911.681,-214.401 910.22,-214.401C907.263,-214.401 901.283,-215.115 897.376,-215.115C892.109,-215.115 886.842,-212.329 886.842,-208.965C886.842,-206.688 888.269,-205.873 890.104,-205.873C893.06,-205.873 896.084,-209.135 896.9,-211.581L897.002,-211.887C897.002,-211.921 896.934,-211.989 896.9,-211.989C896.866,-211.989 896.866,-211.955 896.832,-211.921L896.628,-211.411C896.458,-210.969 896.152,-210.494 895.88,-210.086C894.283,-207.707 892.415,-206.144 890.036,-206.144C888.405,-206.144 887.386,-206.994 887.386,-208.013C887.386,-210.222 892.109,-214.843 897.443,-214.843C901.453,-214.843 906.448,-213.382 909.574,-213.382C911.613,-213.382 913.685,-213.688 914.943,-214.469L915.316,-214.707C915.35,-214.707 915.384,-214.775 915.384,-214.809ZM905.225,-212.091L905.191,-212.261C903.22,-211.547 900.264,-208.965 897.817,-205.771C896.05,-203.46 892.007,-197.786 890.784,-196.596C888.711,-194.592 886.842,-192.791 883.546,-192.791C880.794,-192.791 879.605,-194.354 879.605,-195.169C879.605,-195.441 879.639,-195.747 879.808,-196.019C880.08,-195.713 880.318,-195.305 880.998,-195.305C881.575,-195.305 882.017,-195.713 882.017,-196.291C882.017,-197.004 881.405,-197.31 880.896,-197.31C879.842,-197.31 879.333,-196.358 879.333,-195.373C879.333,-193.81 881.168,-192.519 883.58,-192.519C885.551,-192.519 887.624,-192.859 890.92,-195.067C893.434,-196.732 895.948,-200.062 897.036,-201.727L898.973,-204.683C900.468,-206.994 901.555,-209.882 905.225,-212.091Z" style="fill:rgb(239,198,124);fill-rule:nonzero;"/>
            <path d="M910.899,-195.985L910.831,-196.053C910.797,-196.053 910.797,-196.053 910.695,-195.985L909.642,-194.999C908.826,-194.252 907.399,-192.927 906.584,-192.927C906.312,-192.927 906.108,-193.13 906.108,-193.3C906.108,-193.674 906.516,-194.252 906.958,-194.897L910.186,-199.654L908.86,-199.654L907.569,-198.091L907.569,-198.737C907.569,-199.213 906.992,-199.824 906.21,-199.824C904.953,-199.824 902.642,-198.465 901.385,-197.242L899.448,-195.339L899.414,-195.237L899.482,-195.203L899.55,-195.237L900.026,-195.645C899.856,-195.169 899.686,-194.49 899.686,-194.082C899.686,-193.096 900.264,-192.519 901.351,-192.519C901.963,-192.519 903.05,-193.029 904.001,-193.81L905.123,-194.761C905.055,-194.456 904.953,-194.082 904.953,-193.81C904.953,-193.198 905.361,-192.519 906.176,-192.519C907.229,-192.519 908.826,-193.878 909.812,-194.863L910.831,-195.883C910.865,-195.917 910.899,-195.951 910.899,-195.985ZM907.365,-198.635C907.365,-197.31 903.288,-192.791 901.623,-192.791C901.181,-192.791 900.841,-193.029 900.841,-193.47C900.841,-194.626 904.477,-199.553 906.278,-199.553C906.788,-199.553 907.365,-199.179 907.365,-198.635Z" style="fill:rgb(239,198,124);fill-rule:nonzero;"/>
            <path d="M924.627,-210.188L923.437,-210.188L917.525,-202.781C916.642,-201.693 915.656,-200.844 914.773,-199.96L910.763,-195.951L910.288,-195.441C910.254,-195.407 910.22,-195.373 910.22,-195.305L910.254,-195.271C910.288,-195.271 910.322,-195.271 910.389,-195.339L916.166,-200.946L909.608,-192.519L911.341,-192.519L913.651,-195.543C914.365,-196.494 915.724,-197.582 917.049,-197.582C917.389,-197.582 917.831,-197.378 917.831,-197.038C917.831,-196.766 917.661,-196.528 917.491,-196.291L916.71,-195.203C916.438,-194.795 916.302,-194.422 916.302,-193.912C916.302,-193.063 917.253,-192.519 918.001,-192.519C918.918,-192.519 920.651,-193.334 922.52,-195.033L923.302,-195.747L923.369,-195.849L923.335,-195.917L923.166,-195.883L922.418,-195.169C920.515,-193.368 918.748,-192.859 918.103,-192.859C917.899,-192.859 917.389,-192.995 917.389,-193.368C917.389,-193.64 917.491,-193.912 917.831,-194.32L918.51,-195.203C918.748,-195.543 918.952,-196.019 918.952,-196.392C918.952,-197.208 918.307,-197.922 917.423,-197.922C916.981,-197.922 916.71,-197.888 915.962,-197.616C916.947,-198.363 918.748,-199.586 920.209,-199.586C920.413,-199.586 920.617,-199.519 920.787,-199.417C920.685,-199.315 920.447,-199.009 920.447,-198.737C920.447,-198.295 920.821,-197.922 921.263,-197.922C921.637,-197.922 922.01,-198.159 922.01,-198.567C922.01,-199.519 921.297,-199.824 920.549,-199.824C918.375,-199.824 916.608,-198.431 914.943,-197.242L924.627,-210.188Z" style="fill:rgb(239,198,124);fill-rule:nonzero;"/>
            <path d="M931.83,-203.46C931.83,-203.902 931.49,-204.242 931.049,-204.242C930.641,-204.242 930.267,-203.902 930.267,-203.46C930.267,-203.018 930.641,-202.679 931.049,-202.679C931.49,-202.679 931.83,-203.018 931.83,-203.46ZM929.69,-195.849L929.656,-195.917L929.486,-195.883L928.738,-195.169C927.549,-194.048 925.646,-192.927 925,-192.927C924.627,-192.927 924.423,-193.164 924.423,-193.538C924.423,-193.878 924.865,-194.422 925.578,-195.373L928.772,-199.485L927.107,-199.485C926.36,-198.737 925.646,-198.023 924.865,-197.31L922.622,-195.271C922.588,-195.237 922.554,-195.203 922.554,-195.135L922.588,-195.101C922.622,-195.101 922.656,-195.101 922.724,-195.169L924.015,-196.257C923.607,-195.407 923.2,-194.558 923.2,-193.776C923.2,-192.893 923.675,-192.519 924.559,-192.519C925.782,-192.519 927.855,-194.082 928.874,-195.033L929.622,-195.747L929.69,-195.849Z" style="fill:rgb(239,198,124);fill-rule:nonzero;"/>
        </g>
    </g>
</svg>
