<?xml version="1.0" encoding="UTF-8" standalone="no"?>
<!DOCTYPE svg PUBLIC "-//W3C//DTD SVG 1.1//EN" "http://www.w3.org/Graphics/SVG/1.1/DTD/svg11.dtd">
<svg width="228px" height="106px" version="1.1" xmlns="http://www.w3.org/2000/svg" xmlns:xlink="http://www.w3.org/1999/xlink" xml:space="preserve" xmlns:serif="http://www.serif.com/" style="fill-rule:evenodd;clip-rule:evenodd;stroke-linejoin:round;stroke-miterlimit:2;">
    <g transform="matrix(1,0,0,1,-12263.2,-5652.86)">
        <g transform="matrix(0.910286,0,0,0.910286,11354.4,4008.39)">
            <path d="M1099.79,1807.05L1099.4,1806.54L1095.96,1807.94C1093.54,1808.96 1089.34,1811.26 1087.42,1812.4C1083.47,1809.22 1076.46,1806.54 1067.04,1806.54C1055.44,1806.54 1042.06,1810.62 1032.25,1816.48C1017.72,1825.14 1006.38,1838.53 1006.38,1848.21C1006.38,1854.58 1010.84,1858.15 1017.34,1858.15C1032.12,1858.15 1048.3,1839.93 1050.98,1827.82L1052,1823.11C1052,1822.85 1052,1822.47 1051.74,1822.47C1051.49,1822.47 1051.23,1822.85 1051.11,1823.11L1049.96,1825.78C1046.9,1832.79 1040.15,1840.44 1033.65,1846.55C1026.13,1853.43 1021.16,1856.88 1015.81,1856.88C1010.58,1856.88 1007.4,1853.43 1007.4,1847.95C1007.4,1837 1022.56,1822.72 1033.27,1816.86C1043.59,1811.13 1056.08,1807.56 1066.91,1807.56C1076.59,1807.56 1083.09,1810.62 1086.4,1813.04C1069.71,1826.55 1064.1,1836.49 1053.91,1852.16C1052.63,1851.27 1051.74,1850.38 1051.74,1847.95C1051.74,1844.26 1054.55,1841.07 1056.46,1839.42C1058.12,1838.02 1059.39,1837.38 1060.79,1836.87L1060.79,1836.23C1058.62,1836.87 1057.61,1837.51 1055.95,1838.78C1054.04,1840.31 1050.98,1843.62 1050.98,1848.21C1050.98,1850.38 1052.51,1852.54 1053.27,1853.31C1047.28,1862.23 1031.23,1890.26 1011.6,1890.26C1004.08,1890.26 999.368,1886.44 999.368,1881.98C999.368,1880.96 999.496,1879.81 999.878,1878.79C1001.02,1880.45 1001.79,1881.98 1004.34,1881.98C1006.5,1881.98 1008.16,1880.45 1008.16,1878.28C1008.16,1875.74 1006,1874.46 1004.08,1874.46C1000.77,1874.46 998.349,1877.77 998.349,1881.47C998.349,1887.46 1003.45,1891.28 1012.37,1891.28C1035.69,1891.28 1052.89,1865.92 1059.26,1855.86C1061.05,1856.24 1062.7,1856.37 1064.23,1856.37C1081.18,1856.37 1095.58,1843.24 1095.58,1828.71C1095.58,1820.05 1089.85,1814.82 1088.7,1813.42C1090.36,1812.02 1092.14,1810.49 1096.98,1808.32L1099.79,1807.05ZM1092.78,1823.23C1092.78,1828.71 1079.52,1855.09 1062.58,1855.35C1061.81,1855.35 1060.28,1855.22 1059.64,1855.09C1062.83,1849.99 1066.14,1844.01 1070.99,1836.1C1080.16,1821.32 1081.56,1819.92 1087.68,1814.18C1088.57,1814.82 1092.78,1818.01 1092.78,1823.23Z" style="fill-rule:nonzero;"/>
            <path d="M1108.83,1878.79L1108.7,1878.54L1108.07,1878.67L1105.27,1881.34C1102.21,1884.15 1100.8,1885.29 1098.51,1885.29C1096.73,1885.29 1095.84,1884.15 1095.84,1883C1095.84,1879.69 1099.15,1874.08 1102.84,1869.24L1106.16,1864.9L1101.95,1864.9C1100.3,1866.43 1098.51,1868.09 1096.47,1870C1094.05,1872.3 1091.37,1875.35 1088.57,1878.28C1090.1,1875.35 1091.63,1872.42 1091.63,1869.24C1091.63,1865.67 1088.83,1863.88 1086.28,1863.88C1081.56,1863.88 1077.36,1869.49 1073.02,1873.82L1066.65,1880.19C1066.53,1880.32 1066.53,1880.45 1066.53,1880.58C1066.53,1880.58 1066.65,1880.7 1066.78,1880.7C1067.04,1880.7 1066.91,1880.7 1067.16,1880.58L1071.37,1876.76C1077.48,1871.15 1081.43,1864.9 1086.02,1864.9C1087.04,1864.9 1087.93,1865.92 1087.93,1866.94C1087.93,1868.98 1083.35,1874.84 1081.56,1877.52L1072.13,1891.28L1078.63,1891.28L1086.79,1881.85C1089.85,1878.28 1093.03,1874.97 1096.22,1871.53C1095.2,1873.82 1093.29,1878.16 1093.29,1880.96C1093.29,1883.64 1094.56,1886.31 1098,1886.31C1100.68,1886.31 1102.21,1885.16 1105.77,1881.85L1108.58,1879.18L1108.83,1878.79Z" style="fill-rule:nonzero;"/>
            <path d="M1141.71,1878.79L1141.45,1878.54L1140.95,1878.67L1138.14,1881.34C1136.36,1883 1134.45,1884.78 1131.9,1884.78C1130.75,1884.78 1129.48,1884.15 1128.59,1883.64C1131.01,1881.09 1138.14,1874.21 1138.14,1868.73C1138.14,1866.82 1136.61,1863.88 1133.3,1863.88C1124.25,1863.88 1114.44,1873.06 1108.7,1878.28L1105.27,1881.47C1105.14,1881.6 1104.88,1881.85 1104.88,1881.98C1104.88,1882.11 1104.88,1882.23 1105.14,1882.23C1105.27,1882.23 1105.39,1882.23 1105.65,1882.11L1109.09,1879.05C1108.32,1880.58 1107.94,1882.87 1107.94,1884.4C1107.94,1888.73 1110.74,1891.28 1114.44,1891.28C1119.79,1891.28 1123.87,1887.46 1127.95,1884.4C1129.22,1885.04 1130.5,1885.8 1131.77,1885.8C1134.45,1885.8 1136.61,1883.64 1138.52,1881.85L1141.71,1878.79ZM1137.12,1868.85C1137.12,1875.86 1122.09,1890.26 1116.1,1890.26C1113.55,1890.26 1112.53,1889.24 1112.53,1887.2C1112.53,1883.25 1125.14,1864.9 1133.05,1864.9C1135.21,1864.9 1137.12,1866.56 1137.12,1868.85Z" style="fill-rule:nonzero;"/>
            <path d="M1205.43,1825.65C1205.43,1823.23 1203.39,1821.83 1200.84,1821.83C1193.19,1821.83 1175.74,1840.18 1164.65,1855.47L1156.88,1866.18C1153.94,1868.22 1146.55,1873.82 1141.71,1878.41L1139.93,1880.07C1139.8,1880.19 1139.54,1880.45 1139.54,1880.58C1139.54,1880.7 1139.54,1880.83 1139.8,1880.83C1139.93,1880.83 1140.05,1880.83 1140.18,1880.7L1141.71,1879.3C1145.28,1875.99 1152.92,1870 1155.09,1868.73C1151.52,1874.33 1147.44,1879.81 1143.37,1885.55C1142.35,1884.91 1141.2,1884.15 1139.93,1884.15C1138.4,1884.15 1136.74,1885.67 1136.74,1887.46C1136.74,1888.86 1138.14,1890.13 1139.8,1890.64C1133.56,1899.06 1127.18,1907.72 1114.95,1922.76L1121.96,1922.76C1131.01,1911.93 1137.25,1904.03 1146.17,1891.28L1147.44,1891.28C1151.39,1891.28 1157.77,1889.88 1163.37,1884.91L1169.62,1879.3L1170,1878.79L1169.87,1878.54L1169.24,1878.67L1167.96,1879.94C1160.83,1887.08 1154.71,1888.61 1151.39,1888.61C1150.5,1888.61 1149.61,1888.35 1148.72,1888.1L1165.92,1862.1C1170.64,1859.68 1181.21,1853.94 1189.5,1846.68C1197.4,1839.67 1205.43,1832.03 1205.43,1825.65ZM1204.41,1825.78C1204.41,1829.73 1199.57,1835.72 1194.09,1841.2C1185.8,1849.36 1175.99,1856.24 1167.07,1860.32L1172.68,1851.52C1179.3,1841.07 1193.58,1822.85 1201.35,1822.85C1203.01,1822.85 1204.41,1824 1204.41,1825.78Z" style="fill-rule:nonzero;"/>
            <path d="M1201.73,1850.25C1201.73,1848.59 1200.46,1847.32 1198.8,1847.32C1197.27,1847.32 1195.87,1848.59 1195.87,1850.25C1195.87,1851.9 1197.27,1853.18 1198.8,1853.18C1200.46,1853.18 1201.73,1851.9 1201.73,1850.25ZM1193.7,1878.79L1193.58,1878.54L1192.94,1878.67L1190.13,1881.34C1185.67,1885.55 1178.54,1889.75 1176.12,1889.75C1174.71,1889.75 1173.95,1888.86 1173.95,1887.46C1173.95,1886.18 1175.61,1884.15 1178.28,1880.58L1190.26,1865.16L1184.02,1865.16C1181.21,1867.96 1178.54,1870.64 1175.61,1873.31L1167.2,1880.96C1167.07,1881.09 1166.94,1881.22 1166.94,1881.47L1167.07,1881.6C1167.2,1881.6 1167.32,1881.6 1167.58,1881.34L1172.42,1877.26C1170.89,1880.45 1169.36,1883.64 1169.36,1886.57C1169.36,1889.88 1171.15,1891.28 1174.46,1891.28C1179.05,1891.28 1186.82,1885.42 1190.64,1881.85L1193.45,1879.18L1193.7,1878.79Z" style="fill-rule:nonzero;"/>
            <path d="M1245.06,1825.02L1240.6,1825.02L1217.79,1853.05C1214.6,1856.88 1212.43,1859.81 1209.12,1863.12L1193.83,1878.16L1191.79,1880.07C1191.66,1880.19 1191.54,1880.32 1191.54,1880.7L1191.66,1880.83C1191.79,1880.83 1191.92,1880.83 1192.17,1880.58L1209.25,1864.01L1200.58,1874.84C1198.04,1878.03 1194.6,1882.23 1194.6,1886.31C1194.6,1889.24 1197.02,1891.28 1199.95,1891.28C1202.62,1891.28 1206.7,1890.64 1216.39,1881.85L1219.32,1879.18L1219.57,1878.79L1219.32,1878.54L1218.81,1878.67L1216,1881.34C1209.5,1887.46 1203.64,1890.01 1200.71,1890.01C1199.57,1890.01 1198.67,1889.12 1198.67,1887.46C1198.67,1885.42 1204.66,1878.67 1208.36,1873.82L1245.06,1825.02Z" style="fill-rule:nonzero;"/>
            <path d="M1247.86,1878.79L1247.73,1878.54L1247.1,1878.67L1244.29,1881.34C1240.22,1885.29 1233.33,1890.26 1228.75,1890.26C1225.69,1890.26 1223.78,1888.61 1223.78,1886.44C1223.78,1884.78 1225.43,1881.6 1226.58,1880.07L1229.77,1879.18C1236.78,1877.26 1245.31,1872.55 1245.31,1866.94C1245.31,1864.78 1243.66,1863.88 1241.49,1863.88C1237.16,1863.88 1228.24,1869.36 1218.42,1879.18L1216.89,1880.7C1216.77,1880.83 1216.77,1880.96 1216.77,1881.09C1216.77,1881.22 1216.89,1881.34 1217.02,1881.34C1217.15,1881.34 1217.28,1881.34 1217.4,1881.22L1219.57,1879.18C1218.81,1880.7 1218.42,1882.36 1218.42,1883.89C1218.42,1888.1 1222.38,1891.28 1227.47,1891.28C1235.12,1891.28 1241.87,1884.66 1244.8,1881.85L1247.61,1879.18L1247.86,1878.79ZM1244.55,1866.94C1244.55,1872.04 1234.1,1877.9 1227.35,1878.92L1230.66,1874.21C1234.35,1868.98 1239.07,1864.65 1241.87,1864.65C1243.15,1864.65 1244.55,1865.54 1244.55,1866.94Z" style="fill-rule:nonzero;"/>
        </g>
    </g>
</svg>
