<?xml version="1.0" encoding="UTF-8" standalone="no"?>
<!DOCTYPE svg PUBLIC "-//W3C//DTD SVG 1.1//EN" "http://www.w3.org/Graphics/SVG/1.1/DTD/svg11.dtd">
<svg width="391px" height="113px" version="1.1" xmlns="http://www.w3.org/2000/svg" xmlns:xlink="http://www.w3.org/1999/xlink" xml:space="preserve" xmlns:serif="http://www.serif.com/" style="fill-rule:evenodd;clip-rule:evenodd;stroke-linejoin:round;stroke-miterlimit:2;">
    <g transform="matrix(1,0,0,1,-2394.97,-4100.89)">
        <g transform="matrix(0.910286,0,0,0.910286,1570.38,2455.05)">
            <path d="M1038.65,1809.18C1038.65,1809.05 1038.52,1808.93 1038.4,1808.93L1036.9,1809.3C1031.89,1810.55 1025.01,1810.68 1019.62,1810.68C1008.74,1810.68 986.707,1808.05 972.314,1808.05C952.914,1808.05 933.514,1818.31 933.514,1830.7C933.514,1839.09 938.771,1842.09 945.529,1842.09C956.418,1842.09 967.558,1830.08 970.562,1821.07L970.937,1819.94C970.937,1819.82 970.687,1819.57 970.562,1819.57C970.437,1819.57 970.437,1819.69 970.311,1819.82L969.56,1821.69C968.935,1823.32 967.808,1825.07 966.807,1826.57C960.924,1835.34 954.04,1841.09 945.279,1841.09C939.271,1841.09 935.517,1837.96 935.517,1834.21C935.517,1826.07 952.914,1809.05 972.564,1809.05C987.333,1809.05 1005.73,1814.43 1017.25,1814.43C1024.76,1814.43 1032.39,1813.31 1037.02,1810.43L1038.4,1809.55C1038.52,1809.55 1038.65,1809.3 1038.65,1809.18ZM1001.23,1819.19L1001.1,1818.56C993.842,1821.19 982.953,1830.7 973.941,1842.47C967.433,1850.98 952.538,1871.88 948.033,1876.26C940.398,1883.65 933.514,1890.28 921.373,1890.28C911.235,1890.28 906.855,1884.52 906.855,1881.52C906.855,1880.52 906.98,1879.39 907.606,1878.39C908.607,1879.52 909.483,1881.02 911.986,1881.02C914.114,1881.02 915.741,1879.52 915.741,1877.39C915.741,1874.76 913.488,1873.63 911.611,1873.63C907.731,1873.63 905.853,1877.14 905.853,1880.77C905.853,1886.53 912.612,1891.28 921.499,1891.28C928.758,1891.28 936.393,1890.03 948.533,1881.89C957.795,1875.76 967.057,1863.5 971.062,1857.36L978.197,1846.47C983.704,1837.96 987.709,1827.33 1001.23,1819.19Z" style="fill:white;fill-rule:nonzero;"/>
            <path d="M1033.14,1826.2L1028.76,1826.2L1007.61,1853.48C1004.23,1857.86 1000.85,1861.49 997.596,1864.5L982.702,1878.14L980.95,1880.02C980.825,1880.14 980.7,1880.27 980.7,1880.52L980.825,1880.64C980.95,1880.64 981.075,1880.64 981.326,1880.39L998.723,1864.62L978.572,1891.28L984.955,1891.28L991.464,1883.15C997.596,1875.51 1009.86,1865.62 1015.24,1865.62C1016.62,1865.62 1017.87,1866.12 1017.87,1867.5C1017.87,1868.88 1016.5,1870.51 1015.62,1871.63L1010.99,1877.26C1008.99,1879.64 1006.36,1882.9 1006.36,1886.15C1006.36,1889.28 1008.86,1891.28 1010.99,1891.28C1012.74,1891.28 1018.75,1888.53 1025.63,1882.02L1028.39,1879.39L1028.64,1879.02L1028.51,1878.77L1027.88,1878.89L1025.13,1881.52C1019.12,1887.15 1013.62,1890.03 1011.74,1890.03C1011.36,1890.03 1010.36,1889.53 1010.36,1888.15C1010.36,1887.15 1011.87,1885.15 1012.99,1883.65L1018.5,1876.76C1020.5,1874.26 1021.88,1872.63 1021.88,1870.01C1021.88,1866.5 1019.38,1864.37 1016.37,1864.37C1008.49,1864.37 999.849,1873.51 995.719,1877.01L1033.14,1826.2Z" style="fill:white;fill-rule:nonzero;"/>
            <path d="M1068.44,1878.52L1068.19,1878.27C1068.06,1878.27 1068.06,1878.27 1067.69,1878.52L1063.81,1882.14C1060.8,1884.9 1055.55,1889.78 1052.54,1889.78C1051.54,1889.78 1050.79,1889.03 1050.79,1888.4C1050.79,1887.03 1052.29,1884.9 1053.92,1882.52L1065.81,1865L1060.93,1865L1056.17,1870.76L1056.17,1868.38C1056.17,1866.62 1054.04,1864.37 1051.16,1864.37C1046.53,1864.37 1038.02,1869.38 1033.39,1873.88L1026.26,1880.89L1026.13,1881.27L1026.38,1881.39L1026.63,1881.27L1028.39,1879.77C1027.76,1881.52 1027.13,1884.02 1027.13,1885.53C1027.13,1889.15 1029.26,1891.28 1033.27,1891.28C1035.52,1891.28 1039.53,1889.4 1043.03,1886.53L1047.16,1883.02C1046.91,1884.15 1046.53,1885.53 1046.53,1886.53C1046.53,1888.78 1048.04,1891.28 1051.04,1891.28C1054.92,1891.28 1060.8,1886.28 1064.43,1882.65L1068.19,1878.89C1068.31,1878.77 1068.44,1878.64 1068.44,1878.52ZM1055.42,1868.75C1055.42,1873.63 1040.4,1890.28 1034.27,1890.28C1032.64,1890.28 1031.39,1889.4 1031.39,1887.78C1031.39,1883.52 1044.78,1865.37 1051.42,1865.37C1053.29,1865.37 1055.42,1866.75 1055.42,1868.75Z" style="fill:white;fill-rule:nonzero;"/>
            <path d="M1123.13,1879.39L1122.88,1879.14C1122.76,1879.14 1122.76,1879.14 1122.38,1879.39L1117.75,1883.77C1112.75,1888.4 1108.74,1890.03 1105.74,1890.03C1104.23,1890.03 1102.48,1889.53 1102.48,1888.03C1102.48,1886.28 1103.36,1884.4 1104.61,1883.15L1110.24,1877.14C1112.12,1875.14 1113.87,1872.13 1113.87,1869.38C1113.87,1866.5 1111.37,1864.37 1108.24,1864.37C1101.61,1864.37 1093.09,1872.01 1089.34,1875.76C1090.47,1873.76 1091.34,1872.01 1091.34,1870.01C1091.34,1866.12 1089.59,1864.37 1085.84,1864.37C1081.58,1864.37 1077.32,1869.25 1073.32,1873.26L1066.68,1879.89C1066.56,1880.02 1066.43,1880.27 1066.43,1880.39C1066.43,1880.39 1066.56,1880.64 1066.68,1880.64C1066.81,1880.64 1066.81,1880.64 1067.19,1880.39L1073.44,1874.26C1078.45,1869.25 1081.95,1865.62 1085.59,1865.62C1086.59,1865.62 1087.21,1866.5 1087.21,1868C1087.21,1869.5 1084.33,1873.51 1081.95,1876.64L1070.57,1891.28L1076.95,1891.28L1083.83,1883.52C1089.71,1877.01 1100.48,1865.62 1107.24,1865.62C1108.49,1865.62 1109.74,1866.12 1109.74,1867.5C1109.74,1868.88 1108.61,1870.51 1107.74,1871.63L1102.61,1877.77C1100.73,1880.02 1098.48,1882.65 1098.48,1885.15C1098.48,1889.28 1101.11,1891.28 1104.99,1891.28C1108.87,1891.28 1113.37,1889.03 1117.88,1884.65L1122.88,1879.77C1123.01,1879.64 1123.13,1879.52 1123.13,1879.39Z" style="fill:white;fill-rule:nonzero;"/>
            <path d="M1174.57,1826.2L1170.19,1826.2L1148.42,1853.48C1145.16,1857.49 1141.53,1860.62 1138.28,1863.87L1123.51,1878.64L1121.76,1880.52C1121.63,1880.64 1121.51,1880.77 1121.51,1881.02L1121.63,1881.14C1121.76,1881.14 1121.88,1881.14 1122.13,1880.89L1143.41,1860.24L1119.25,1891.28L1125.64,1891.28L1134.15,1880.14C1136.78,1876.64 1141.78,1872.63 1146.66,1872.63C1147.91,1872.63 1149.54,1873.38 1149.54,1874.64C1149.54,1875.64 1148.92,1876.51 1148.29,1877.39L1145.41,1881.39C1144.41,1882.9 1143.91,1884.27 1143.91,1886.15C1143.91,1889.28 1147.41,1891.28 1150.17,1891.28C1153.55,1891.28 1159.93,1888.28 1166.81,1882.02L1169.69,1879.39L1169.94,1879.02L1169.82,1878.77L1169.19,1878.89L1166.44,1881.52C1159.43,1888.15 1152.92,1890.03 1150.54,1890.03C1149.79,1890.03 1147.91,1889.53 1147.91,1888.15C1147.91,1887.15 1148.29,1886.15 1149.54,1884.65L1152.05,1881.39C1152.92,1880.14 1153.67,1878.39 1153.67,1877.01C1153.67,1874.01 1151.29,1871.38 1148.04,1871.38C1146.41,1871.38 1145.41,1871.51 1142.66,1872.51C1146.29,1869.75 1152.92,1865.25 1158.3,1865.25C1159.05,1865.25 1159.81,1865.5 1160.43,1865.87C1160.06,1866.25 1159.18,1867.38 1159.18,1868.38C1159.18,1870.01 1160.56,1871.38 1162.18,1871.38C1163.56,1871.38 1164.94,1870.51 1164.94,1869C1164.94,1865.5 1162.31,1864.37 1159.56,1864.37C1151.55,1864.37 1145.04,1869.5 1138.9,1873.88L1174.57,1826.2Z" style="fill:white;fill-rule:nonzero;"/>
            <path d="M1255.68,1879.02L1255.55,1878.77L1254.93,1878.89L1252.17,1881.52C1245.79,1887.53 1238.16,1890.91 1232.77,1891.53L1252.3,1865.25L1246.79,1865.25L1239.91,1873.01C1232.77,1881.02 1222.76,1890.16 1216.88,1890.16C1215.5,1890.16 1214.63,1888.9 1214.63,1887.78C1214.63,1886.53 1216.38,1883.9 1217.51,1882.52L1222.51,1876.26C1224.01,1874.26 1225.27,1872.13 1225.27,1869.5C1225.27,1866.38 1222.39,1864.37 1219.13,1864.37C1214.5,1864.37 1209.75,1869 1205.36,1873.38L1197.73,1880.89C1197.6,1881.02 1197.48,1881.27 1197.48,1881.39C1197.48,1881.39 1197.6,1881.64 1197.73,1881.64C1197.85,1881.64 1197.85,1881.64 1198.23,1881.39L1205.49,1874.38C1211,1869.13 1214.63,1865.62 1218.51,1865.62C1220.01,1865.62 1220.76,1866.62 1220.76,1867.88C1220.76,1869.63 1219.26,1871.01 1218.26,1872.38L1213.5,1878.39C1211.87,1880.39 1210.12,1882.77 1210.12,1885.4C1210.12,1889.28 1212.5,1891.28 1216.25,1891.28C1222.39,1891.28 1230.9,1883.27 1233.53,1881.14L1224.51,1894.16C1205.87,1901.17 1184.84,1916.82 1184.84,1926.7C1184.84,1929.96 1187.34,1931.33 1189.97,1931.33C1195.85,1931.33 1203.74,1926.58 1213.5,1916.19C1219.76,1909.68 1230.52,1894.41 1231.77,1892.66C1237.78,1891.66 1245.67,1888.65 1252.67,1882.02L1255.43,1879.39L1255.68,1879.02ZM1223.39,1895.66C1211.25,1912.81 1198.11,1930.33 1190.22,1930.33C1187.34,1930.33 1185.84,1928.83 1185.84,1926.7C1185.84,1915.69 1211,1899.67 1223.39,1895.66Z" style="fill:white;fill-rule:nonzero;"/>
            <path d="M1288.1,1879.02L1287.85,1878.77L1287.34,1878.89L1284.59,1881.52C1282.84,1883.15 1280.96,1884.9 1278.46,1884.9C1277.33,1884.9 1276.08,1884.27 1275.2,1883.77C1277.58,1881.27 1284.59,1874.51 1284.59,1869.13C1284.59,1867.25 1283.09,1864.37 1279.84,1864.37C1270.95,1864.37 1261.31,1873.38 1255.68,1878.52L1252.3,1881.64C1252.17,1881.77 1251.92,1882.02 1251.92,1882.14C1251.92,1882.27 1251.92,1882.4 1252.17,1882.4C1252.3,1882.4 1252.42,1882.4 1252.67,1882.27L1256.05,1879.27C1255.3,1880.77 1254.93,1883.02 1254.93,1884.52C1254.93,1888.78 1257.68,1891.28 1261.31,1891.28C1266.57,1891.28 1270.57,1887.53 1274.58,1884.52C1275.83,1885.15 1277.08,1885.9 1278.33,1885.9C1280.96,1885.9 1283.09,1883.77 1284.97,1882.02L1288.1,1879.02ZM1283.59,1869.25C1283.59,1876.14 1268.82,1890.28 1262.94,1890.28C1260.43,1890.28 1259.43,1889.28 1259.43,1887.28C1259.43,1883.4 1271.82,1865.37 1279.58,1865.37C1281.71,1865.37 1283.59,1867 1283.59,1869.25Z" style="fill:white;fill-rule:nonzero;"/>
            <path d="M1334.4,1879.02L1334.28,1878.77L1333.65,1878.89L1330.9,1881.52C1326.64,1885.53 1319.13,1890.03 1316.26,1890.03C1314.88,1890.03 1314.13,1889.65 1314.13,1888.53C1314.13,1887.28 1315.76,1885.15 1319.01,1880.77L1330.28,1865.62L1324.14,1865.62C1321.64,1868.5 1318.88,1871.76 1316.63,1874.51C1312,1880.02 1302.11,1890.03 1295.1,1890.03C1293.1,1890.03 1292.1,1889.15 1292.1,1887.53C1292.1,1886.28 1293.73,1884.27 1296.36,1880.77L1308.12,1865.62L1301.99,1865.62C1299.24,1868.38 1296.73,1870.63 1293.85,1873.26L1285.59,1881.02C1285.47,1881.14 1285.34,1881.27 1285.34,1881.52L1285.47,1881.64C1285.59,1881.64 1285.72,1881.64 1285.97,1881.39L1290.97,1877.01C1289.72,1880.14 1288.35,1883.02 1288.35,1885.9C1288.35,1889.9 1291.85,1891.28 1294.6,1891.28C1299.86,1891.28 1305.12,1886.78 1310.62,1882.52C1310.5,1883.77 1310.25,1885.02 1310.25,1886.28C1310.25,1889.78 1312,1891.28 1315.26,1891.28C1319.89,1891.28 1327.77,1885.4 1331.4,1882.02L1334.15,1879.39L1334.4,1879.02Z" style="fill:white;fill-rule:nonzero;"/>
        </g>
    </g>
</svg>
