<?xml version="1.0" encoding="UTF-8" standalone="no"?>
<!DOCTYPE svg PUBLIC "-//W3C//DTD SVG 1.1//EN" "http://www.w3.org/Graphics/SVG/1.1/DTD/svg11.dtd">
<svg width="965px" height="349px" version="1.1" xmlns="http://www.w3.org/2000/svg" xmlns:xlink="http://www.w3.org/1999/xlink" xml:space="preserve" xmlns:serif="http://www.serif.com/" style="fill-rule:evenodd;clip-rule:evenodd;stroke-linejoin:round;stroke-miterlimit:2;">
    <g transform="matrix(1,0,0,1,-9445.86,-16194.9)">
        <g transform="matrix(4.68381,-0.825882,5.21703e-16,4.67576,6075.6,18021.4)">
            <path d="M810.317,-209.079C808.548,-209.473 806.763,-209.729 804.974,-209.851C804.824,-209.864 804.671,-209.877 804.513,-209.888C803.725,-209.944 802.825,-209.982 801.829,-209.975C801.704,-209.974 801.578,-209.975 801.451,-209.972C801.324,-209.969 801.195,-209.965 801.065,-209.961C800.934,-209.957 800.803,-209.953 800.669,-209.949C800.537,-209.943 800.402,-209.936 800.266,-209.929C799.8,-209.909 799.315,-209.868 798.819,-209.817C798.767,-210.311 798.711,-210.797 798.652,-211.275C798.568,-211.962 798.408,-212.291 798.296,-212.276C798.182,-212.262 798.116,-211.906 798.191,-211.221C798.245,-210.744 798.297,-210.258 798.347,-209.765C797.25,-209.639 796.09,-209.466 794.878,-209.253C793.583,-209.022 792.228,-208.748 790.837,-208.388C790.142,-208.206 789.438,-208.005 788.734,-207.745C788.382,-207.614 788.03,-207.471 787.683,-207.278C787.511,-207.178 787.338,-207.072 787.175,-206.907C787.096,-206.822 787.011,-206.72 786.969,-206.562C786.949,-206.484 786.946,-206.392 786.967,-206.309C786.986,-206.225 787.025,-206.154 787.068,-206.096C787.155,-205.981 787.252,-205.912 787.346,-205.851C787.441,-205.792 787.536,-205.746 787.63,-205.706L787.701,-205.677L787.763,-205.649L787.888,-205.595C787.971,-205.558 788.056,-205.527 788.136,-205.484C788.298,-205.401 788.463,-205.326 788.619,-205.233C788.698,-205.189 788.777,-205.144 788.855,-205.1C788.933,-205.054 789.009,-205.004 789.086,-204.957C789.698,-204.573 790.268,-204.138 790.801,-203.679C791.87,-202.76 792.791,-201.744 793.594,-200.722C793.697,-200.596 793.792,-200.465 793.888,-200.336C793.984,-200.207 794.082,-200.081 794.173,-199.952C794.354,-199.691 794.54,-199.439 794.706,-199.179C794.791,-199.05 794.875,-198.923 794.959,-198.796C795.039,-198.666 795.118,-198.538 795.197,-198.411C795.357,-198.158 795.502,-197.901 795.647,-197.65C796.221,-196.643 796.688,-195.665 797.067,-194.753C797.114,-194.639 797.165,-194.528 797.208,-194.415C797.251,-194.303 797.294,-194.192 797.336,-194.082C797.421,-193.863 797.505,-193.65 797.576,-193.438C797.648,-193.228 797.722,-193.024 797.788,-192.825C797.851,-192.625 797.912,-192.431 797.971,-192.244C797.999,-192.15 798.031,-192.058 798.056,-191.967C798.081,-191.875 798.106,-191.786 798.13,-191.697C798.145,-191.642 798.16,-191.588 798.175,-191.534C798.566,-190.002 798.846,-188.321 798.949,-186.499C798.951,-186.463 798.98,-186.436 799.015,-186.435L799.016,-186.435C799.051,-186.435 799.08,-186.463 799.083,-186.498C799.283,-189.351 799.388,-192.248 799.395,-195.108C799.397,-196.157 799.385,-197.209 799.361,-198.262C799.362,-198.361 799.364,-198.463 799.365,-198.568C799.365,-199.034 799.369,-199.565 799.362,-200.152C799.342,-202.498 799.228,-205.743 798.872,-209.31C798.865,-209.373 798.859,-209.436 798.852,-209.499C799.344,-209.562 799.821,-209.615 800.285,-209.647C800.42,-209.657 800.553,-209.668 800.684,-209.678C800.816,-209.686 800.947,-209.694 801.076,-209.701C801.205,-209.709 801.333,-209.716 801.459,-209.723C801.586,-209.728 801.711,-209.732 801.834,-209.737C802.822,-209.773 803.718,-209.765 804.505,-209.738C804.663,-209.732 804.816,-209.725 804.966,-209.717C806.748,-209.596 808.526,-209.34 810.288,-208.949C810.324,-208.941 810.36,-208.963 810.368,-208.999C810.376,-209.036 810.353,-209.071 810.317,-209.079L810.317,-209.079ZM799.012,-187.458C798.863,-189.08 798.575,-190.583 798.201,-191.962C798.197,-191.976 798.194,-191.989 798.191,-192.004C798.169,-192.097 798.141,-192.19 798.115,-192.285C798.063,-192.476 798.008,-192.673 797.952,-192.877C797.892,-193.079 797.825,-193.286 797.759,-193.501C797.695,-193.716 797.617,-193.933 797.538,-194.157C797.499,-194.268 797.46,-194.382 797.419,-194.496C797.38,-194.612 797.332,-194.725 797.288,-194.842C796.933,-195.773 796.488,-196.773 795.932,-197.808C795.791,-198.065 795.65,-198.329 795.493,-198.589C795.416,-198.719 795.339,-198.851 795.26,-198.984C795.178,-199.114 795.096,-199.246 795.012,-199.378C794.849,-199.646 794.665,-199.905 794.487,-200.173C794.396,-200.307 794.299,-200.436 794.204,-200.569C794.109,-200.702 794.015,-200.837 793.912,-200.966C793.113,-202.02 792.189,-203.069 791.1,-204.022C790.556,-204.499 789.972,-204.952 789.336,-205.355C789.256,-205.405 789.177,-205.456 789.096,-205.505C789.014,-205.552 788.932,-205.599 788.849,-205.646C788.686,-205.743 788.512,-205.824 788.341,-205.912C788.256,-205.957 788.165,-205.991 788.077,-206.031L787.944,-206.089L787.877,-206.118L787.818,-206.143C787.739,-206.176 787.664,-206.214 787.598,-206.254C787.534,-206.295 787.477,-206.341 787.451,-206.378C787.437,-206.397 787.432,-206.411 787.43,-206.419C787.428,-206.427 787.427,-206.433 787.431,-206.447C787.435,-206.473 787.469,-206.527 787.518,-206.578C787.619,-206.682 787.766,-206.779 787.917,-206.865C788.223,-207.037 788.561,-207.177 788.898,-207.305C789.577,-207.558 790.27,-207.762 790.954,-207.948C792.325,-208.316 793.668,-208.607 794.951,-208.858C796.15,-209.091 797.297,-209.285 798.381,-209.436C798.387,-209.378 798.393,-209.321 798.398,-209.263C798.754,-205.71 798.985,-202.483 799.124,-200.144C799.162,-199.559 799.187,-199.03 799.215,-198.565C799.218,-198.495 799.222,-198.428 799.225,-198.361C799.251,-197.275 799.263,-196.191 799.261,-195.108C799.255,-192.568 799.171,-189.999 799.012,-187.458Z" style="fill:rgb(54,41,19);"/>
            <path d="M803.432,-196.796C803.25,-196.831 803.048,-196.779 802.842,-196.648C802.749,-196.607 802.645,-196.549 802.536,-196.467C802.356,-196.332 802.167,-196.136 802.005,-195.884C801.846,-195.631 801.71,-195.321 801.662,-194.965C801.615,-194.609 801.665,-194.273 801.754,-193.988C801.844,-193.702 801.977,-193.464 802.115,-193.287C802.199,-193.179 802.286,-193.095 802.365,-193.033C802.529,-192.854 802.712,-192.752 802.896,-192.738C802.911,-192.737 802.925,-192.736 802.939,-192.736C803.561,-192.736 804.169,-193.73 804.286,-194.618C804.406,-195.527 804.059,-196.677 803.432,-196.796ZM804.153,-194.636C804.043,-193.803 803.462,-192.83 802.906,-192.872C802.756,-192.883 802.604,-192.97 802.463,-193.124C802.414,-193.201 802.365,-193.296 802.32,-193.408C802.246,-193.593 802.182,-193.823 802.145,-194.08C802.108,-194.336 802.095,-194.62 802.133,-194.902C802.171,-195.185 802.257,-195.456 802.359,-195.694C802.462,-195.932 802.582,-196.138 802.703,-196.298C802.775,-196.394 802.848,-196.474 802.915,-196.536C803.057,-196.626 803.194,-196.673 803.319,-196.673C803.349,-196.673 803.378,-196.67 803.407,-196.665C803.955,-196.56 804.263,-195.469 804.153,-194.636Z" style="fill:rgb(54,41,19);"/>
            <path d="M813.285,-195.677C813.263,-195.707 813.221,-195.714 813.191,-195.692C812.997,-195.55 812.753,-195.38 812.47,-195.182C811.699,-194.642 810.677,-193.926 809.577,-193.053C809.515,-193.204 809.45,-193.351 809.38,-193.49C809.254,-193.742 809.114,-193.974 808.949,-194.176C808.866,-194.276 808.777,-194.369 808.676,-194.448C808.574,-194.525 808.46,-194.59 808.331,-194.615C808.202,-194.641 808.072,-194.616 807.97,-194.572C807.867,-194.529 807.781,-194.472 807.703,-194.415C807.664,-194.386 807.627,-194.357 807.592,-194.328C807.521,-194.275 807.449,-194.218 807.376,-194.16C807.014,-193.87 806.639,-193.571 806.218,-193.704C805.889,-193.809 805.723,-194.112 805.667,-194.237C805.402,-194.829 805.743,-195.686 806.198,-196.274C806.613,-196.809 807.109,-197.117 807.461,-197.057C807.758,-197.006 808.032,-196.674 808.252,-196.097C808.265,-196.063 808.304,-196.046 808.338,-196.059C808.373,-196.072 808.39,-196.111 808.377,-196.145C808.136,-196.778 807.835,-197.129 807.484,-197.189C807.077,-197.258 806.544,-196.939 806.092,-196.356C805.612,-195.737 805.257,-194.825 805.545,-194.182C805.609,-194.04 805.797,-193.698 806.178,-193.577C806.667,-193.421 807.088,-193.758 807.46,-194.055C807.528,-194.11 807.596,-194.164 807.662,-194.214C807.702,-194.241 807.743,-194.267 807.785,-194.293C807.936,-194.384 808.121,-194.47 808.286,-194.42C808.455,-194.37 808.613,-194.208 808.744,-194.019C808.877,-193.829 808.99,-193.603 809.092,-193.358C809.162,-193.188 809.226,-193.007 809.285,-192.819C808.185,-191.93 807.023,-190.891 805.962,-189.715C803.24,-186.699 802.049,-183.713 802.422,-180.841C802.491,-180.304 802.642,-179.146 803.097,-178.389C803.111,-178.363 803.125,-178.337 803.141,-178.31C803.239,-178.145 803.367,-177.971 803.558,-177.829C803.654,-177.759 803.766,-177.7 803.89,-177.662C804.015,-177.624 804.15,-177.61 804.285,-177.616C804.557,-177.629 804.828,-177.72 805.086,-177.847C805.601,-178.106 806.081,-178.507 806.539,-178.978C806.996,-179.452 807.43,-180.005 807.838,-180.617C808.246,-181.23 808.626,-181.904 808.966,-182.629C809.304,-183.354 809.603,-184.131 809.835,-184.951C810.067,-185.77 810.217,-186.595 810.289,-187.394C810.362,-188.194 810.362,-188.971 810.307,-189.705C810.251,-190.439 810.141,-191.131 809.986,-191.768C809.885,-192.178 809.767,-192.565 809.628,-192.923C810.738,-193.805 811.77,-194.528 812.547,-195.072C812.83,-195.27 813.074,-195.441 813.27,-195.584C813.3,-195.606 813.306,-195.648 813.285,-195.677L813.285,-195.677ZM809.773,-189.675C809.821,-188.258 809.674,-186.693 809.224,-185.124C809.002,-184.338 808.724,-183.587 808.413,-182.88C808.101,-182.174 807.756,-181.511 807.387,-180.905C807.018,-180.299 806.628,-179.747 806.219,-179.271C805.81,-178.797 805.381,-178.392 804.935,-178.126C804.713,-177.995 804.484,-177.902 804.264,-177.874C804.155,-177.86 804.048,-177.863 803.948,-177.884C803.848,-177.906 803.755,-177.945 803.67,-177.995C803.501,-178.099 803.369,-178.245 803.264,-178.391C803.241,-178.423 803.219,-178.456 803.197,-178.489C802.766,-179.234 802.616,-180.385 802.555,-180.859C802.187,-183.69 803.367,-186.64 806.061,-189.625C807.103,-190.78 808.244,-191.803 809.326,-192.681C809.419,-192.366 809.497,-192.03 809.562,-191.677C809.676,-191.057 809.748,-190.384 809.773,-189.675L809.773,-189.675Z" style="fill:rgb(54,41,19);"/>
            <path d="M827.633,-200.179C827.63,-200.227 827.622,-200.327 826.698,-200.387C826.683,-200.389 826.669,-200.392 826.653,-200.394C826.369,-200.434 825.956,-200.479 825.445,-200.516C824.422,-200.588 823.008,-200.638 821.445,-200.565C820.883,-200.538 820.341,-200.497 819.831,-200.446C819.93,-201.203 820.045,-201.979 820.179,-202.769C820.299,-203.467 820.423,-204.151 820.56,-204.816C820.705,-205.531 820.679,-205.911 820.567,-205.937C820.472,-205.959 820.314,-205.716 820.173,-205.19C820.094,-204.989 819.985,-204.703 819.829,-204.295C819.433,-203.254 818.874,-201.788 818.242,-200.25C817.965,-200.209 817.706,-200.167 817.469,-200.126C816.965,-200.039 816.558,-199.957 816.278,-199.898C816.263,-199.895 816.25,-199.892 816.235,-199.888C815.924,-199.847 815.613,-199.804 815.302,-199.758C815.284,-199.755 815.271,-199.738 815.274,-199.72C815.276,-199.703 815.291,-199.691 815.307,-199.691C815.308,-199.691 815.31,-199.692 815.312,-199.692C815.622,-199.738 815.933,-199.781 816.244,-199.822C816.259,-199.823 816.272,-199.823 816.288,-199.824C816.574,-199.84 816.987,-199.862 817.496,-199.89C817.687,-199.9 817.891,-199.911 818.107,-199.923C817.738,-199.032 817.348,-198.126 816.952,-197.272C815.256,-193.607 814.422,-192.973 814.022,-193.087C813.922,-193.115 813.775,-193.295 813.642,-193.555C813.63,-193.593 813.618,-193.633 813.607,-193.675C813.561,-193.848 813.526,-194.058 813.509,-194.291C813.502,-194.383 813.498,-194.479 813.495,-194.577C814.307,-194.94 815.086,-195.631 815.042,-196.228C815.015,-196.588 814.672,-196.951 814.348,-196.96C814.184,-196.965 814.021,-196.874 813.871,-196.72C813.796,-196.667 813.712,-196.595 813.629,-196.501C813.495,-196.352 813.362,-196.152 813.253,-195.912C813.144,-195.672 813.056,-195.391 813.032,-195.078C813.007,-194.767 813.047,-194.477 813.113,-194.221C813.18,-193.965 813.281,-193.746 813.39,-193.577C813.477,-193.441 813.571,-193.342 813.65,-193.273C813.761,-193.105 813.879,-192.988 813.986,-192.958C814.025,-192.947 814.064,-192.941 814.105,-192.941C815.098,-192.942 816.682,-196.142 818.25,-199.93C818.581,-199.948 818.938,-199.966 819.315,-199.985C819.226,-199.131 819.165,-198.303 819.128,-197.513C819.088,-196.688 819.087,-195.903 819.096,-195.17C819.101,-194.986 819.107,-194.806 819.113,-194.629C819.115,-194.54 819.118,-194.453 819.121,-194.366C819.125,-194.279 819.13,-194.193 819.134,-194.108C819.15,-193.768 819.172,-193.443 819.195,-193.132C819.224,-192.742 819.258,-192.376 819.292,-192.036C819.394,-190.623 819.575,-189.212 819.834,-187.818C819.84,-187.786 819.868,-187.764 819.9,-187.764C819.904,-187.764 819.908,-187.764 819.912,-187.765C819.949,-187.772 819.973,-187.807 819.966,-187.843C819.811,-188.677 819.684,-189.517 819.585,-190.361C819.529,-191.045 819.464,-191.992 819.433,-193.144C819.424,-193.454 819.418,-193.779 819.416,-194.117C819.415,-194.201 819.415,-194.287 819.414,-194.373C819.415,-194.459 819.416,-194.546 819.417,-194.634C819.418,-194.809 819.419,-194.988 819.421,-195.17C819.44,-195.897 819.467,-196.674 819.529,-197.489C819.588,-198.294 819.669,-199.137 819.774,-200.008C820.309,-200.034 820.878,-200.062 821.468,-200.09C823.018,-200.163 824.422,-200.229 825.441,-200.278C825.951,-200.3 826.363,-200.315 826.649,-200.319C826.666,-200.32 826.681,-200.32 826.698,-200.32C827.23,-200.287 827.55,-200.237 827.566,-200.174C827.564,-200.156 827.504,-200.056 826.505,-199.864C826.486,-199.86 826.475,-199.843 826.478,-199.825C826.481,-199.807 826.499,-199.795 826.517,-199.798C827.508,-199.989 827.639,-200.094 827.633,-200.179L827.633,-200.179ZM813.506,-195.041C813.525,-195.299 813.574,-195.551 813.631,-195.778C813.688,-196.004 813.756,-196.207 813.828,-196.371C813.875,-196.478 813.924,-196.568 813.972,-196.64C814.089,-196.757 814.213,-196.827 814.335,-196.827C814.338,-196.827 814.341,-196.827 814.344,-196.827C814.578,-196.82 814.885,-196.538 814.909,-196.218C814.943,-195.751 814.315,-195.103 813.494,-194.723C813.495,-194.828 813.498,-194.934 813.506,-195.041ZM819.71,-202.849C819.569,-202.014 819.454,-201.195 819.361,-200.396C819.019,-200.357 818.694,-200.315 818.39,-200.271C818.924,-201.572 819.453,-202.932 819.954,-204.247C819.964,-204.272 819.974,-204.298 819.983,-204.323C819.886,-203.84 819.796,-203.348 819.71,-202.849Z" style="fill:rgb(54,41,19);"/>
            <path d="M831.756,-195.694C831.725,-195.714 831.684,-195.706 831.664,-195.675C829.161,-191.819 827.587,-190.183 826.709,-190.524C826.571,-190.577 826.462,-190.688 826.373,-190.841C826.34,-190.952 826.311,-191.097 826.295,-191.273C826.251,-191.706 826.274,-192.312 826.237,-192.997C826.2,-193.681 826.094,-194.318 825.929,-194.768C825.864,-194.949 825.789,-195.097 825.718,-195.203C825.63,-195.42 825.509,-195.565 825.335,-195.611C824.728,-195.774 823.787,-194.564 822.462,-191.915C822.331,-192.72 822.239,-193.536 822.189,-194.352C822.178,-194.784 822.176,-195.293 822.193,-195.867C822.247,-197.797 822.542,-200.464 823.297,-203.305C823.676,-204.723 824.131,-206.05 824.67,-207.196C824.94,-207.768 825.232,-208.294 825.555,-208.748C825.716,-208.975 825.885,-209.183 826.067,-209.362C826.156,-209.453 826.25,-209.532 826.345,-209.607C826.441,-209.679 826.539,-209.742 826.64,-209.793C826.741,-209.842 826.843,-209.88 826.945,-209.902C827.048,-209.921 827.15,-209.924 827.248,-209.914C827.445,-209.887 827.624,-209.803 827.776,-209.698C827.84,-209.653 827.898,-209.605 827.953,-209.557C828.725,-208.821 829.18,-207.321 829.186,-207.301C830.249,-203.723 827.623,-199.178 822.651,-195.991C822.62,-195.971 822.611,-195.93 822.631,-195.899C822.65,-195.868 822.692,-195.859 822.723,-195.879C827.746,-199.098 830.395,-203.704 829.314,-207.34C829.289,-207.423 828.827,-208.947 828.009,-209.689C827.964,-209.733 827.917,-209.776 827.866,-209.819C827.71,-209.944 827.515,-210.057 827.279,-210.105C827.161,-210.126 827.036,-210.13 826.91,-210.114C826.785,-210.096 826.661,-210.059 826.54,-210.009C826.421,-209.958 826.306,-209.893 826.194,-209.819C826.084,-209.742 825.975,-209.66 825.874,-209.568C825.667,-209.385 825.476,-209.173 825.295,-208.944C824.933,-208.484 824.608,-207.952 824.31,-207.374C823.715,-206.215 823.223,-204.87 822.837,-203.427C822.454,-201.983 822.216,-200.577 822.083,-199.292C821.95,-198.007 821.924,-196.842 821.955,-195.867C821.974,-195.275 822.012,-194.754 822.056,-194.315C822.112,-193.44 822.213,-192.564 822.361,-191.702C822.366,-191.669 822.395,-191.646 822.427,-191.646C822.43,-191.646 822.434,-191.646 822.438,-191.647C822.456,-191.65 822.471,-191.66 822.48,-191.673C822.49,-191.68 822.498,-191.687 822.503,-191.698C824.142,-195.006 824.929,-195.582 825.3,-195.482C825.426,-195.448 825.52,-195.331 825.59,-195.155C825.608,-195.04 825.617,-194.89 825.617,-194.711C825.619,-194.27 825.567,-193.656 825.604,-192.962C825.641,-192.269 825.779,-191.623 825.99,-191.185C826.074,-191.007 826.17,-190.868 826.256,-190.773C826.36,-190.595 826.491,-190.465 826.66,-190.399C826.75,-190.364 826.85,-190.341 826.965,-190.341C827.673,-190.341 828.932,-191.221 831.776,-195.602C831.796,-195.633 831.787,-195.674 831.756,-195.694L831.756,-195.694Z" style="fill:rgb(54,41,19);"/>
            <path d="M836.688,-195.692C836.659,-195.714 836.617,-195.708 836.595,-195.678C834.98,-193.521 833.501,-192.575 832.536,-193.082C832.4,-193.153 832.287,-193.267 832.193,-193.405C832.161,-193.48 832.128,-193.57 832.101,-193.675C832.055,-193.848 832.02,-194.058 832.003,-194.291C831.994,-194.412 831.988,-194.54 831.987,-194.672C832.77,-195.062 833.598,-195.622 833.543,-196.229C833.51,-196.594 833.173,-196.95 832.849,-196.961C832.683,-196.966 832.518,-196.875 832.367,-196.722C832.291,-196.669 832.207,-196.595 832.123,-196.501C831.989,-196.352 831.856,-196.152 831.747,-195.912C831.638,-195.672 831.55,-195.391 831.526,-195.078C831.501,-194.767 831.541,-194.477 831.607,-194.221C831.674,-193.965 831.775,-193.746 831.884,-193.577C831.947,-193.479 832.014,-193.4 832.076,-193.337C832.183,-193.178 832.314,-193.047 832.474,-192.963C832.662,-192.864 832.867,-192.816 833.087,-192.816C834.071,-192.816 835.347,-193.788 836.702,-195.598C836.724,-195.628 836.718,-195.67 836.688,-195.692L836.688,-195.692ZM832,-195.041C832.019,-195.299 832.068,-195.551 832.125,-195.778C832.182,-196.004 832.25,-196.207 832.322,-196.371C832.364,-196.468 832.409,-196.55 832.452,-196.618C832.575,-196.748 832.707,-196.827 832.835,-196.827C832.839,-196.827 832.842,-196.827 832.845,-196.827C833.098,-196.818 833.383,-196.511 833.41,-196.217C833.448,-195.799 832.945,-195.309 831.989,-194.823C831.991,-194.895 831.994,-194.968 832,-195.041L832,-195.041Z" style="fill:rgb(54,41,19);"/>
            <path d="M839.994,-195.688C839.964,-195.71 839.922,-195.704 839.9,-195.674C839.289,-194.85 838.791,-194.478 838.421,-194.57C838.19,-194.627 838.059,-194.855 837.943,-195.056C837.837,-195.24 837.746,-195.399 837.591,-195.399L837.59,-195.399C837.363,-195.399 837.058,-195.087 836.675,-192.852C836.678,-192.884 836.682,-192.915 836.685,-192.948C836.739,-193.491 836.83,-194.236 836.924,-195.054C836.942,-195.207 836.96,-195.357 836.977,-195.504C836.997,-195.66 836.899,-195.757 836.787,-195.777C836.674,-195.797 836.547,-195.735 836.519,-195.572C836.492,-195.422 836.47,-195.267 836.452,-195.109C836.354,-194.267 836.383,-193.498 836.447,-192.946C836.466,-192.778 836.488,-192.63 836.51,-192.506C836.516,-192.334 836.526,-192.163 836.539,-191.992C836.538,-191.987 836.537,-191.983 836.537,-191.978C836.535,-191.965 836.538,-191.953 836.542,-191.942C836.547,-191.883 836.55,-191.824 836.555,-191.766C836.559,-191.731 836.588,-191.705 836.622,-191.705C836.624,-191.705 836.626,-191.705 836.628,-191.705C836.665,-191.708 836.692,-191.741 836.689,-191.778C836.683,-191.847 836.678,-191.917 836.673,-191.987C837.113,-194.945 837.461,-195.265 837.59,-195.265L837.591,-195.265C837.668,-195.265 837.745,-195.131 837.827,-194.99C837.95,-194.776 838.103,-194.51 838.389,-194.44C838.823,-194.332 839.352,-194.71 840.007,-195.594C840.029,-195.624 840.023,-195.666 839.994,-195.688Z" style="fill:rgb(54,41,19);"/>
            <path d="M856.288,-195.683C856.263,-195.71 856.221,-195.713 856.193,-195.688C855.861,-195.389 855.38,-195.316 854.995,-195.506C854.479,-195.762 854.417,-196.344 854.415,-196.369C854.412,-196.402 854.386,-196.427 854.353,-196.43C854.321,-196.432 854.291,-196.411 854.283,-196.379C853.379,-192.794 852.988,-192.446 852.861,-192.463C852.803,-192.471 852.755,-192.563 852.714,-192.704C852.713,-192.768 852.713,-192.842 852.715,-192.927C852.721,-193.201 852.74,-193.578 852.697,-193.998C852.654,-194.417 852.551,-194.799 852.432,-195.066C852.397,-195.147 852.359,-195.216 852.323,-195.273C852.258,-195.475 852.174,-195.591 852.056,-195.606C851.712,-195.649 851.411,-194.786 850.955,-193.359C850.676,-192.489 850.296,-191.298 850.071,-191.322C850.015,-191.328 849.926,-191.419 849.842,-191.85C849.829,-192.029 849.82,-192.277 849.817,-192.579C849.809,-193.228 849.825,-194.122 849.807,-195.112C849.803,-195.297 849.798,-195.479 849.794,-195.657C849.783,-196.04 849.335,-196.038 849.33,-195.653C849.328,-195.473 849.328,-195.29 849.332,-195.103C849.35,-194.106 849.453,-193.202 849.58,-192.555C849.601,-192.447 849.623,-192.347 849.645,-192.254C849.757,-191.383 849.913,-191.204 850.057,-191.189C850.063,-191.188 850.07,-191.188 850.076,-191.188C850.385,-191.188 850.661,-192.002 851.082,-193.318C851.377,-194.241 851.782,-195.506 852.039,-195.473C852.101,-195.465 852.153,-195.376 852.196,-195.239C852.199,-195.175 852.201,-195.102 852.2,-195.016C852.198,-194.744 852.181,-194.367 852.224,-193.949C852.267,-193.531 852.367,-193.149 852.482,-192.881C852.515,-192.802 852.55,-192.734 852.584,-192.677C852.645,-192.467 852.726,-192.346 852.843,-192.33C853.087,-192.298 853.479,-192.702 854.346,-196.083C854.423,-195.861 854.588,-195.558 854.936,-195.386C855.369,-195.172 855.91,-195.253 856.283,-195.588C856.31,-195.613 856.312,-195.655 856.288,-195.683Z" style="fill:rgb(54,41,19);"/>
            <path d="M868.034,-200.179C868.031,-200.227 868.023,-200.327 867.1,-200.387C867.084,-200.389 867.07,-200.392 867.054,-200.394C866.77,-200.434 866.357,-200.479 865.846,-200.516C864.823,-200.588 863.409,-200.638 861.846,-200.565C861.285,-200.538 860.744,-200.497 860.235,-200.446C860.334,-201.203 860.449,-201.979 860.583,-202.769C860.703,-203.467 860.827,-204.151 860.964,-204.817C861.109,-205.531 861.083,-205.912 860.971,-205.937C860.861,-205.963 860.664,-205.631 860.509,-204.911C860.456,-204.664 860.405,-204.414 860.355,-204.161C860.245,-203.704 860.104,-203.111 859.923,-202.343C859.78,-201.736 859.622,-201.063 859.454,-200.36C858.86,-200.287 858.325,-200.205 857.87,-200.126C857.366,-200.039 856.959,-199.957 856.679,-199.898C856.664,-199.895 856.651,-199.892 856.636,-199.888C856.325,-199.847 856.014,-199.804 855.703,-199.758C855.685,-199.755 855.672,-199.738 855.675,-199.72C855.677,-199.703 855.692,-199.692 855.708,-199.692C855.709,-199.692 855.711,-199.692 855.713,-199.692C856.023,-199.738 856.334,-199.781 856.645,-199.822C856.66,-199.823 856.673,-199.823 856.689,-199.824C856.975,-199.84 857.388,-199.862 857.897,-199.89C858.323,-199.913 858.817,-199.939 859.36,-199.967C858.512,-196.442 857.46,-192.35 856.95,-192.129C856.931,-192.12 856.921,-192.124 856.913,-192.129C856.758,-192.218 856.636,-192.366 856.544,-192.571C856.518,-192.7 856.499,-192.864 856.496,-193.057C856.49,-193.308 856.507,-193.607 856.541,-193.939C856.575,-194.272 856.623,-194.637 856.669,-195.023C856.686,-195.168 856.703,-195.311 856.72,-195.451C856.755,-195.749 856.167,-195.853 856.108,-195.543C856.079,-195.4 856.059,-195.251 856.039,-195.1C855.991,-194.695 855.98,-194.303 856.006,-193.945C856.031,-193.587 856.095,-193.263 856.184,-193C856.258,-192.774 856.354,-192.596 856.44,-192.474C856.542,-192.264 856.677,-192.11 856.847,-192.012C856.895,-191.985 856.949,-191.983 857.004,-192.006C857.548,-192.242 858.471,-195.706 859.498,-199.974C859.571,-199.978 859.645,-199.982 859.719,-199.985C859.63,-199.131 859.569,-198.303 859.532,-197.513C859.492,-196.689 859.491,-195.903 859.5,-195.17C859.505,-194.986 859.511,-194.806 859.517,-194.629C859.519,-194.541 859.522,-194.453 859.525,-194.366C859.529,-194.279 859.534,-194.194 859.538,-194.109C859.554,-193.769 859.576,-193.443 859.599,-193.132C859.636,-192.636 859.68,-192.179 859.725,-191.764C859.832,-190.442 860.002,-189.123 860.235,-187.819C860.241,-187.786 860.269,-187.763 860.301,-187.763C860.305,-187.763 860.309,-187.764 860.313,-187.765C860.349,-187.771 860.373,-187.806 860.367,-187.842C860.203,-188.759 860.071,-189.684 859.969,-190.612C859.918,-191.27 859.864,-192.127 859.837,-193.144C859.828,-193.454 859.822,-193.779 859.82,-194.117C859.819,-194.201 859.819,-194.287 859.818,-194.373C859.819,-194.459 859.82,-194.546 859.821,-194.634C859.822,-194.809 859.823,-194.988 859.825,-195.17C859.844,-195.897 859.871,-196.674 859.933,-197.49C859.992,-198.294 860.073,-199.137 860.179,-200.008C860.712,-200.035 861.28,-200.062 861.869,-200.09C863.419,-200.163 864.824,-200.23 865.843,-200.278C866.352,-200.301 866.764,-200.315 867.05,-200.32C867.067,-200.32 867.082,-200.32 867.099,-200.32C867.631,-200.287 867.952,-200.237 867.967,-200.174C867.966,-200.156 867.906,-200.056 866.906,-199.864C866.888,-199.861 866.876,-199.843 866.879,-199.825C866.883,-199.807 866.9,-199.795 866.919,-199.798C867.909,-199.989 868.04,-200.094 868.034,-200.179L868.034,-200.179ZM859.765,-200.396C859.708,-200.39 859.651,-200.383 859.595,-200.377C859.721,-200.904 859.849,-201.443 859.977,-201.988C859.896,-201.449 859.826,-200.918 859.765,-200.396ZM856.924,-196.693C856.924,-196.869 856.781,-197.012 856.605,-197.012C856.429,-197.012 856.286,-196.869 856.286,-196.693C856.286,-196.517 856.429,-196.374 856.605,-196.374C856.781,-196.374 856.924,-196.517 856.924,-196.693Z" style="fill:rgb(54,41,19);"/>
            <path d="M872.164,-195.694C872.133,-195.714 872.091,-195.706 872.071,-195.675C869.569,-191.819 867.994,-190.183 867.116,-190.524C866.979,-190.577 866.869,-190.688 866.781,-190.841C866.748,-190.952 866.719,-191.097 866.703,-191.273C866.658,-191.706 866.682,-192.312 866.645,-192.997C866.608,-193.681 866.502,-194.318 866.337,-194.768C866.271,-194.949 866.197,-195.097 866.125,-195.203C866.038,-195.42 865.916,-195.565 865.743,-195.611C865.135,-195.774 864.195,-194.564 862.87,-191.915C862.738,-192.72 862.647,-193.536 862.596,-194.352C862.586,-194.784 862.583,-195.293 862.601,-195.867C862.654,-197.797 862.95,-200.464 863.705,-203.305C864.084,-204.723 864.539,-206.05 865.078,-207.196C865.348,-207.768 865.639,-208.294 865.962,-208.748C866.124,-208.975 866.293,-209.183 866.474,-209.362C866.563,-209.453 866.658,-209.532 866.753,-209.607C866.849,-209.679 866.947,-209.742 867.047,-209.793C867.148,-209.842 867.251,-209.88 867.353,-209.902C867.456,-209.921 867.557,-209.924 867.656,-209.914C867.853,-209.887 868.032,-209.803 868.184,-209.698C868.247,-209.653 868.306,-209.605 868.361,-209.557C869.133,-208.821 869.588,-207.321 869.594,-207.301C870.657,-203.723 868.031,-199.178 863.059,-195.991C863.027,-195.971 863.018,-195.93 863.038,-195.899C863.058,-195.868 863.1,-195.859 863.131,-195.879C868.154,-199.098 870.803,-203.704 869.722,-207.34C869.697,-207.423 869.234,-208.947 868.416,-209.689C868.372,-209.733 868.325,-209.776 868.274,-209.819C868.118,-209.944 867.922,-210.057 867.687,-210.105C867.569,-210.126 867.444,-210.13 867.318,-210.114C867.193,-210.096 867.069,-210.059 866.948,-210.009C866.829,-209.958 866.713,-209.893 866.602,-209.819C866.492,-209.742 866.383,-209.66 866.281,-209.568C866.075,-209.385 865.884,-209.173 865.703,-208.944C865.34,-208.484 865.016,-207.952 864.718,-207.374C864.123,-206.215 863.631,-204.87 863.245,-203.427C862.862,-201.983 862.623,-200.577 862.491,-199.292C862.358,-198.007 862.332,-196.842 862.363,-195.867C862.381,-195.275 862.42,-194.754 862.464,-194.315C862.519,-193.44 862.621,-192.564 862.768,-191.702C862.774,-191.669 862.802,-191.646 862.834,-191.646C862.838,-191.646 862.842,-191.646 862.846,-191.647C862.864,-191.65 862.878,-191.66 862.888,-191.673C862.897,-191.68 862.906,-191.687 862.911,-191.698C864.55,-195.006 865.337,-195.582 865.708,-195.482C865.834,-195.448 865.927,-195.331 865.998,-195.155C866.016,-195.04 866.025,-194.89 866.025,-194.711C866.027,-194.27 865.974,-193.656 866.012,-192.962C866.049,-192.269 866.187,-191.623 866.398,-191.185C866.481,-191.007 866.578,-190.868 866.664,-190.773C866.767,-190.595 866.899,-190.465 867.068,-190.399C867.158,-190.364 867.258,-190.341 867.373,-190.341C868.081,-190.341 869.34,-191.221 872.184,-195.602C872.204,-195.633 872.195,-195.674 872.164,-195.694L872.164,-195.694Z" style="fill:rgb(54,41,19);"/>
            <path d="M890.613,-195.677C890.591,-195.707 890.549,-195.714 890.519,-195.693C886.576,-192.921 884.514,-191.774 883.471,-191.414C883.197,-191.769 882.906,-192.036 882.695,-192.121C882.605,-192.157 882.53,-192.16 882.472,-192.13C882.38,-192.085 882.342,-191.969 882.325,-191.88C882.291,-191.69 882.323,-191.425 882.452,-191.285C882.611,-191.113 882.926,-191.102 883.421,-191.259C883.65,-190.952 883.868,-190.576 884.008,-190.183C884.17,-189.726 884.27,-189.24 884.308,-188.783C884.315,-188.674 884.319,-188.562 884.318,-188.446C884.314,-188.16 884.29,-187.851 884.201,-187.546C884.156,-187.395 884.095,-187.244 884.003,-187.116C883.911,-186.99 883.788,-186.892 883.641,-186.87C883.605,-186.861 883.567,-186.863 883.528,-186.862C883.485,-186.865 883.443,-186.869 883.4,-186.872C883.358,-186.879 883.317,-186.888 883.275,-186.896C883.233,-186.906 883.194,-186.922 883.154,-186.934C882.995,-186.995 882.853,-187.1 882.736,-187.238C882.618,-187.376 882.525,-187.545 882.448,-187.726C882.369,-187.907 882.31,-188.103 882.261,-188.307C882.161,-188.714 882.104,-189.151 882.064,-189.603C882.025,-190.056 882.005,-190.526 881.994,-191.008C881.975,-191.973 881.993,-192.99 882.021,-194.045C882.036,-194.572 882.049,-195.11 882.075,-195.651C882.1,-196.192 882.139,-196.742 882.189,-197.296C882.392,-199.515 882.759,-201.614 883.231,-203.486C883.468,-204.422 883.732,-205.302 884.024,-206.108C884.317,-206.913 884.635,-207.648 884.993,-208.279C885.171,-208.594 885.362,-208.883 885.564,-209.136C885.768,-209.387 885.985,-209.605 886.222,-209.755C886.332,-209.826 886.448,-209.881 886.564,-209.917C886.67,-209.946 886.775,-209.959 886.878,-209.955C888.13,-209.903 888.91,-207.327 888.917,-207.301C889.981,-203.723 887.355,-199.178 882.382,-195.991C882.351,-195.971 882.342,-195.93 882.362,-195.899C882.382,-195.868 882.423,-195.859 882.454,-195.879C887.478,-199.098 890.126,-203.704 889.046,-207.34C889.013,-207.45 888.23,-210.033 886.883,-210.089C886.741,-210.095 886.596,-210.072 886.45,-210.021C886.346,-209.987 886.244,-209.941 886.144,-209.884C885.879,-209.733 885.64,-209.513 885.416,-209.26C885.193,-209.006 884.985,-208.717 884.789,-208.4C884.395,-207.768 884.044,-207.032 883.72,-206.224C883.397,-205.415 883.105,-204.531 882.843,-203.589C882.321,-201.705 881.921,-199.586 881.715,-197.339C881.664,-196.777 881.627,-196.221 881.604,-195.672C881.582,-195.121 881.575,-194.584 881.566,-194.054C881.551,-192.995 881.551,-191.972 881.593,-190.995C881.615,-190.506 881.648,-190.029 881.701,-189.566C881.754,-189.103 881.827,-188.653 881.946,-188.224C882.005,-188.01 882.076,-187.8 882.17,-187.602C882.263,-187.403 882.376,-187.213 882.525,-187.051C882.672,-186.888 882.861,-186.758 883.065,-186.69C883.116,-186.675 883.167,-186.658 883.218,-186.648C883.27,-186.64 883.322,-186.63 883.373,-186.624C883.424,-186.622 883.475,-186.62 883.525,-186.619C883.578,-186.621 883.634,-186.623 883.687,-186.637C883.794,-186.66 883.896,-186.706 883.978,-186.772C884.06,-186.837 884.127,-186.913 884.18,-186.994C884.286,-187.156 884.346,-187.328 884.388,-187.495C884.469,-187.831 884.478,-188.152 884.468,-188.448C884.465,-188.536 884.458,-188.621 884.451,-188.705C884.418,-189.197 884.312,-189.725 884.134,-190.227C884,-190.606 883.786,-190.984 883.554,-191.304C883.823,-191.398 884.138,-191.537 884.505,-191.719C885.86,-192.395 887.91,-193.695 890.596,-195.583C890.627,-195.605 890.634,-195.646 890.613,-195.677L890.613,-195.677ZM882.551,-191.376C882.456,-191.479 882.429,-191.701 882.457,-191.856C882.475,-191.951 882.508,-191.999 882.532,-192.011C882.539,-192.015 882.549,-192.016 882.561,-192.016C882.583,-192.016 882.612,-192.01 882.645,-191.996C882.812,-191.929 883.075,-191.697 883.335,-191.37C882.884,-191.233 882.653,-191.265 882.551,-191.376Z" style="fill:rgb(54,41,19);"/>
            <path d="M895.664,-195.72C895.634,-195.741 895.592,-195.734 895.571,-195.703C894.15,-193.689 893.612,-193.413 893.115,-193.608C892.846,-193.713 892.69,-194.142 892.652,-194.882C892.651,-194.904 892.639,-194.924 892.621,-194.935C892.615,-194.939 892.609,-194.942 892.601,-194.944C892.598,-194.945 892.594,-194.944 892.59,-194.945C892.572,-194.946 892.555,-194.941 892.542,-194.929C892.536,-194.925 892.532,-194.919 892.528,-194.913C892.413,-194.718 892.305,-194.538 892.201,-194.373C892.098,-194.207 892,-194.056 891.907,-193.918C891.194,-192.861 890.778,-192.575 890.537,-192.571C890.511,-192.571 890.487,-192.574 890.465,-192.579C890.461,-192.58 890.456,-192.581 890.452,-192.583C890.338,-192.618 890.245,-192.738 890.175,-192.929C890.163,-193.011 890.154,-193.109 890.151,-193.22C890.146,-193.404 890.153,-193.628 890.173,-193.865C890.196,-194.101 890.242,-194.356 890.309,-194.62C890.444,-195.148 890.636,-195.614 890.839,-195.914C890.899,-196.005 890.961,-196.079 891.018,-196.139C891.168,-196.244 891.318,-196.295 891.461,-196.287C891.601,-196.279 891.97,-196.181 892.364,-195.437C892.381,-195.405 892.422,-195.392 892.455,-195.41C892.487,-195.427 892.5,-195.467 892.482,-195.5C892.072,-196.276 891.671,-196.41 891.468,-196.421C891.295,-196.43 891.116,-196.371 890.941,-196.249C890.858,-196.21 890.763,-196.155 890.666,-196.077C890.504,-195.95 890.338,-195.767 890.193,-195.539C890.049,-195.311 889.925,-195.039 889.848,-194.738C889.771,-194.436 889.75,-194.136 889.772,-193.865C889.797,-193.597 889.851,-193.367 889.917,-193.175C889.957,-193.061 890.003,-192.963 890.049,-192.884C890.125,-192.672 890.24,-192.508 890.412,-192.455C890.449,-192.443 890.488,-192.438 890.528,-192.438C890.898,-192.438 891.402,-192.92 892.056,-193.901C892.081,-193.939 892.107,-193.977 892.132,-194.016C892.184,-194.095 892.236,-194.176 892.289,-194.26C892.368,-194.387 892.45,-194.52 892.534,-194.66C892.595,-193.985 892.769,-193.599 893.066,-193.483C893.639,-193.258 894.2,-193.528 895.68,-195.626C895.702,-195.656 895.695,-195.698 895.664,-195.72Z" style="fill:rgb(54,41,19);"/>
            <path d="M902.231,-195.679C902.2,-195.7 902.158,-195.691 902.138,-195.66C900.784,-193.572 899.923,-192.64 899.506,-192.811C899.443,-192.837 899.393,-192.895 899.354,-192.974C899.35,-193.02 899.349,-193.073 899.351,-193.134C899.356,-193.33 899.392,-193.598 899.386,-193.905C899.38,-194.211 899.327,-194.5 899.259,-194.71C899.239,-194.773 899.217,-194.828 899.196,-194.874C899.177,-195.065 899.135,-195.165 899.043,-195.182C898.929,-195.202 898.723,-195.24 897.993,-192.748C897.993,-192.751 897.993,-192.753 897.993,-192.755C898.005,-192.82 898.017,-192.896 898.029,-192.982C898.067,-193.269 898.093,-193.666 898.033,-194.101C897.973,-194.535 897.833,-194.923 897.678,-195.183C897.628,-195.268 897.575,-195.339 897.527,-195.393C897.44,-195.556 897.339,-195.657 897.222,-195.67C896.692,-195.731 896.099,-193.983 895.723,-192.64L895.72,-193.026C895.787,-193.543 895.884,-194.492 895.876,-195.576C895.875,-195.73 895.872,-195.881 895.867,-196.028C895.856,-196.344 895.409,-196.341 895.403,-196.024C895.4,-195.877 895.399,-195.726 895.4,-195.573C895.408,-194.527 895.512,-193.61 895.586,-193.082L895.593,-192.158C895.589,-192.146 895.586,-192.133 895.583,-192.121C895.577,-192.1 895.583,-192.08 895.594,-192.064C895.598,-192.03 895.625,-192.004 895.66,-192.004L895.661,-192.004C895.698,-192.004 895.727,-192.034 895.727,-192.071L895.727,-192.141C896.28,-194.245 896.86,-195.577 897.206,-195.537C897.281,-195.529 897.352,-195.456 897.418,-195.327C897.431,-195.264 897.444,-195.19 897.454,-195.104C897.487,-194.831 897.505,-194.453 897.562,-194.036C897.62,-193.618 897.712,-193.24 897.792,-192.965C897.816,-192.882 897.838,-192.809 897.859,-192.747C897.867,-192.623 897.874,-192.496 897.88,-192.365C897.881,-192.363 897.882,-192.361 897.882,-192.358C897.878,-192.326 897.896,-192.294 897.929,-192.285C897.935,-192.283 897.941,-192.282 897.947,-192.282C897.977,-192.282 898.003,-192.301 898.012,-192.331C898.719,-194.815 898.963,-195.04 899.015,-195.051C899.039,-195.034 899.054,-194.961 899.063,-194.862C899.051,-194.816 899.037,-194.762 899.021,-194.701C898.97,-194.499 898.904,-194.217 898.91,-193.895C898.916,-193.573 899.002,-193.27 899.122,-193.069C899.157,-193.008 899.195,-192.96 899.232,-192.921C899.285,-192.81 899.357,-192.727 899.455,-192.687C899.812,-192.54 900.424,-192.77 902.25,-195.587C902.271,-195.618 902.262,-195.659 902.231,-195.679L902.231,-195.679Z" style="fill:rgb(54,41,19);"/>
            <path d="M916.088,-195.695C916.057,-195.714 916.015,-195.705 915.996,-195.674C913.592,-191.884 910.826,-189.769 909.113,-190.41C908.49,-190.644 908.072,-191.221 907.781,-191.932C907.686,-192.193 907.593,-192.508 907.512,-192.876C907.446,-193.175 907.388,-193.508 907.337,-193.871C907.342,-193.874 907.347,-193.878 907.352,-193.882C909.466,-195.552 911.43,-197.789 912.741,-200.017C913.858,-201.918 915.028,-204.73 914.256,-207.339C914.202,-207.523 913.841,-208.686 913.188,-209.44C913.15,-209.488 913.11,-209.537 913.065,-209.586C912.94,-209.721 912.79,-209.861 912.593,-209.968C912.495,-210.02 912.385,-210.064 912.266,-210.09C912.146,-210.113 912.019,-210.123 911.891,-210.108C911.635,-210.081 911.378,-209.984 911.14,-209.843C910.899,-209.703 910.674,-209.52 910.459,-209.314C910.244,-209.107 910.04,-208.874 909.846,-208.622C909.457,-208.117 909.102,-207.536 908.778,-206.903C908.131,-205.635 907.604,-204.154 907.238,-202.558C906.873,-200.962 906.709,-199.402 906.702,-197.984C906.697,-197.275 906.732,-196.601 906.796,-195.975C906.826,-195.661 906.869,-195.36 906.912,-195.071C906.957,-194.784 907.001,-194.508 907.048,-194.245C907.071,-194.117 907.095,-193.992 907.119,-193.87C905.2,-192.385 903.578,-191.719 902.863,-192.129C902.732,-192.204 902.624,-192.322 902.538,-192.481C902.502,-192.62 902.473,-192.816 902.469,-193.057C902.463,-193.308 902.48,-193.607 902.514,-193.939C902.548,-194.272 902.596,-194.637 902.642,-195.023C902.659,-195.168 902.676,-195.311 902.693,-195.451C902.728,-195.749 902.14,-195.853 902.081,-195.543C902.052,-195.4 902.032,-195.251 902.013,-195.1C901.964,-194.695 901.954,-194.303 901.979,-193.945C902.004,-193.587 902.068,-193.263 902.157,-193C902.211,-192.835 902.277,-192.696 902.342,-192.585C902.447,-192.317 902.598,-192.126 902.797,-192.012C903.553,-191.579 905.208,-192.234 907.149,-193.724C907.175,-193.601 907.201,-193.482 907.229,-193.366C907.501,-192.026 907.991,-190.688 909.066,-190.285C909.282,-190.204 909.513,-190.165 909.757,-190.165C911.522,-190.165 913.966,-192.225 916.109,-195.602C916.128,-195.633 916.119,-195.675 916.088,-195.695L916.088,-195.695ZM907.283,-194.281C907.251,-194.543 907.222,-194.819 907.192,-195.107C907.164,-195.393 907.136,-195.691 907.12,-196C907.085,-196.618 907.076,-197.28 907.103,-197.975C907.154,-199.365 907.345,-200.888 907.702,-202.452C908.06,-204.015 908.548,-205.472 909.138,-206.726C909.434,-207.352 909.756,-207.927 910.108,-208.428C910.283,-208.679 910.467,-208.911 910.66,-209.115C910.853,-209.32 911.053,-209.502 911.265,-209.641C911.475,-209.782 911.697,-209.88 911.916,-209.916C912.026,-209.936 912.133,-209.933 912.235,-209.921C912.276,-209.915 912.315,-209.906 912.353,-209.895C913.464,-209.504 914.1,-207.398 914.128,-207.302C914.886,-204.739 913.729,-201.963 912.625,-200.085C911.333,-197.887 909.4,-195.681 907.316,-194.025C907.305,-194.109 907.294,-194.194 907.283,-194.281L907.283,-194.281ZM902.555,-196.374C902.731,-196.374 902.874,-196.517 902.874,-196.693C902.874,-196.869 902.731,-197.012 902.555,-197.012C902.379,-197.012 902.236,-196.869 902.236,-196.693C902.236,-196.517 902.379,-196.374 902.555,-196.374Z" style="fill:rgb(54,41,19);"/>
            <path d="M925.411,-195.675C925.391,-195.706 925.349,-195.714 925.318,-195.694C923.752,-194.674 922.311,-193.616 921.014,-192.538C921.052,-193.136 921.059,-193.707 921.017,-194.248C920.993,-194.547 920.954,-194.838 920.874,-195.116C920.832,-195.255 920.78,-195.392 920.695,-195.519C920.649,-195.582 920.599,-195.644 920.527,-195.691C920.509,-195.702 920.493,-195.715 920.473,-195.724L920.414,-195.749C920.374,-195.765 920.33,-195.771 920.289,-195.774C920.204,-195.779 920.126,-195.759 920.06,-195.732C919.992,-195.705 919.933,-195.671 919.88,-195.633C919.774,-195.559 919.685,-195.476 919.604,-195.392C919.443,-195.225 919.311,-195.056 919.189,-194.898C919.142,-194.835 919.097,-194.775 919.053,-194.716C918.983,-194.627 918.912,-194.536 918.841,-194.445C918.277,-193.723 917.639,-192.905 917.139,-193.033C917.015,-193.064 916.903,-193.151 916.804,-193.291C916.763,-193.39 916.723,-193.521 916.69,-193.681C916.605,-194.076 916.563,-194.637 916.501,-195.258C916.489,-195.375 916.477,-195.49 916.465,-195.602C916.44,-195.842 915.993,-195.817 916.002,-195.567C916.008,-195.451 916.016,-195.332 916.028,-195.211C916.092,-194.567 916.258,-193.986 916.467,-193.598C916.506,-193.525 916.546,-193.46 916.586,-193.402C916.727,-193.121 916.9,-192.956 917.106,-192.903C917.69,-192.754 918.329,-193.571 918.946,-194.362C919.014,-194.449 919.083,-194.537 919.151,-194.623C919.201,-194.682 919.253,-194.741 919.306,-194.803C919.436,-194.95 919.578,-195.107 919.739,-195.253C919.82,-195.326 919.906,-195.397 919.998,-195.453C920.089,-195.509 920.191,-195.547 920.272,-195.537C920.351,-195.526 920.42,-195.47 920.477,-195.377C920.532,-195.284 920.572,-195.166 920.602,-195.043C920.659,-194.793 920.684,-194.517 920.693,-194.23C920.71,-193.656 920.672,-193.033 920.602,-192.385C920.594,-192.314 920.585,-192.241 920.576,-192.169C918.765,-190.617 917.255,-189.03 916.112,-187.461C914.031,-184.605 913.277,-181.963 913.931,-179.82C914.257,-178.752 915.124,-177.156 916.173,-177.134C916.181,-177.134 916.188,-177.134 916.195,-177.134C916.863,-177.134 917.494,-177.771 918.085,-179.033C918.286,-179.428 918.495,-179.905 918.698,-180.454C919.401,-182.339 920.038,-185.049 920.495,-188.07C920.723,-189.581 920.892,-191.025 921.002,-192.348C921.002,-192.35 921.002,-192.351 921.002,-192.353C922.31,-193.448 923.778,-194.531 925.391,-195.582C925.422,-195.602 925.431,-195.644 925.411,-195.675L925.411,-195.675ZM920.025,-188.141C919.57,-185.137 919.055,-182.43 918.473,-180.53C918.302,-179.968 918.125,-179.479 917.952,-179.072C917.386,-177.869 916.789,-177.256 916.176,-177.268C915.204,-177.288 914.362,-178.868 914.059,-179.859C913.052,-183.157 915.535,-187.634 920.552,-191.97C920.407,-190.778 920.228,-189.486 920.025,-188.141Z" style="fill:rgb(54,41,19);"/>
        </g>
        <g transform="matrix(3.95711,-1.50874e-16,-8.59306e-17,3.95711,6332.11,17151.2)">
            <path d="M798.361,-195.985L798.293,-196.053C798.259,-196.053 798.259,-196.053 798.157,-195.985L797.104,-194.999C796.288,-194.252 794.861,-192.927 794.045,-192.927C793.774,-192.927 793.57,-193.13 793.57,-193.3C793.57,-193.674 793.977,-194.252 794.419,-194.897L797.647,-199.654L796.322,-199.654L795.031,-198.091L795.031,-198.737C795.031,-199.213 794.453,-199.824 793.672,-199.824C792.414,-199.824 790.104,-198.465 788.847,-197.242L786.91,-195.339L786.876,-195.237L786.944,-195.203L787.012,-195.237L787.487,-195.645C787.318,-195.169 787.148,-194.49 787.148,-194.082C787.148,-193.096 787.725,-192.519 788.813,-192.519C789.424,-192.519 790.512,-193.029 791.463,-193.81L792.584,-194.761C792.516,-194.456 792.414,-194.082 792.414,-193.81C792.414,-193.198 792.822,-192.519 793.638,-192.519C794.691,-192.519 796.288,-193.878 797.273,-194.863L798.293,-195.883C798.327,-195.917 798.361,-195.951 798.361,-195.985ZM794.827,-198.635C794.827,-197.31 790.749,-192.791 789.084,-192.791C788.643,-192.791 788.303,-193.029 788.303,-193.47C788.303,-194.626 791.939,-199.553 793.74,-199.553C794.249,-199.553 794.827,-199.179 794.827,-198.635Z"/>
            <path d="M808.996,-195.849L808.962,-195.917L808.792,-195.883L808.045,-195.169C807.229,-194.422 806.855,-194.116 806.244,-194.116C805.768,-194.116 805.53,-194.422 805.53,-194.727C805.53,-195.611 806.414,-197.106 807.399,-198.397L808.283,-199.553L807.161,-199.553C806.72,-199.145 806.244,-198.703 805.7,-198.193C805.055,-197.582 804.341,-196.766 803.593,-195.985C804.001,-196.766 804.409,-197.548 804.409,-198.397C804.409,-199.349 803.661,-199.824 802.982,-199.824C801.725,-199.824 800.603,-198.329 799.448,-197.174L797.749,-195.475C797.715,-195.441 797.715,-195.407 797.715,-195.373C797.715,-195.373 797.749,-195.339 797.783,-195.339C797.851,-195.339 797.817,-195.339 797.885,-195.373L799.006,-196.392C800.637,-197.888 801.691,-199.553 802.914,-199.553C803.186,-199.553 803.424,-199.281 803.424,-199.009C803.424,-198.465 802.2,-196.902 801.725,-196.189L799.21,-192.519L800.943,-192.519L803.118,-195.033C803.933,-195.985 804.783,-196.868 805.632,-197.786C805.36,-197.174 804.851,-196.019 804.851,-195.271C804.851,-194.558 805.191,-193.844 806.108,-193.844C806.821,-193.844 807.229,-194.15 808.181,-195.033L808.928,-195.747L808.996,-195.849Z"/>
            <path d="M816.506,-195.849L816.472,-195.917L816.302,-195.883L815.554,-195.169C814.467,-194.116 812.632,-192.791 811.409,-192.791C810.593,-192.791 810.083,-193.232 810.083,-193.81C810.083,-194.252 810.525,-195.101 810.831,-195.509L811.68,-195.747C813.549,-196.257 815.826,-197.514 815.826,-199.009C815.826,-199.586 815.384,-199.824 814.807,-199.824C813.651,-199.824 811.273,-198.363 808.656,-195.747L808.249,-195.339C808.215,-195.305 808.215,-195.271 808.215,-195.237C808.215,-195.203 808.249,-195.169 808.283,-195.169C808.317,-195.169 808.351,-195.169 808.385,-195.203L808.962,-195.747C808.758,-195.339 808.656,-194.897 808.656,-194.49C808.656,-193.368 809.71,-192.519 811.069,-192.519C813.108,-192.519 814.909,-194.286 815.69,-195.033L816.438,-195.747L816.506,-195.849ZM815.622,-199.009C815.622,-197.65 812.836,-196.087 811.035,-195.815L811.918,-197.072C812.904,-198.465 814.161,-199.62 814.909,-199.62C815.248,-199.62 815.622,-199.383 815.622,-199.009Z"/>
            <path d="M836.655,-195.849L836.621,-195.917L836.451,-195.883L835.704,-195.169C833.903,-193.47 832,-192.859 830.777,-192.587L835.874,-199.62L834.548,-199.62L833.223,-197.955C833.189,-198.635 833.053,-199.824 831.32,-199.824C829.757,-199.824 827.922,-199.043 825.748,-196.97L824.083,-195.373C824.049,-195.339 824.049,-195.305 824.049,-195.271C824.049,-195.237 824.083,-195.203 824.083,-195.203C824.117,-195.203 824.151,-195.203 824.185,-195.237L825.068,-195.985C824.864,-195.441 824.593,-194.829 824.593,-194.286C824.593,-193.164 825.374,-192.519 826.529,-192.519C827.651,-192.519 828.5,-192.927 829.723,-193.504L828.534,-191.941C826.088,-190.786 824.015,-189.835 821.365,-187.728C819.326,-186.097 817.729,-184.194 817.729,-182.903C817.729,-182.019 818.408,-181.646 819.122,-181.646C820.719,-181.646 822.826,-182.971 825.51,-185.825C827.175,-187.626 830.165,-191.737 830.505,-192.213C832.408,-192.723 834.005,-193.3 835.84,-195.033L836.587,-195.747L836.655,-195.849ZM832.951,-198.261C832.951,-196.291 829.214,-192.757 826.869,-192.757C826.291,-192.757 825.884,-193.063 825.884,-193.538C825.884,-194.66 829.553,-199.553 831.524,-199.553C832.238,-199.553 832.951,-199.111 832.951,-198.261ZM828.296,-191.601C825,-186.946 821.602,-181.917 819.054,-181.917C818.408,-181.917 818.001,-182.325 818.001,-182.903C818.001,-184.058 819.326,-185.723 820.957,-187.116C823.267,-189.087 826.563,-190.854 828.296,-191.601Z"/>
            <path d="M844.198,-195.849L844.164,-195.917L843.995,-195.883L843.247,-195.169C842.16,-194.116 840.325,-192.791 839.102,-192.791C838.286,-192.791 837.776,-193.232 837.776,-193.81C837.776,-194.252 838.218,-195.101 838.524,-195.509L839.373,-195.747C841.242,-196.257 843.519,-197.514 843.519,-199.009C843.519,-199.586 843.077,-199.824 842.499,-199.824C841.344,-199.824 838.966,-198.363 836.349,-195.747L835.942,-195.339C835.908,-195.305 835.908,-195.271 835.908,-195.237C835.908,-195.203 835.942,-195.169 835.975,-195.169C836.009,-195.169 836.043,-195.169 836.077,-195.203L836.655,-195.747C836.451,-195.339 836.349,-194.897 836.349,-194.49C836.349,-193.368 837.403,-192.519 838.762,-192.519C840.801,-192.519 842.601,-194.286 843.383,-195.033L844.13,-195.747L844.198,-195.849ZM843.315,-199.009C843.315,-197.65 840.529,-196.087 838.728,-195.815L839.611,-197.072C840.597,-198.465 841.854,-199.62 842.601,-199.62C842.941,-199.62 843.315,-199.383 843.315,-199.009Z"/>
            <path d="M856.941,-203.426C856.941,-203.494 856.907,-203.562 856.805,-203.562L853.984,-203.562L856.499,-206.688L855.072,-206.688L852.387,-203.562L851.164,-203.562C851.062,-203.562 851.028,-203.46 851.028,-203.392C851.028,-203.324 851.062,-203.29 851.164,-203.29L852.183,-203.29L850.892,-201.761C850.315,-201.082 849.737,-200.47 849.057,-199.926L844.266,-196.019L843.723,-195.509C843.689,-195.475 843.655,-195.441 843.655,-195.339L843.689,-195.305C843.723,-195.305 843.757,-195.305 843.825,-195.373L844.436,-195.917L848.684,-199.349L847.29,-197.582C846.237,-196.257 845.048,-194.795 845.048,-193.878C845.048,-193.096 845.659,-192.519 846.611,-192.519C847.732,-192.519 849.465,-193.64 850.926,-195.033L851.674,-195.747L851.742,-195.849L851.708,-195.917L851.538,-195.883L850.79,-195.169C849.567,-194.014 847.902,-192.859 846.883,-192.859C846.441,-192.859 846.203,-193.164 846.203,-193.436C846.203,-193.81 846.747,-194.49 847.97,-196.053L853.747,-203.29L856.805,-203.29C856.907,-203.29 856.941,-203.324 856.941,-203.426Z"/>
            <path d="M864.484,-203.426C864.484,-203.494 864.45,-203.562 864.348,-203.562L861.528,-203.562L864.042,-206.688L862.615,-206.688L859.931,-203.562L858.707,-203.562C858.605,-203.562 858.572,-203.46 858.572,-203.392C858.572,-203.324 858.605,-203.29 858.707,-203.29L859.727,-203.29L858.436,-201.761C857.858,-201.082 857.28,-200.47 856.601,-199.926L851.81,-196.019L851.266,-195.509C851.232,-195.475 851.198,-195.441 851.198,-195.339L851.232,-195.305C851.266,-195.305 851.3,-195.305 851.368,-195.373L851.98,-195.917L856.227,-199.349L854.834,-197.582C853.78,-196.257 852.591,-194.795 852.591,-193.878C852.591,-193.096 853.203,-192.519 854.154,-192.519C855.276,-192.519 857.008,-193.64 858.47,-195.033L859.217,-195.747L859.285,-195.849L859.251,-195.917L859.081,-195.883L858.334,-195.169C857.11,-194.014 855.445,-192.859 854.426,-192.859C853.984,-192.859 853.747,-193.164 853.747,-193.436C853.747,-193.81 854.29,-194.49 855.513,-196.053L861.29,-203.29L864.348,-203.29C864.45,-203.29 864.484,-203.324 864.484,-203.426Z"/>
            <path d="M867.746,-203.46C867.746,-203.902 867.406,-204.242 866.964,-204.242C866.557,-204.242 866.183,-203.902 866.183,-203.46C866.183,-203.018 866.557,-202.679 866.964,-202.679C867.406,-202.679 867.746,-203.018 867.746,-203.46ZM865.605,-195.849L865.571,-195.917L865.401,-195.883L864.654,-195.169C863.464,-194.048 861.562,-192.927 860.916,-192.927C860.542,-192.927 860.338,-193.164 860.338,-193.538C860.338,-193.878 860.78,-194.422 861.494,-195.373L864.688,-199.485L863.023,-199.485C862.275,-198.737 861.562,-198.023 860.78,-197.31L858.538,-195.271C858.504,-195.237 858.47,-195.203 858.47,-195.135L858.504,-195.101C858.538,-195.101 858.572,-195.101 858.639,-195.169L859.931,-196.257C859.523,-195.407 859.115,-194.558 859.115,-193.776C859.115,-192.893 859.591,-192.519 860.474,-192.519C861.698,-192.519 863.77,-194.082 864.79,-195.033L865.537,-195.747L865.605,-195.849Z"/>
            <path d="M880.522,-195.747L880.454,-195.815C880.42,-195.815 880.42,-195.815 880.318,-195.747L879.061,-194.558C877.702,-193.3 876.614,-192.859 875.799,-192.859C875.391,-192.859 874.915,-192.995 874.915,-193.402C874.915,-193.878 875.153,-194.388 875.493,-194.727L877.022,-196.358C877.532,-196.902 878.008,-197.718 878.008,-198.465C878.008,-199.247 877.328,-199.824 876.478,-199.824C874.678,-199.824 872.367,-197.752 871.348,-196.732C871.653,-197.276 871.891,-197.752 871.891,-198.295C871.891,-199.349 871.416,-199.824 870.396,-199.824C869.241,-199.824 868.086,-198.499 866.998,-197.412L865.197,-195.611C865.163,-195.577 865.129,-195.509 865.129,-195.475C865.129,-195.475 865.163,-195.407 865.197,-195.407C865.231,-195.407 865.231,-195.407 865.333,-195.475L867.032,-197.14C868.391,-198.499 869.343,-199.485 870.328,-199.485C870.6,-199.485 870.77,-199.247 870.77,-198.839C870.77,-198.431 869.988,-197.344 869.343,-196.494L866.251,-192.519L867.984,-192.519L869.853,-194.626C871.45,-196.392 874.372,-199.485 876.207,-199.485C876.546,-199.485 876.886,-199.349 876.886,-198.975C876.886,-198.601 876.58,-198.159 876.343,-197.854L874.949,-196.189C874.44,-195.577 873.828,-194.863 873.828,-194.184C873.828,-193.063 874.542,-192.519 875.595,-192.519C876.648,-192.519 877.872,-193.13 879.095,-194.32L880.454,-195.645C880.488,-195.679 880.522,-195.713 880.522,-195.747Z"/>
            <path d="M892.618,-195.849L892.585,-195.917L892.415,-195.883L891.667,-195.169C889.866,-193.47 887.963,-192.859 886.74,-192.587L891.837,-199.62L890.512,-199.62L889.187,-197.955C889.153,-198.635 889.017,-199.824 887.284,-199.824C885.721,-199.824 883.886,-199.043 881.711,-196.97L880.046,-195.373C880.012,-195.339 880.012,-195.305 880.012,-195.271C880.012,-195.237 880.046,-195.203 880.046,-195.203C880.08,-195.203 880.114,-195.203 880.148,-195.237L881.032,-195.985C880.828,-195.441 880.556,-194.829 880.556,-194.286C880.556,-193.164 881.337,-192.519 882.493,-192.519C883.614,-192.519 884.464,-192.927 885.687,-193.504L884.497,-191.941C882.051,-190.786 879.978,-189.835 877.328,-187.728C875.289,-186.097 873.692,-184.194 873.692,-182.903C873.692,-182.019 874.372,-181.646 875.085,-181.646C876.682,-181.646 878.789,-182.971 881.473,-185.825C883.138,-187.626 886.128,-191.737 886.468,-192.213C888.371,-192.723 889.968,-193.3 891.803,-195.033L892.551,-195.747L892.618,-195.849ZM888.915,-198.261C888.915,-196.291 885.177,-192.757 882.833,-192.757C882.255,-192.757 881.847,-193.063 881.847,-193.538C881.847,-194.66 885.517,-199.553 887.488,-199.553C888.201,-199.553 888.915,-199.111 888.915,-198.261ZM884.26,-191.601C880.964,-186.946 877.566,-181.917 875.017,-181.917C874.372,-181.917 873.964,-182.325 873.964,-182.903C873.964,-184.058 875.289,-185.723 876.92,-187.116C879.231,-189.087 882.527,-190.854 884.26,-191.601Z"/>
            <path d="M922.792,-195.815L922.724,-195.883C922.69,-195.883 922.69,-195.883 922.588,-195.815L921.467,-194.795C920.04,-193.504 918.68,-192.859 918.035,-192.859C917.627,-192.859 917.185,-192.995 917.185,-193.402C917.219,-193.81 917.559,-194.184 917.831,-194.558L919.258,-196.494C919.7,-197.072 920.107,-197.616 920.107,-198.363C920.107,-199.315 919.292,-199.824 918.477,-199.824C916.71,-199.824 915.282,-198.703 913.482,-197.344C913.55,-197.65 913.651,-197.955 913.651,-198.261C913.651,-199.451 913.21,-199.824 912.122,-199.824C910.525,-199.824 908.453,-198.193 907.026,-197.242C907.161,-197.65 907.331,-198.023 907.331,-198.465C907.331,-199.417 906.822,-199.824 905.972,-199.824C904.545,-199.824 903.39,-198.533 901.929,-197.072L900.332,-195.509C900.298,-195.475 900.264,-195.407 900.264,-195.373C900.264,-195.373 900.298,-195.305 900.332,-195.305C900.366,-195.305 900.366,-195.305 900.468,-195.373L902.099,-196.936C903.322,-198.091 904.647,-199.485 905.598,-199.485C905.938,-199.485 906.312,-199.349 906.312,-199.043C906.312,-198.465 905.327,-197.242 904.239,-195.917L901.419,-192.519L902.948,-192.519L904.919,-194.66C906.482,-196.358 909.71,-199.485 911.885,-199.485C912.224,-199.485 912.632,-199.315 912.632,-198.975C912.632,-198.261 910.967,-196.291 910.288,-195.407L908.045,-192.519L909.574,-192.519L911.103,-194.252C913.074,-196.46 916.166,-199.485 918.035,-199.485C918.477,-199.485 919.122,-199.281 919.122,-198.907C919.122,-198.533 918.884,-198.125 918.646,-197.854L917.355,-196.291C916.744,-195.543 915.996,-194.456 915.996,-193.844C915.996,-193.13 916.71,-192.519 917.729,-192.519C918.578,-192.519 920.04,-193.164 921.331,-194.388L922.724,-195.713C922.758,-195.747 922.792,-195.781 922.792,-195.815Z"/>
            <path d="M933.631,-195.985L933.563,-196.053C933.529,-196.053 933.529,-196.053 933.427,-195.985L932.374,-194.999C931.558,-194.252 930.131,-192.927 929.316,-192.927C929.044,-192.927 928.84,-193.13 928.84,-193.3C928.84,-193.674 929.248,-194.252 929.69,-194.897L932.918,-199.654L931.592,-199.654L930.301,-198.091L930.301,-198.737C930.301,-199.213 929.724,-199.824 928.942,-199.824C927.685,-199.824 925.374,-198.465 924.117,-197.242L922.18,-195.339L922.146,-195.237L922.214,-195.203L922.282,-195.237L922.758,-195.645C922.588,-195.169 922.418,-194.49 922.418,-194.082C922.418,-193.096 922.996,-192.519 924.083,-192.519C924.695,-192.519 925.782,-193.029 926.733,-193.81L927.855,-194.761C927.787,-194.456 927.685,-194.082 927.685,-193.81C927.685,-193.198 928.093,-192.519 928.908,-192.519C929.961,-192.519 931.558,-193.878 932.544,-194.863L933.563,-195.883C933.597,-195.917 933.631,-195.951 933.631,-195.985ZM930.097,-198.635C930.097,-197.31 926.02,-192.791 924.355,-192.791C923.913,-192.791 923.573,-193.029 923.573,-193.47C923.573,-194.626 927.209,-199.553 929.01,-199.553C929.52,-199.553 930.097,-199.179 930.097,-198.635Z"/>
            <path d="M944.267,-195.849L944.233,-195.917L944.063,-195.883L943.315,-195.169C942.5,-194.422 942.126,-194.116 941.514,-194.116C941.039,-194.116 940.801,-194.422 940.801,-194.727C940.801,-195.611 941.684,-197.106 942.67,-198.397L943.553,-199.553L942.432,-199.553C941.99,-199.145 941.514,-198.703 940.971,-198.193C940.325,-197.582 939.611,-196.766 938.864,-195.985C939.272,-196.766 939.679,-197.548 939.679,-198.397C939.679,-199.349 938.932,-199.824 938.252,-199.824C936.995,-199.824 935.874,-198.329 934.718,-197.174L933.02,-195.475C932.986,-195.441 932.986,-195.407 932.986,-195.373C932.986,-195.373 933.02,-195.339 933.053,-195.339C933.121,-195.339 933.087,-195.339 933.155,-195.373L934.277,-196.392C935.908,-197.888 936.961,-199.553 938.184,-199.553C938.456,-199.553 938.694,-199.281 938.694,-199.009C938.694,-198.465 937.471,-196.902 936.995,-196.189L934.481,-192.519L936.214,-192.519L938.388,-195.033C939.204,-195.985 940.053,-196.868 940.903,-197.786C940.631,-197.174 940.121,-196.019 940.121,-195.271C940.121,-194.558 940.461,-193.844 941.378,-193.844C942.092,-193.844 942.5,-194.15 943.451,-195.033L944.199,-195.747L944.267,-195.849Z"/>
            <path d="M954.97,-195.849L954.936,-195.917L954.766,-195.883L954.019,-195.169C953.203,-194.422 952.829,-194.116 952.218,-194.116C951.742,-194.116 951.504,-194.422 951.504,-194.727C951.504,-195.611 952.388,-197.106 953.373,-198.397L954.256,-199.553L953.135,-199.553C952.693,-199.145 952.218,-198.703 951.674,-198.193C951.028,-197.582 950.315,-196.766 949.567,-195.985C949.975,-196.766 950.383,-197.548 950.383,-198.397C950.383,-199.349 949.635,-199.824 948.956,-199.824C947.698,-199.824 946.577,-198.329 945.422,-197.174L943.723,-195.475C943.689,-195.441 943.689,-195.407 943.689,-195.373C943.689,-195.373 943.723,-195.339 943.757,-195.339C943.825,-195.339 943.791,-195.339 943.859,-195.373L944.98,-196.392C946.611,-197.888 947.664,-199.553 948.888,-199.553C949.16,-199.553 949.397,-199.281 949.397,-199.009C949.397,-198.465 948.174,-196.902 947.698,-196.189L945.184,-192.519L946.917,-192.519L949.092,-195.033C949.907,-195.985 950.757,-196.868 951.606,-197.786C951.334,-197.174 950.825,-196.019 950.825,-195.271C950.825,-194.558 951.164,-193.844 952.082,-193.844C952.795,-193.844 953.203,-194.15 954.154,-195.033L954.902,-195.747L954.97,-195.849Z"/>
            <path d="M963.397,-203.46C963.397,-203.902 963.057,-204.242 962.615,-204.242C962.207,-204.242 961.834,-203.902 961.834,-203.46C961.834,-203.018 962.207,-202.679 962.615,-202.679C963.057,-202.679 963.397,-203.018 963.397,-203.46ZM961.256,-195.849L961.222,-195.917L961.052,-195.883L960.305,-195.169C959.115,-194.048 957.213,-192.927 956.567,-192.927C956.193,-192.927 955.989,-193.164 955.989,-193.538C955.989,-193.878 956.431,-194.422 957.145,-195.373L960.339,-199.485L958.674,-199.485C957.926,-198.737 957.213,-198.023 956.431,-197.31L954.188,-195.271C954.154,-195.237 954.12,-195.203 954.12,-195.135L954.154,-195.101C954.188,-195.101 954.222,-195.101 954.29,-195.169L955.582,-196.257C955.174,-195.407 954.766,-194.558 954.766,-193.776C954.766,-192.893 955.242,-192.519 956.125,-192.519C957.348,-192.519 959.421,-194.082 960.441,-195.033L961.188,-195.747L961.256,-195.849Z"/>
            <path d="M968.765,-195.849L968.731,-195.917L968.562,-195.883L967.814,-195.169C966.727,-194.116 964.892,-192.791 963.669,-192.791C962.853,-192.791 962.343,-193.232 962.343,-193.81C962.343,-194.252 962.785,-195.101 963.091,-195.509L963.94,-195.747C965.809,-196.257 968.086,-197.514 968.086,-199.009C968.086,-199.586 967.644,-199.824 967.066,-199.824C965.911,-199.824 963.533,-198.363 960.916,-195.747L960.509,-195.339C960.475,-195.305 960.475,-195.271 960.475,-195.237C960.475,-195.203 960.509,-195.169 960.543,-195.169C960.576,-195.169 960.61,-195.169 960.644,-195.203L961.222,-195.747C961.018,-195.339 960.916,-194.897 960.916,-194.49C960.916,-193.368 961.97,-192.519 963.329,-192.519C965.368,-192.519 967.168,-194.286 967.95,-195.033L968.697,-195.747L968.765,-195.849ZM967.882,-199.009C967.882,-197.65 965.096,-196.087 963.295,-195.815L964.178,-197.072C965.164,-198.465 966.421,-199.62 967.168,-199.62C967.508,-199.62 967.882,-199.383 967.882,-199.009Z"/>
            <path d="M987.76,-210.188L986.502,-210.188L977.26,-197.989C977.192,-198.941 977.192,-199.824 975.629,-199.824C973.489,-199.824 971.348,-198.397 969.853,-196.97L968.154,-195.373C968.12,-195.339 968.12,-195.305 968.12,-195.271C968.12,-195.237 968.154,-195.203 968.154,-195.203C968.188,-195.203 968.222,-195.203 968.256,-195.237L969.173,-195.985C968.969,-195.475 968.697,-194.863 968.697,-194.354C968.697,-193.13 969.547,-192.519 970.668,-192.519C972.435,-192.519 974.1,-193.946 974.848,-194.558C974.814,-194.286 974.78,-193.946 974.78,-193.64C974.78,-193.232 975.221,-192.519 976.173,-192.519C977.226,-192.519 978.823,-193.98 979.911,-195.033L980.658,-195.747L980.726,-195.849L980.692,-195.917L980.522,-195.883L979.775,-195.169C978.959,-194.388 977.26,-192.927 976.445,-192.927C976.105,-192.927 975.901,-193.13 975.901,-193.368C975.901,-193.844 976.377,-194.592 976.818,-195.169L987.76,-210.188ZM976.988,-198.397C976.988,-196.358 973.013,-192.723 970.77,-192.723C970.261,-192.723 969.921,-192.995 969.921,-193.64C969.921,-194.931 974.1,-199.485 975.901,-199.485C976.513,-199.485 976.988,-199.179 976.988,-198.397Z"/>
            <path d="M984.226,-193.402C984.226,-193.878 983.818,-194.286 983.342,-194.286C982.867,-194.286 982.459,-193.878 982.459,-193.402C982.459,-192.927 982.867,-192.519 983.342,-192.519C983.818,-192.519 984.226,-192.927 984.226,-193.402Z"/>
        </g>
        <g transform="matrix(4.28492,-1.63372e-16,-9.30492e-17,4.28492,6025.38,17116.7)">
            <path d="M826.971,-212.804L826.835,-212.804L826.156,-212.397C825.612,-212.057 825.102,-211.717 824.626,-211.309C823.437,-210.358 820.991,-207.979 818.51,-205.601C815.52,-202.747 812.734,-200.028 811.239,-200.028C810.695,-200.028 810.117,-200.266 810.117,-200.844C810.117,-203.324 815.792,-206.688 815.792,-210.834C815.792,-213.688 813.379,-215.115 810.763,-215.115C808.452,-215.115 805.836,-214.299 803.661,-212.94C800.739,-211.071 798.259,-208.591 798.259,-206.178C798.259,-204.208 799.652,-203.12 801.793,-203.12C806.482,-203.12 810.287,-208.693 810.287,-211.615L810.287,-211.955C810.287,-211.989 810.287,-212.057 810.253,-212.057C810.185,-212.057 810.151,-211.989 810.117,-211.921L809.506,-210.698C808.215,-208.115 804.171,-203.63 801.181,-203.63C799.346,-203.63 798.463,-204.751 798.463,-206.144C798.463,-208.387 801.181,-211.241 803.627,-212.668C805.768,-213.96 808.215,-214.843 810.491,-214.843C813.447,-214.843 815.044,-213.416 815.044,-211.581C815.044,-208.931 809.098,-204.989 809.098,-201.523C809.098,-200.538 809.948,-199.756 810.967,-199.756C812.666,-199.756 814.365,-201.489 816.302,-203.256L819.122,-205.805L816.064,-201.591C812.938,-197.276 809.642,-192.791 804.647,-192.791C802.574,-192.791 800.841,-193.64 800.841,-194.795C800.841,-195.373 800.909,-195.679 801.147,-195.917C801.283,-195.577 801.487,-195.169 802.03,-195.169C802.676,-195.169 803.084,-195.577 803.084,-196.053C803.084,-196.698 802.676,-197.106 802.098,-197.106C801.283,-197.106 800.501,-196.358 800.501,-195.101C800.501,-193.436 802.2,-192.519 804.919,-192.519C809.88,-192.519 813.481,-195.441 816.879,-199.926C819.462,-203.29 821.025,-206.348 823.063,-208.965C823.947,-210.12 825.068,-211.241 826.359,-212.227L826.937,-212.668L826.971,-212.804Z"/>
            <path d="M831.592,-195.849L831.558,-195.917L831.388,-195.883L830.641,-195.169C829.485,-194.082 827.447,-192.859 826.665,-192.859C826.291,-192.859 826.088,-192.961 826.088,-193.266C826.088,-193.606 826.529,-194.184 827.413,-195.373L830.471,-199.485L828.806,-199.485C828.126,-198.703 827.379,-197.82 826.767,-197.072C825.51,-195.577 822.826,-192.859 820.923,-192.859C820.379,-192.859 820.107,-193.096 820.107,-193.538C820.107,-193.878 820.549,-194.422 821.263,-195.373L824.457,-199.485L822.792,-199.485C822.044,-198.737 821.365,-198.125 820.583,-197.412L818.34,-195.305C818.306,-195.271 818.272,-195.237 818.272,-195.169L818.306,-195.135C818.34,-195.135 818.374,-195.135 818.442,-195.203L819.801,-196.392C819.462,-195.543 819.088,-194.761 819.088,-193.98C819.088,-192.893 820.039,-192.519 820.787,-192.519C822.214,-192.519 823.641,-193.742 825.136,-194.897C825.102,-194.558 825.034,-194.218 825.034,-193.878C825.034,-192.927 825.51,-192.519 826.393,-192.519C827.651,-192.519 829.791,-194.116 830.777,-195.033L831.524,-195.747L831.592,-195.849Z"/>
            <path d="M845.422,-210.188L844.232,-210.188L838.32,-202.781C837.437,-201.693 836.451,-200.844 835.568,-199.96L831.558,-195.951L831.083,-195.441C831.049,-195.407 831.015,-195.373 831.015,-195.305L831.049,-195.271C831.083,-195.271 831.116,-195.271 831.184,-195.339L836.961,-200.946L830.403,-192.519L832.136,-192.519L834.446,-195.543C835.16,-196.494 836.519,-197.582 837.844,-197.582C838.184,-197.582 838.626,-197.378 838.626,-197.038C838.626,-196.766 838.456,-196.528 838.286,-196.291L837.505,-195.203C837.233,-194.795 837.097,-194.422 837.097,-193.912C837.097,-193.063 838.048,-192.519 838.796,-192.519C839.713,-192.519 841.446,-193.334 843.315,-195.033L844.096,-195.747L844.164,-195.849L844.13,-195.917L843.961,-195.883L843.213,-195.169C841.31,-193.368 839.543,-192.859 838.898,-192.859C838.694,-192.859 838.184,-192.995 838.184,-193.368C838.184,-193.64 838.286,-193.912 838.626,-194.32L839.305,-195.203C839.543,-195.543 839.747,-196.019 839.747,-196.392C839.747,-197.208 839.102,-197.922 838.218,-197.922C837.776,-197.922 837.505,-197.888 836.757,-197.616C837.742,-198.363 839.543,-199.586 841.004,-199.586C841.208,-199.586 841.412,-199.519 841.582,-199.417C841.48,-199.315 841.242,-199.009 841.242,-198.737C841.242,-198.295 841.616,-197.922 842.058,-197.922C842.431,-197.922 842.805,-198.159 842.805,-198.567C842.805,-199.519 842.092,-199.824 841.344,-199.824C839.17,-199.824 837.403,-198.431 835.738,-197.242L845.422,-210.188Z"/>
            <path d="M852.625,-203.46C852.625,-203.902 852.285,-204.242 851.844,-204.242C851.436,-204.242 851.062,-203.902 851.062,-203.46C851.062,-203.018 851.436,-202.679 851.844,-202.679C852.285,-202.679 852.625,-203.018 852.625,-203.46ZM850.485,-195.849L850.451,-195.917L850.281,-195.883L849.533,-195.169C848.344,-194.048 846.441,-192.927 845.795,-192.927C845.422,-192.927 845.218,-193.164 845.218,-193.538C845.218,-193.878 845.659,-194.422 846.373,-195.373L849.567,-199.485L847.902,-199.485C847.155,-198.737 846.441,-198.023 845.659,-197.31L843.417,-195.271C843.383,-195.237 843.349,-195.203 843.349,-195.135L843.383,-195.101C843.417,-195.101 843.451,-195.101 843.519,-195.169L844.81,-196.257C844.402,-195.407 843.995,-194.558 843.995,-193.776C843.995,-192.893 844.47,-192.519 845.354,-192.519C846.577,-192.519 848.65,-194.082 849.669,-195.033L850.417,-195.747L850.485,-195.849Z"/>
            <path d="M877.056,-195.509C877.056,-195.577 876.988,-195.645 876.886,-195.645C876.784,-195.645 876.614,-195.543 876.444,-195.305C875.663,-194.32 873.318,-193.368 872.061,-193.368C870.022,-193.368 868.935,-194.727 868.052,-196.732C869.037,-198.193 870.328,-200.164 871.076,-200.844C871.687,-201.421 872.333,-201.863 872.707,-201.863C872.741,-201.863 872.775,-201.829 872.775,-201.761C872.775,-201.557 872.673,-201.421 872.673,-201.217C872.673,-200.776 873.013,-200.47 873.488,-200.47C873.998,-200.47 874.44,-200.878 874.44,-201.421C874.44,-201.931 874.032,-202.339 873.556,-202.339C872.979,-202.339 871.755,-201.829 870.804,-200.912C869.887,-200.028 868.969,-198.737 867.848,-197.174C867.202,-199.383 866.862,-200.878 866.625,-203.936C869.887,-206.518 871.042,-207.538 871.042,-208.863C871.042,-209.644 870.498,-210.188 869.751,-210.188C869.003,-210.188 867.916,-209.712 867.168,-208.965C866.013,-207.809 865.367,-205.907 865.265,-203.392C860.542,-199.96 858.402,-197.888 858.402,-195.407C858.402,-193.606 860.033,-192.315 861.8,-192.315C863.77,-192.315 865.197,-193.334 866.896,-195.169C867.882,-193.436 869.445,-192.519 871.416,-192.519C872.639,-192.519 873.556,-192.757 874.61,-193.3C875.323,-193.674 877.056,-194.931 877.056,-195.509ZM870.77,-208.829C870.77,-207.538 869.479,-206.552 866.591,-204.276L866.591,-205.023C866.591,-207.334 868.154,-209.916 869.683,-209.916C870.26,-209.916 870.77,-209.508 870.77,-208.829ZM866.693,-195.577C864.892,-193.98 864.076,-193.504 862.615,-193.504C860.882,-193.504 859.931,-194.354 859.931,-195.713C859.931,-198.499 861.969,-200.674 865.299,-203.052C865.639,-199.179 865.877,-197.718 866.693,-195.577Z"/>
            <path d="M919.802,-214.809C919.802,-214.843 919.768,-214.877 919.734,-214.877L919.326,-214.775C917.967,-214.435 916.098,-214.401 914.637,-214.401C911.681,-214.401 905.7,-215.115 901.793,-215.115C896.526,-215.115 891.259,-212.329 891.259,-208.965C891.259,-206.688 892.686,-205.873 894.521,-205.873C897.477,-205.873 900.502,-209.135 901.317,-211.581L901.419,-211.887C901.419,-211.921 901.351,-211.989 901.317,-211.989C901.283,-211.989 901.283,-211.955 901.249,-211.921L901.045,-211.411C900.875,-210.969 900.57,-210.494 900.298,-210.086C898.701,-207.707 896.832,-206.144 894.453,-206.144C892.822,-206.144 891.803,-206.994 891.803,-208.013C891.803,-210.222 896.526,-214.843 901.861,-214.843C905.87,-214.843 910.865,-213.382 913.991,-213.382C916.03,-213.382 918.103,-213.688 919.36,-214.469L919.734,-214.707C919.768,-214.707 919.802,-214.775 919.802,-214.809ZM909.642,-212.091L909.608,-212.261C907.637,-211.547 904.681,-208.965 902.235,-205.771C900.468,-203.46 896.424,-197.786 895.201,-196.596C893.128,-194.592 891.259,-192.791 887.963,-192.791C885.211,-192.791 884.022,-194.354 884.022,-195.169C884.022,-195.441 884.056,-195.747 884.226,-196.019C884.497,-195.713 884.735,-195.305 885.415,-195.305C885.993,-195.305 886.434,-195.713 886.434,-196.291C886.434,-197.004 885.823,-197.31 885.313,-197.31C884.26,-197.31 883.75,-196.358 883.75,-195.373C883.75,-193.81 885.585,-192.519 887.997,-192.519C889.968,-192.519 892.041,-192.859 895.337,-195.067C897.851,-196.732 900.366,-200.062 901.453,-201.727L903.39,-204.683C904.885,-206.994 905.972,-209.882 909.642,-212.091Z"/>
            <path d="M915.316,-195.985L915.248,-196.053C915.215,-196.053 915.215,-196.053 915.113,-195.985L914.059,-194.999C913.244,-194.252 911.817,-192.927 911.001,-192.927C910.729,-192.927 910.525,-193.13 910.525,-193.3C910.525,-193.674 910.933,-194.252 911.375,-194.897L914.603,-199.654L913.278,-199.654L911.987,-198.091L911.987,-198.737C911.987,-199.213 911.409,-199.824 910.627,-199.824C909.37,-199.824 907.06,-198.465 905.802,-197.242L903.866,-195.339L903.832,-195.237L903.9,-195.203L903.967,-195.237L904.443,-195.645C904.273,-195.169 904.103,-194.49 904.103,-194.082C904.103,-193.096 904.681,-192.519 905.768,-192.519C906.38,-192.519 907.467,-193.029 908.419,-193.81L909.54,-194.761C909.472,-194.456 909.37,-194.082 909.37,-193.81C909.37,-193.198 909.778,-192.519 910.593,-192.519C911.647,-192.519 913.244,-193.878 914.229,-194.863L915.248,-195.883C915.282,-195.917 915.316,-195.951 915.316,-195.985ZM911.783,-198.635C911.783,-197.31 907.705,-192.791 906.04,-192.791C905.598,-192.791 905.259,-193.029 905.259,-193.47C905.259,-194.626 908.894,-199.553 910.695,-199.553C911.205,-199.553 911.783,-199.179 911.783,-198.635Z"/>
            <path d="M929.044,-210.188L927.855,-210.188L921.942,-202.781C921.059,-201.693 920.074,-200.844 919.19,-199.96L915.181,-195.951L914.705,-195.441C914.671,-195.407 914.637,-195.373 914.637,-195.305L914.671,-195.271C914.705,-195.271 914.739,-195.271 914.807,-195.339L920.583,-200.946L914.025,-192.519L915.758,-192.519L918.069,-195.543C918.782,-196.494 920.141,-197.582 921.467,-197.582C921.806,-197.582 922.248,-197.378 922.248,-197.038C922.248,-196.766 922.078,-196.528 921.908,-196.291L921.127,-195.203C920.855,-194.795 920.719,-194.422 920.719,-193.912C920.719,-193.063 921.671,-192.519 922.418,-192.519C923.335,-192.519 925.068,-193.334 926.937,-195.033L927.719,-195.747L927.787,-195.849L927.753,-195.917L927.583,-195.883L926.835,-195.169C924.933,-193.368 923.166,-192.859 922.52,-192.859C922.316,-192.859 921.806,-192.995 921.806,-193.368C921.806,-193.64 921.908,-193.912 922.248,-194.32L922.928,-195.203C923.166,-195.543 923.369,-196.019 923.369,-196.392C923.369,-197.208 922.724,-197.922 921.84,-197.922C921.399,-197.922 921.127,-197.888 920.379,-197.616C921.365,-198.363 923.166,-199.586 924.627,-199.586C924.831,-199.586 925.034,-199.519 925.204,-199.417C925.102,-199.315 924.865,-199.009 924.865,-198.737C924.865,-198.295 925.238,-197.922 925.68,-197.922C926.054,-197.922 926.428,-198.159 926.428,-198.567C926.428,-199.519 925.714,-199.824 924.966,-199.824C922.792,-199.824 921.025,-198.431 919.36,-197.242L929.044,-210.188Z"/>
            <path d="M936.248,-203.46C936.248,-203.902 935.908,-204.242 935.466,-204.242C935.058,-204.242 934.684,-203.902 934.684,-203.46C934.684,-203.018 935.058,-202.679 935.466,-202.679C935.908,-202.679 936.248,-203.018 936.248,-203.46ZM934.107,-195.849L934.073,-195.917L933.903,-195.883L933.155,-195.169C931.966,-194.048 930.063,-192.927 929.418,-192.927C929.044,-192.927 928.84,-193.164 928.84,-193.538C928.84,-193.878 929.282,-194.422 929.995,-195.373L933.189,-199.485L931.524,-199.485C930.777,-198.737 930.063,-198.023 929.282,-197.31L927.039,-195.271C927.005,-195.237 926.971,-195.203 926.971,-195.135L927.005,-195.101C927.039,-195.101 927.073,-195.101 927.141,-195.169L928.432,-196.257C928.025,-195.407 927.617,-194.558 927.617,-193.776C927.617,-192.893 928.093,-192.519 928.976,-192.519C930.199,-192.519 932.272,-194.082 933.291,-195.033L934.039,-195.747L934.107,-195.849Z"/>
        </g>
    </g>
</svg>
