<?xml version="1.0" encoding="UTF-8" standalone="no"?>
<!DOCTYPE svg PUBLIC "-//W3C//DTD SVG 1.1//EN" "http://www.w3.org/Graphics/SVG/1.1/DTD/svg11.dtd">
<svg width="291px" height="115px" version="1.1" xmlns="http://www.w3.org/2000/svg" xmlns:xlink="http://www.w3.org/1999/xlink" xml:space="preserve" xmlns:serif="http://www.serif.com/" style="fill-rule:evenodd;clip-rule:evenodd;stroke-linejoin:round;stroke-miterlimit:2;">
    <g transform="matrix(1,0,0,1,-11516.6,-4059.78)">
        <g transform="matrix(0.910286,0,0,0.910286,10649.7,2415.31)">
            <path d="M1089.65,1807.05C1089.65,1806.67 1089.53,1806.54 1089.14,1806.54C1084.68,1809.85 1078.82,1815.33 1072.2,1822.09C1063.66,1830.75 1053.85,1841.71 1044.29,1852.67C1037.15,1860.83 1027.85,1872.3 1021.1,1880.32C1016.13,1886.06 1012.81,1890.01 1010.39,1890.01C1009.37,1890.01 1008.73,1889.24 1008.73,1888.48C1008.73,1883 1033.58,1845.66 1040.97,1834.83C1047.35,1825.53 1054.87,1815.46 1056.52,1812.66L1059.84,1807.05C1059.84,1806.67 1059.71,1806.54 1059.33,1806.54C1056.27,1808.32 1049.64,1815.08 1041.61,1823.11C1030.27,1834.45 1013.2,1856.24 995.227,1873.31C984.65,1883.25 974.837,1890.13 964.133,1890.26C955.723,1890.26 953.429,1886.18 953.429,1881.6C954.958,1882.62 956.105,1883.38 958.016,1883.38C960.31,1883.38 962.222,1881.6 962.222,1879.43C962.222,1877.01 960.183,1875.35 958.144,1875.35C955.213,1875.35 952.409,1878.54 952.409,1882.36C952.409,1887.97 957.762,1891.28 964.006,1891.28C972.671,1891.28 982.229,1886.06 991.531,1878.16C1000.58,1870.51 1010.26,1859.04 1019.95,1848.34C1034.99,1831.77 1044.67,1820.3 1055.63,1810.87L1052.95,1814.31C1047.09,1821.96 1004.27,1870.64 1004.27,1885.16C1004.27,1889.12 1006.31,1891.28 1009.12,1891.28C1012.05,1891.28 1014.34,1889.24 1019.57,1883.38C1026.83,1875.23 1036.13,1863.12 1046.58,1851.27C1059.45,1836.61 1073.47,1821.32 1084.56,1811.38L1081.88,1814.82C1075.51,1822.98 1032.56,1871.53 1032.56,1884.15C1032.56,1889.12 1035.75,1891.28 1040.08,1891.28C1045.31,1891.28 1050.53,1886.57 1056.27,1881.47L1058.94,1879.05L1059.45,1878.28L1059.2,1878.03L1058.82,1878.16L1055.63,1881.22C1051.81,1884.78 1045.43,1890.01 1041.74,1890.01C1039.19,1890.01 1037.66,1888.86 1037.66,1886.57C1037.66,1881.34 1054.1,1857.38 1067.74,1838.14L1089.65,1807.05Z" style="fill-rule:nonzero;"/>
            <path d="M1087.36,1878.79L1087.23,1878.54L1086.6,1878.67L1083.79,1881.34C1079.71,1885.29 1072.83,1890.26 1068.25,1890.26C1065.19,1890.26 1063.28,1888.61 1063.28,1886.44C1063.28,1884.78 1064.93,1881.6 1066.08,1880.07L1069.27,1879.18C1076.27,1877.26 1084.81,1872.55 1084.81,1866.94C1084.81,1864.78 1083.15,1863.88 1080.99,1863.88C1076.66,1863.88 1067.74,1869.36 1057.92,1879.18L1056.39,1880.7C1056.27,1880.83 1056.27,1880.96 1056.27,1881.09C1056.27,1881.22 1056.39,1881.34 1056.52,1881.34C1056.65,1881.34 1056.78,1881.34 1056.9,1881.22L1059.07,1879.18C1058.31,1880.7 1057.92,1882.36 1057.92,1883.89C1057.92,1888.1 1061.87,1891.28 1066.97,1891.28C1074.62,1891.28 1081.37,1884.66 1084.3,1881.85L1087.11,1879.18L1087.36,1878.79ZM1084.05,1866.94C1084.05,1872.04 1073.6,1877.9 1066.84,1878.92L1070.16,1874.21C1073.85,1868.98 1078.57,1864.65 1081.37,1864.65C1082.64,1864.65 1084.05,1865.54 1084.05,1866.94Z" style="fill-rule:nonzero;"/>
            <path d="M1122.79,1878.79L1122.66,1878.54L1122.02,1878.67L1119.22,1881.34C1115.01,1885.29 1108.13,1890.39 1102.91,1890.39C1101.38,1890.39 1099.85,1890.01 1098.45,1889.12C1102.14,1887.33 1111.57,1882.36 1111.57,1874.46C1111.57,1869.62 1106.73,1864.27 1106.73,1860.95C1108.13,1858.91 1110.55,1856.88 1110.55,1855.35C1110.55,1854.71 1110.04,1854.33 1109.53,1854.33C1107.24,1854.33 1106.6,1858.91 1105.2,1860.95C1096.54,1870 1092.08,1874.21 1086.09,1879.69L1082.26,1883.13L1082.52,1883.51L1083.03,1883.51C1082.52,1884.4 1082.52,1885.29 1082.52,1886.31C1082.52,1888.73 1085.32,1891.28 1089.91,1891.28C1093.22,1891.28 1095.9,1890.26 1097.17,1889.75C1099.08,1890.52 1101,1891.28 1103.03,1891.28C1108.9,1891.28 1115.9,1885.16 1119.6,1881.85L1122.53,1879.18L1122.79,1878.79ZM1106.48,1868.09C1106.48,1878.67 1093.99,1889.88 1088.12,1889.88C1084.81,1889.88 1083.92,1888.1 1083.79,1886.69C1084.43,1887.46 1085.45,1887.97 1086.47,1887.97C1088.63,1887.97 1089.78,1886.57 1089.78,1884.66C1089.78,1882.49 1087.87,1881.34 1086.98,1881.34C1086.34,1881.34 1085.7,1881.47 1085.32,1881.47C1093.99,1873.44 1100.49,1866.94 1105.58,1861.97C1106.35,1864.52 1106.48,1866.56 1106.48,1868.09Z" style="fill-rule:nonzero;"/>
            <path d="M1158.21,1878.79L1158.09,1878.54L1157.45,1878.67L1154.64,1881.34C1150.44,1885.29 1143.56,1890.39 1138.33,1890.39C1136.8,1890.39 1135.28,1890.01 1133.87,1889.12C1137.57,1887.33 1147,1882.36 1147,1874.46C1147,1869.62 1142.16,1864.27 1142.16,1860.95C1143.56,1858.91 1145.98,1856.88 1145.98,1855.35C1145.98,1854.71 1145.47,1854.33 1144.96,1854.33C1142.67,1854.33 1142.03,1858.91 1140.63,1860.95C1131.96,1870 1127.5,1874.21 1121.51,1879.69L1117.69,1883.13L1117.94,1883.51L1118.45,1883.51C1117.94,1884.4 1117.94,1885.29 1117.94,1886.31C1117.94,1888.73 1120.75,1891.28 1125.34,1891.28C1128.65,1891.28 1131.32,1890.26 1132.6,1889.75C1134.51,1890.52 1136.42,1891.28 1138.46,1891.28C1144.32,1891.28 1151.33,1885.16 1155.03,1881.85L1157.96,1879.18L1158.21,1878.79ZM1141.9,1868.09C1141.9,1878.67 1129.41,1889.88 1123.55,1889.88C1120.24,1889.88 1119.35,1888.1 1119.22,1886.69C1119.86,1887.46 1120.88,1887.97 1121.89,1887.97C1124.06,1887.97 1125.21,1886.57 1125.21,1884.66C1125.21,1882.49 1123.3,1881.34 1122.4,1881.34C1121.77,1881.34 1121.13,1881.47 1120.75,1881.47C1129.41,1873.44 1135.91,1866.94 1141.01,1861.97C1141.77,1864.52 1141.9,1866.56 1141.9,1868.09Z" style="fill-rule:nonzero;"/>
            <path d="M1198.74,1878.28L1198.48,1878.03C1198.35,1878.03 1198.35,1878.03 1197.97,1878.28L1194.02,1881.98C1190.96,1884.78 1185.61,1889.75 1182.55,1889.75C1181.53,1889.75 1180.77,1888.99 1180.77,1888.35C1180.77,1886.95 1182.3,1884.78 1183.95,1882.36L1196.06,1864.52L1191.09,1864.52L1186.25,1870.38L1186.25,1867.96C1186.25,1866.18 1184.08,1863.88 1181.15,1863.88C1176.44,1863.88 1167.77,1868.98 1163.06,1873.57L1155.79,1880.7L1155.66,1881.09L1155.92,1881.22L1156.17,1881.09L1157.96,1879.56C1157.32,1881.34 1156.68,1883.89 1156.68,1885.42C1156.68,1889.12 1158.85,1891.28 1162.93,1891.28C1165.22,1891.28 1169.3,1889.37 1172.87,1886.44L1177.07,1882.87C1176.82,1884.02 1176.44,1885.42 1176.44,1886.44C1176.44,1888.73 1177.96,1891.28 1181.02,1891.28C1184.97,1891.28 1190.96,1886.18 1194.66,1882.49L1198.48,1878.67C1198.61,1878.54 1198.74,1878.41 1198.74,1878.28ZM1185.48,1868.34C1185.48,1873.31 1170.19,1890.26 1163.95,1890.26C1162.29,1890.26 1161.02,1889.37 1161.02,1887.71C1161.02,1883.38 1174.65,1864.9 1181.4,1864.9C1183.32,1864.9 1185.48,1866.31 1185.48,1868.34Z" style="fill-rule:nonzero;"/>
            <path d="M1243.21,1878.79L1243.08,1878.54L1242.45,1878.67L1239.64,1881.34C1232.89,1887.71 1225.75,1890.01 1221.16,1891.03L1240.28,1864.65L1235.31,1864.65L1230.34,1870.89C1230.21,1868.34 1229.7,1863.88 1223.2,1863.88C1217.34,1863.88 1210.46,1866.82 1202.3,1874.59L1196.06,1880.58C1195.93,1880.7 1195.93,1880.83 1195.93,1880.96C1195.93,1881.09 1196.06,1881.22 1196.06,1881.22C1196.19,1881.22 1196.32,1881.22 1196.44,1881.09L1199.76,1878.28C1198.99,1880.32 1197.97,1882.62 1197.97,1884.66C1197.97,1888.86 1200.9,1891.28 1205.24,1891.28C1209.44,1891.28 1212.63,1889.75 1217.21,1887.59L1212.75,1893.45C1203.58,1897.78 1195.81,1901.35 1185.87,1909.25C1178.22,1915.37 1172.23,1922.5 1172.23,1927.35C1172.23,1930.66 1174.78,1932.06 1177.45,1932.06C1183.44,1932.06 1191.35,1927.09 1201.41,1916.39C1207.66,1909.63 1218.87,1894.21 1220.14,1892.43C1227.28,1890.52 1233.27,1888.35 1240.15,1881.85L1242.95,1879.18L1243.21,1878.79ZM1229.32,1869.75C1229.32,1877.14 1215.3,1890.39 1206.51,1890.39C1204.34,1890.39 1202.81,1889.24 1202.81,1887.46C1202.81,1883.25 1216.58,1864.9 1223.97,1864.9C1226.64,1864.9 1229.32,1866.56 1229.32,1869.75ZM1211.86,1894.72C1199.5,1912.18 1186.76,1931.04 1177.2,1931.04C1174.78,1931.04 1173.25,1929.51 1173.25,1927.35C1173.25,1923.01 1178.22,1916.77 1184.34,1911.54C1193,1904.15 1205.36,1897.53 1211.86,1894.72Z" style="fill-rule:nonzero;"/>
            <path d="M1271.5,1878.79L1271.37,1878.54L1270.74,1878.67L1267.93,1881.34C1263.85,1885.29 1256.97,1890.26 1252.38,1890.26C1249.33,1890.26 1247.41,1888.61 1247.41,1886.44C1247.41,1884.78 1249.07,1881.6 1250.22,1880.07L1253.4,1879.18C1260.41,1877.26 1268.95,1872.55 1268.95,1866.94C1268.95,1864.78 1267.3,1863.88 1265.13,1863.88C1260.8,1863.88 1251.88,1869.36 1242.06,1879.18L1240.53,1880.7C1240.41,1880.83 1240.41,1880.96 1240.41,1881.09C1240.41,1881.22 1240.53,1881.34 1240.66,1881.34C1240.79,1881.34 1240.92,1881.34 1241.04,1881.22L1243.21,1879.18C1242.45,1880.7 1242.06,1882.36 1242.06,1883.89C1242.06,1888.1 1246.01,1891.28 1251.11,1891.28C1258.76,1891.28 1265.51,1884.66 1268.44,1881.85L1271.25,1879.18L1271.5,1878.79ZM1268.19,1866.94C1268.19,1872.04 1257.74,1877.9 1250.98,1878.92L1254.3,1874.21C1257.99,1868.98 1262.71,1864.65 1265.51,1864.65C1266.79,1864.65 1268.19,1865.54 1268.19,1866.94Z" style="fill-rule:nonzero;"/>
        </g>
    </g>
</svg>
