<?xml version="1.0" encoding="UTF-8" standalone="no"?>
<!DOCTYPE svg PUBLIC "-//W3C//DTD SVG 1.1//EN" "http://www.w3.org/Graphics/SVG/1.1/DTD/svg11.dtd">
<svg width="365px" height="78px" version="1.1" xmlns="http://www.w3.org/2000/svg" xmlns:xlink="http://www.w3.org/1999/xlink" xml:space="preserve" xmlns:serif="http://www.serif.com/" style="fill-rule:evenodd;clip-rule:evenodd;stroke-linejoin:round;stroke-miterlimit:2;">
    <g transform="matrix(1,0,0,1,-11920.4,-11569.9)">
        <g transform="matrix(0.913109,0,0,0.913109,11064.5,9920.13)">
            <path d="M1040.34,1830.05C1040.34,1819.63 1034.5,1814.68 1031.45,1812.39C1033.86,1810.74 1036.91,1809.09 1038.56,1808.2L1040.34,1807.31L1040.34,1806.8L1039.96,1806.8L1037.67,1807.82C1035.26,1808.96 1032.21,1810.74 1030.69,1811.63C1026.88,1808.71 1021.92,1806.8 1010.62,1806.8C999.055,1806.8 985.97,1811.12 975.934,1817.35C961.452,1826.24 950.018,1839.2 950.018,1848.85C950.018,1853.68 954.211,1857.74 960.69,1857.74C975.426,1857.74 992.957,1839.58 995.879,1827.51L997.023,1822.81C997.023,1822.55 997.023,1822.17 996.769,1822.17C996.514,1822.17 996.26,1822.55 996.133,1822.81L994.609,1825.48C990.544,1832.46 983.938,1840.21 977.586,1846.18C970.217,1853.17 964.12,1856.47 959.546,1856.47C954.719,1856.47 951.035,1853.04 951.035,1848.6C951.035,1837.67 966.406,1823.83 976.951,1817.73C987.368,1811.63 999.69,1807.82 1010.49,1807.82C1021.67,1807.82 1026.37,1809.34 1029.67,1812.26C1011.76,1825.1 1007.95,1831.95 994.482,1851.27C988.13,1860.41 971.361,1890.27 950.527,1890.27C943.031,1890.27 938.331,1886.45 938.331,1882.01C938.331,1880.99 938.458,1880.61 938.839,1879.6C939.982,1880.23 940.745,1880.87 943.285,1880.87C945.445,1880.87 947.096,1879.34 947.096,1877.18C947.096,1874.64 944.937,1873.37 943.031,1873.37C939.728,1873.37 937.315,1877.31 937.315,1881.5C937.315,1887.47 942.396,1891.28 951.289,1891.28C976.061,1891.28 994.355,1863.72 1001.22,1852.66C1014.94,1830.56 1015.19,1824.71 1030.56,1812.9C1032.21,1813.79 1037.93,1819.25 1037.93,1824.08C1037.93,1833.48 1023.32,1848.6 1016.59,1853.17C1014.05,1851.9 1012.27,1851.39 1010.74,1851.39C1007.69,1851.39 1004.9,1852.54 1004.9,1854.06C1004.9,1856.6 1007.19,1856.73 1009.47,1856.73C1011.12,1856.73 1015.32,1855.97 1016.46,1855.71C1016.59,1856.35 1016.71,1856.98 1016.71,1857.49C1016.71,1859.27 1014.17,1862.83 1011.63,1866L1005.53,1873.75C1002.61,1877.56 1000.71,1881.12 1000.71,1884.3C1000.71,1888.11 1003.76,1891.28 1008.2,1891.28C1012.39,1891.28 1019.89,1886.33 1026.62,1879.85C1026.88,1879.6 1027.13,1879.34 1027.13,1879.09L1027,1878.83C1026.88,1878.83 1026.75,1878.83 1026.62,1878.96L1023.57,1881.63C1021.03,1883.91 1012.9,1890.27 1009.35,1890.27C1005.79,1890.27 1004.77,1888.74 1004.77,1886.58C1004.77,1884.68 1006.55,1882.13 1007.95,1880.36L1013.92,1873.12C1018.11,1868.03 1019.89,1865.75 1019.89,1860.29C1019.89,1858.76 1018.75,1856.47 1017.98,1855.2C1026.62,1851.65 1040.34,1845.42 1040.34,1830.05ZM1015.06,1853.93C1012.52,1855.08 1011.38,1855.58 1008.58,1855.58C1007.69,1855.58 1005.92,1855.33 1005.92,1854.31C1005.92,1852.79 1008.08,1852.41 1009.09,1852.41C1010.87,1852.41 1012.52,1852.66 1015.06,1853.93Z" style="fill:white;fill-rule:nonzero;"/>
            <path d="M1147.56,1813.53C1147.56,1809.22 1144.64,1806.8 1139.56,1806.8C1121.52,1806.8 1100.69,1834.88 1093.95,1844.53L1085.7,1845.93C1080.87,1846.69 1074.64,1847.58 1067.78,1848.22L1063.59,1848.6C1063.46,1848.6 1063.08,1848.6 1063.08,1848.85C1063.08,1849.11 1063.46,1849.23 1063.72,1849.23L1065.12,1849.49C1065.62,1849.49 1077.44,1848.22 1085.95,1846.82L1093.06,1845.67L1086.59,1854.69C1079.98,1863.97 1073.75,1873.12 1067.53,1879.09C1061.43,1884.93 1055.59,1890.27 1043.65,1890.27C1035.26,1890.27 1030.56,1885.44 1030.56,1880.74C1030.56,1879.72 1030.69,1878.45 1031.32,1877.43C1032.47,1878.58 1033.23,1879.85 1035.77,1879.85C1037.93,1879.85 1039.58,1878.32 1039.58,1876.16C1039.58,1873.12 1037.55,1872.35 1035.64,1872.35C1032.21,1872.35 1029.54,1875.91 1029.54,1880.23C1029.54,1886.45 1035.52,1891.28 1043.77,1891.28C1049.24,1891.28 1053.05,1891.28 1060.16,1887.98C1068.67,1884.17 1078.45,1876.67 1088.11,1863.72C1092.81,1857.36 1099.92,1846.95 1101.96,1843.52C1109.07,1841.48 1116.31,1839.32 1125.08,1835.13C1129.78,1832.97 1147.56,1823.83 1147.56,1813.53ZM1144.77,1812.52C1144.77,1816.84 1134.99,1828.78 1121.52,1835.38C1114.66,1838.82 1108.18,1841.1 1102.72,1842.37C1107.04,1835.26 1124.19,1807.82 1138.92,1807.82C1142.74,1807.82 1144.77,1809.6 1144.77,1812.52Z" style="fill:white;fill-rule:nonzero;"/>
            <path d="M1268.25,1807.06C1268.25,1806.8 1268,1806.8 1267.62,1806.8L1263.42,1808.45C1249.83,1813.79 1232.93,1825.86 1222.77,1835.64C1213.5,1844.53 1192.28,1867.14 1184.15,1873.5C1176.15,1879.85 1168.02,1885.44 1158.36,1889.38C1167.38,1881.25 1174.75,1873.88 1183.52,1862.44C1188.09,1856.47 1192.66,1848.47 1197.87,1839.45L1205.87,1825.6C1209.43,1819.51 1216.8,1810.49 1217.69,1809.72L1220.36,1807.56C1220.48,1807.44 1220.61,1807.18 1220.61,1807.06C1220.61,1806.93 1220.48,1806.8 1220.36,1806.8L1219.34,1807.18C1218.58,1807.56 1218.2,1807.69 1217.56,1808.2L1214,1811.12C1210.95,1813.66 1206.89,1818.74 1203.33,1823.19C1193.17,1831.32 1182.63,1837.55 1177.54,1837.55C1174.24,1837.55 1173.73,1836.02 1173.73,1834.62C1173.73,1832.97 1175.64,1830.56 1178.82,1827.64C1181.23,1825.35 1182.88,1822.93 1182.88,1819.51C1182.88,1814.93 1179.07,1812.26 1173.86,1812.26C1164.2,1812.26 1155.19,1820.39 1149.85,1824.97C1146.04,1828.27 1143.12,1832.08 1140.7,1834.75L1139.56,1836.02C1139.56,1836.27 1139.81,1836.4 1139.94,1836.4C1140.07,1836.4 1140.45,1836.02 1140.58,1835.89L1144.01,1831.95C1147.94,1827.51 1154.04,1822.43 1155.82,1821.03C1159.25,1818.49 1165.48,1813.28 1173.73,1813.28C1177.92,1813.28 1179.96,1815.06 1179.96,1816.84C1179.96,1818.74 1178.05,1821.03 1175.89,1823.32C1173.23,1826.11 1170.43,1829.03 1170.43,1832.34C1170.43,1835.89 1173.1,1838.56 1177.42,1838.56C1183.26,1838.56 1195.2,1830.56 1199.27,1827.76C1193.68,1835.13 1187.07,1845.55 1181.36,1854.95C1176.02,1863.59 1170.3,1871.85 1166.62,1877.05C1164.84,1879.6 1159.51,1885.69 1158.36,1887.34L1156.08,1890.65C1155.95,1890.9 1155.82,1891.03 1155.82,1891.15C1155.82,1891.28 1156.08,1891.28 1156.33,1891.28L1158.36,1890.52C1163.7,1888.49 1176.91,1880.99 1188.47,1871.08C1198.12,1862.83 1208.41,1850.88 1219.21,1840.34C1228.49,1831.32 1240.94,1821.41 1248.18,1817.22C1253.13,1814.42 1258.34,1811.38 1263.93,1809.09L1267.74,1807.56C1268,1807.44 1268.25,1807.31 1268.25,1807.06Z" style="fill:white;fill-rule:nonzero;"/>
            <path d="M1336.21,1807.31L1335.83,1806.8L1332.4,1808.2C1329.99,1809.22 1325.8,1811.5 1323.89,1812.64C1319.95,1809.47 1312.97,1806.8 1303.57,1806.8C1292.01,1806.8 1278.67,1810.87 1268.88,1816.71C1254.4,1825.35 1243.1,1838.69 1243.1,1848.34C1243.1,1854.69 1247.54,1858.25 1254.02,1858.25C1268.76,1858.25 1284.89,1840.09 1287.56,1828.02L1288.58,1823.32C1288.58,1823.06 1288.58,1822.68 1288.32,1822.68C1288.07,1822.68 1287.81,1823.06 1287.69,1823.32L1286.54,1825.98C1283.49,1832.97 1276.76,1840.59 1270.28,1846.69C1262.79,1853.55 1257.83,1856.98 1252.5,1856.98C1247.29,1856.98 1244.11,1853.55 1244.11,1848.09C1244.11,1837.16 1259.23,1822.93 1269.9,1817.09C1280.19,1811.38 1292.64,1807.82 1303.44,1807.82C1313.09,1807.82 1319.57,1810.87 1322.88,1813.28C1306.23,1826.75 1300.64,1836.66 1290.48,1852.28C1289.21,1851.39 1288.32,1850.5 1288.32,1848.09C1288.32,1844.4 1291.12,1841.23 1293.02,1839.58C1294.67,1838.18 1295.94,1837.55 1297.34,1837.04L1297.34,1836.4C1295.18,1837.04 1294.17,1837.67 1292.51,1838.94C1290.61,1840.47 1287.56,1843.77 1287.56,1848.34C1287.56,1850.5 1289.08,1852.66 1289.85,1853.42C1283.88,1862.32 1267.87,1890.27 1248.31,1890.27C1240.81,1890.27 1236.11,1886.45 1236.11,1882.01C1236.11,1880.99 1236.24,1879.85 1236.62,1878.83C1237.76,1880.48 1238.52,1882.01 1241.06,1882.01C1243.22,1882.01 1244.88,1880.48 1244.88,1878.32C1244.88,1875.78 1242.71,1874.51 1240.81,1874.51C1237.51,1874.51 1235.09,1877.82 1235.09,1881.5C1235.09,1887.47 1240.17,1891.28 1249.07,1891.28C1272.32,1891.28 1289.46,1866 1295.82,1855.97C1297.6,1856.35 1299.25,1856.47 1300.77,1856.47C1317.67,1856.47 1332.02,1843.39 1332.02,1828.91C1332.02,1820.27 1326.31,1815.06 1325.16,1813.66C1326.82,1812.26 1328.59,1810.74 1333.42,1808.58L1336.21,1807.31ZM1329.23,1823.44C1329.23,1828.91 1316.02,1855.2 1299.12,1855.46C1298.36,1855.46 1296.83,1855.33 1296.2,1855.2C1299.37,1850.12 1302.68,1844.15 1307.51,1836.27C1316.65,1821.54 1318.05,1820.14 1324.15,1814.42C1325.04,1815.06 1329.23,1818.24 1329.23,1823.44Z" style="fill:white;fill-rule:nonzero;"/>
        </g>
    </g>
</svg>
