<?xml version="1.0" encoding="UTF-8" standalone="no"?>
<!DOCTYPE svg PUBLIC "-//W3C//DTD SVG 1.1//EN" "http://www.w3.org/Graphics/SVG/1.1/DTD/svg11.dtd">
<svg width="178px" height="78px" version="1.1" xmlns="http://www.w3.org/2000/svg" xmlns:xlink="http://www.w3.org/1999/xlink" xml:space="preserve" xmlns:serif="http://www.serif.com/" style="fill-rule:evenodd;clip-rule:evenodd;stroke-linejoin:round;stroke-miterlimit:2;">
    <g transform="matrix(1,0,0,1,-12691.9,-8391.32)">
        <g transform="matrix(0.913109,0,0,0.913109,11755.4,6741.51)">
            <path d="M1126.79,1807.31L1126.41,1806.8L1122.98,1808.2C1120.57,1809.22 1116.38,1811.5 1114.47,1812.64C1110.53,1809.47 1103.54,1806.8 1094.14,1806.8C1082.58,1806.8 1069.24,1810.87 1059.46,1816.71C1044.98,1825.35 1033.67,1838.69 1033.67,1848.34C1033.67,1854.69 1038.12,1858.25 1044.6,1858.25C1059.34,1858.25 1075.47,1840.09 1078.14,1828.02L1079.15,1823.32C1079.15,1823.06 1079.15,1822.68 1078.9,1822.68C1078.64,1822.68 1078.39,1823.06 1078.26,1823.32L1077.12,1825.98C1074.07,1832.97 1067.34,1840.59 1060.86,1846.69C1053.36,1853.55 1048.41,1856.98 1043.07,1856.98C1037.87,1856.98 1034.69,1853.55 1034.69,1848.09C1034.69,1837.16 1049.81,1822.93 1060.48,1817.09C1070.77,1811.38 1083.22,1807.82 1094.02,1807.82C1103.67,1807.82 1110.15,1810.87 1113.45,1813.28C1096.81,1826.75 1091.22,1836.66 1081.06,1852.28C1079.79,1851.39 1078.9,1850.5 1078.9,1848.09C1078.9,1844.4 1081.69,1841.23 1083.6,1839.58C1085.25,1838.18 1086.52,1837.55 1087.92,1837.04L1087.92,1836.4C1085.76,1837.04 1084.74,1837.67 1083.09,1838.94C1081.19,1840.47 1078.14,1843.77 1078.14,1848.34C1078.14,1850.5 1079.66,1852.66 1080.42,1853.42C1074.45,1862.32 1058.45,1890.27 1038.88,1890.27C1031.39,1890.27 1026.69,1886.45 1026.69,1882.01C1026.69,1880.99 1026.81,1879.85 1027.19,1878.83C1028.34,1880.48 1029.1,1882.01 1031.64,1882.01C1033.8,1882.01 1035.45,1880.48 1035.45,1878.32C1035.45,1875.78 1033.29,1874.51 1031.39,1874.51C1028.08,1874.51 1025.67,1877.82 1025.67,1881.5C1025.67,1887.47 1030.75,1891.28 1039.64,1891.28C1062.89,1891.28 1080.04,1866 1086.39,1855.97C1088.17,1856.35 1089.82,1856.47 1091.35,1856.47C1108.25,1856.47 1122.6,1843.39 1122.6,1828.91C1122.6,1820.27 1116.88,1815.06 1115.74,1813.66C1117.39,1812.26 1119.17,1810.74 1124,1808.58L1126.79,1807.31ZM1119.81,1823.44C1119.81,1828.91 1106.59,1855.2 1089.7,1855.46C1088.93,1855.46 1087.41,1855.33 1086.78,1855.2C1089.95,1850.12 1093.25,1844.15 1098.08,1836.27C1107.23,1821.54 1108.63,1820.14 1114.72,1814.42C1115.61,1815.06 1119.81,1818.24 1119.81,1823.44Z" style="fill:white;fill-rule:nonzero;"/>
            <path d="M1146.99,1825.22L1142.55,1825.22L1119.81,1853.17C1116.63,1856.98 1114.47,1859.9 1111.17,1863.21L1095.92,1878.2L1093.89,1880.1C1093.76,1880.23 1093.63,1880.36 1093.63,1880.74L1093.76,1880.87C1093.89,1880.87 1094.02,1880.87 1094.27,1880.61L1111.29,1864.1L1102.65,1874.89C1100.11,1878.07 1096.68,1882.26 1096.68,1886.33C1096.68,1889.25 1099.1,1891.28 1102.02,1891.28C1104.69,1891.28 1108.75,1890.65 1118.41,1881.88L1121.33,1879.21L1121.58,1878.83L1121.33,1878.58L1120.82,1878.7L1118.03,1881.37C1111.55,1887.47 1105.7,1890.01 1102.78,1890.01C1101.64,1890.01 1100.75,1889.12 1100.75,1887.47C1100.75,1885.44 1106.72,1878.7 1110.4,1873.88L1146.99,1825.22Z" style="fill:white;fill-rule:nonzero;"/>
            <path d="M1161.98,1878.32L1161.73,1878.07C1161.6,1878.07 1161.6,1878.07 1161.22,1878.32L1157.28,1882.01C1154.23,1884.8 1148.9,1889.76 1145.85,1889.76C1144.83,1889.76 1144.07,1889 1144.07,1888.36C1144.07,1886.96 1145.59,1884.8 1147.25,1882.39L1159.31,1864.6L1154.36,1864.6L1149.53,1870.45L1149.53,1868.03C1149.53,1866.26 1147.37,1863.97 1144.45,1863.97C1139.75,1863.97 1131.11,1869.05 1126.41,1873.62L1119.17,1880.74L1119.04,1881.12L1119.3,1881.25L1119.55,1881.12L1121.33,1879.6C1120.69,1881.37 1120.06,1883.91 1120.06,1885.44C1120.06,1889.12 1122.22,1891.28 1126.28,1891.28C1128.57,1891.28 1132.64,1889.38 1136.19,1886.45L1140.39,1882.9C1140.13,1884.04 1139.75,1885.44 1139.75,1886.45C1139.75,1888.74 1141.28,1891.28 1144.32,1891.28C1148.26,1891.28 1154.23,1886.2 1157.92,1882.52L1161.73,1878.7C1161.86,1878.58 1161.98,1878.45 1161.98,1878.32ZM1148.77,1868.41C1148.77,1873.37 1133.53,1890.27 1127.3,1890.27C1125.65,1890.27 1124.38,1889.38 1124.38,1887.73C1124.38,1883.41 1137.97,1864.99 1144.7,1864.99C1146.61,1864.99 1148.77,1866.38 1148.77,1868.41Z" style="fill:white;fill-rule:nonzero;"/>
            <path d="M1192.22,1878.83L1192.09,1878.58L1191.45,1878.7L1188.66,1881.37C1184.72,1885.06 1176.72,1889.88 1173.03,1889.88C1169.86,1889.88 1168.08,1887.98 1168.08,1885.31C1168.08,1880.23 1178.24,1864.99 1184.98,1864.99C1188.03,1864.99 1188.79,1866.76 1188.91,1868.29C1188.41,1867.65 1187.77,1866.76 1186.25,1866.76C1184.47,1866.76 1183.58,1868.03 1183.58,1869.56C1183.58,1870.83 1184.85,1872.35 1186.63,1872.35C1188.41,1872.35 1190.18,1871.08 1190.18,1868.67C1190.18,1866 1187.52,1863.97 1184.21,1863.97C1174.94,1863.97 1167.19,1872.1 1161.98,1877.69L1160.08,1879.72C1159.95,1879.85 1159.95,1879.98 1159.95,1880.1C1159.95,1880.23 1160.08,1880.36 1160.2,1880.36C1160.33,1880.36 1160.46,1880.36 1160.59,1880.23L1163.25,1877.82C1162.74,1879.34 1162.36,1880.99 1162.36,1882.52C1162.36,1887.6 1166.3,1891.28 1171.38,1891.28C1178.12,1891.28 1186.25,1884.42 1189.04,1881.88L1191.96,1879.21L1192.22,1878.83Z" style="fill:white;fill-rule:nonzero;"/>
            <path d="M1220.42,1878.83L1220.29,1878.58L1219.66,1878.7L1216.86,1881.37C1212.8,1885.31 1205.94,1890.27 1201.36,1890.27C1198.32,1890.27 1196.41,1888.61 1196.41,1886.45C1196.41,1884.8 1198.06,1881.63 1199.2,1880.1L1202.38,1879.21C1209.37,1877.31 1217.88,1872.61 1217.88,1867.02C1217.88,1864.86 1216.23,1863.97 1214.07,1863.97C1209.75,1863.97 1200.86,1869.43 1191.07,1879.21L1189.55,1880.74C1189.42,1880.87 1189.42,1880.99 1189.42,1881.12C1189.42,1881.25 1189.55,1881.37 1189.68,1881.37C1189.8,1881.37 1189.93,1881.37 1190.06,1881.25L1192.22,1879.21C1191.45,1880.74 1191.07,1882.39 1191.07,1883.91C1191.07,1888.11 1195.01,1891.28 1200.09,1891.28C1207.72,1891.28 1214.45,1884.68 1217.37,1881.88L1220.17,1879.21L1220.42,1878.83ZM1217.12,1867.02C1217.12,1872.1 1206.7,1877.94 1199.97,1878.96L1203.27,1874.26C1206.95,1869.05 1211.65,1864.73 1214.45,1864.73C1215.72,1864.73 1217.12,1865.62 1217.12,1867.02Z" style="fill:white;fill-rule:nonzero;"/>
        </g>
    </g>
</svg>
