<?xml version="1.0" encoding="UTF-8" standalone="no"?>
<!DOCTYPE svg PUBLIC "-//W3C//DTD SVG 1.1//EN" "http://www.w3.org/Graphics/SVG/1.1/DTD/svg11.dtd">
<svg width="177px" height="78px" version="1.1" xmlns="http://www.w3.org/2000/svg" xmlns:xlink="http://www.w3.org/1999/xlink" xml:space="preserve" xmlns:serif="http://www.serif.com/" style="fill-rule:evenodd;clip-rule:evenodd;stroke-linejoin:round;stroke-miterlimit:2;">
    <g transform="matrix(1,0,0,1,-11662.8,-7554.84)">
        <g transform="matrix(0.904944,0,0,0.904944,10737.1,5920.47)">
            <path d="M1135.53,1811.3C1135.53,1811.17 1135.14,1811.17 1135.01,1811.17L1133.22,1812.19C1129.5,1814.24 1125.4,1817.06 1123.09,1818.35C1119.5,1813.6 1113.35,1806.04 1095.79,1806.04C1073.23,1806.04 1040.67,1824.11 1040.67,1846.42C1040.67,1855.26 1046.95,1860.52 1055.28,1860.52C1071.69,1860.52 1089,1839.11 1091.82,1827.96L1092.07,1826.93C1092.07,1826.68 1092.07,1826.29 1091.82,1826.29C1091.69,1826.29 1091.56,1826.68 1091.43,1826.81L1091.05,1828.09C1089.38,1833.47 1086.05,1839.11 1081.82,1843.98C1073.87,1852.95 1064.51,1859.49 1055.15,1859.49C1048.62,1859.49 1044.52,1855.78 1044.52,1850.9C1044.52,1839.24 1070.15,1807.07 1097.45,1807.07C1112.45,1807.07 1119.12,1813.99 1122.32,1819.24C1118.35,1822.19 1106.68,1831.55 1099.89,1840.27C1085.02,1859.24 1077.97,1880.9 1056.44,1888.59C1051.31,1887.69 1043.36,1885.64 1035.29,1885.64C1030.16,1885.64 1022.85,1886.15 1022.85,1889.23C1022.85,1891.54 1030.16,1892.05 1034.77,1892.05C1041.57,1892.05 1048.36,1891.03 1056.56,1889.74C1058.62,1890 1065.66,1891.28 1071.95,1891.28C1089.25,1891.28 1100.79,1883.98 1113.22,1869.49C1120.53,1860.9 1126.81,1847.83 1126.81,1834.24C1126.81,1826.16 1124.76,1822.06 1123.48,1819.5C1126.17,1817.58 1129.37,1815.27 1133.48,1812.96L1135.27,1811.94C1135.4,1811.81 1135.53,1811.55 1135.53,1811.3ZM1125.78,1834.37C1125.78,1850.26 1116.68,1867.31 1103.48,1878.34C1094.76,1885.77 1084.89,1890.26 1071.69,1890.26C1067.33,1890.26 1062.85,1889.62 1058.62,1888.98C1095.53,1876.41 1096.56,1853.08 1111.17,1831.93C1115.53,1825.52 1119.89,1822.32 1122.71,1820.14C1123.73,1822.06 1125.78,1825.39 1125.78,1834.37ZM1054.26,1889.23C1047.72,1890.38 1042.85,1891.28 1035.54,1891.28C1031.44,1891.28 1023.88,1891.03 1023.88,1889.1C1023.88,1886.92 1030.03,1886.41 1035.54,1886.41C1041.69,1886.41 1049.39,1887.95 1054.26,1889.23Z" style="fill:white;fill-rule:nonzero;"/>
            <path d="M1161.29,1878.21L1161.04,1877.95C1160.91,1877.95 1160.91,1877.95 1160.52,1878.21L1156.55,1881.92C1153.47,1884.75 1148.09,1889.74 1145.01,1889.74C1143.99,1889.74 1143.22,1888.98 1143.22,1888.33C1143.22,1886.92 1144.76,1884.75 1146.42,1882.31L1158.6,1864.36L1153.6,1864.36L1148.73,1870.26L1148.73,1867.82C1148.73,1866.03 1146.55,1863.72 1143.6,1863.72C1138.86,1863.72 1130.14,1868.85 1125.4,1873.46L1118.09,1880.64L1117.96,1881.03L1118.22,1881.15L1118.48,1881.03L1120.27,1879.49C1119.63,1881.28 1118.99,1883.85 1118.99,1885.39C1118.99,1889.1 1121.17,1891.28 1125.27,1891.28C1127.58,1891.28 1131.68,1889.36 1135.27,1886.41L1139.5,1882.82C1139.24,1883.98 1138.86,1885.39 1138.86,1886.41C1138.86,1888.72 1140.4,1891.28 1143.47,1891.28C1147.45,1891.28 1153.47,1886.15 1157.19,1882.44L1161.04,1878.59C1161.16,1878.46 1161.29,1878.34 1161.29,1878.21ZM1147.96,1868.21C1147.96,1873.21 1132.58,1890.26 1126.3,1890.26C1124.63,1890.26 1123.35,1889.36 1123.35,1887.69C1123.35,1883.34 1137.06,1864.75 1143.86,1864.75C1145.78,1864.75 1147.96,1866.16 1147.96,1868.21Z" style="fill:white;fill-rule:nonzero;"/>
            <path d="M1208.98,1850.13C1208.98,1849.88 1208.85,1849.62 1208.46,1849.62L1197.82,1849.62L1207.31,1837.83L1201.93,1837.83L1191.8,1849.62L1187.18,1849.62C1186.8,1849.62 1186.67,1850.01 1186.67,1850.26C1186.67,1850.52 1186.8,1850.65 1187.18,1850.65L1191.03,1850.65L1186.16,1856.42C1183.98,1858.98 1181.8,1861.29 1179.24,1863.34L1161.16,1878.08L1159.11,1880C1158.98,1880.13 1158.86,1880.26 1158.86,1880.64L1158.98,1880.77C1159.11,1880.77 1159.24,1880.77 1159.5,1880.52L1161.8,1878.46L1177.83,1865.52L1172.57,1872.18C1168.6,1877.18 1164.11,1882.69 1164.11,1886.15C1164.11,1889.1 1166.42,1891.28 1170.01,1891.28C1174.24,1891.28 1180.78,1887.05 1186.29,1881.8L1189.11,1879.11L1189.36,1878.72L1189.24,1878.46L1188.59,1878.59L1185.77,1881.28C1181.16,1885.64 1174.88,1890 1171.03,1890C1169.37,1890 1168.47,1888.85 1168.47,1887.82C1168.47,1886.41 1170.52,1883.85 1175.13,1877.95L1196.93,1850.65L1208.46,1850.65C1208.85,1850.65 1208.98,1850.52 1208.98,1850.13Z" style="fill:white;fill-rule:nonzero;"/>
            <path d="M1217.82,1878.72L1217.69,1878.46L1217.05,1878.59L1214.23,1881.28C1210.13,1885.26 1203.21,1890.26 1198.59,1890.26C1195.52,1890.26 1193.59,1888.59 1193.59,1886.41C1193.59,1884.75 1195.26,1881.54 1196.41,1880L1199.62,1879.11C1206.67,1877.18 1215.26,1872.44 1215.26,1866.8C1215.26,1864.62 1213.59,1863.72 1211.41,1863.72C1207.05,1863.72 1198.08,1869.23 1188.21,1879.11L1186.67,1880.64C1186.54,1880.77 1186.54,1880.9 1186.54,1881.03C1186.54,1881.15 1186.67,1881.28 1186.8,1881.28C1186.93,1881.28 1187.06,1881.28 1187.18,1881.15L1189.36,1879.11C1188.59,1880.64 1188.21,1882.31 1188.21,1883.85C1188.21,1888.08 1192.18,1891.28 1197.31,1891.28C1205,1891.28 1211.8,1884.62 1214.74,1881.8L1217.56,1879.11L1217.82,1878.72ZM1214.49,1866.8C1214.49,1871.93 1203.98,1877.82 1197.18,1878.85L1200.52,1874.11C1204.23,1868.85 1208.98,1864.49 1211.8,1864.49C1213.08,1864.49 1214.49,1865.39 1214.49,1866.8Z" style="fill:white;fill-rule:nonzero;"/>
        </g>
    </g>
</svg>
