<?xml version="1.0" encoding="UTF-8"?><svg id="uuid-a87ca650-9f80-471e-b3eb-9a395f6a9819" xmlns="http://www.w3.org/2000/svg" viewBox="0 0 144.86 66.69"><path d="m67.31,18.32c-.29.37-.59.73-.88,1.1-1.76,2.36-4.69,6.74-8.64,13.14-3.66,5.71-7.76,11.12-12.16,16.19-2.2,2.45-4.54,4.67-7.18,6.68-2.2,1.68-4.54,3.09-7.03,4.22-2.64,1.2-5.42,1.95-8.2,2.27-1.91.21-3.52.29-4.98.26-1.76-.03-3.37-.28-4.98-.75-.88-.23-1.76-.6-2.49-1.07-.73-.48-1.32-1.08-1.76-1.77-1.17-1.79-1.17-3.79-.15-5.99.88-1.67,2.2-2.42,3.96-2.24.88.09,1.32.53,1.76,1.33.44,1.22.29,2.18-.44,2.87-.59.53-1.32.79-2.2.79-1.03,0-1.61-.51-2.05-1.57-.15-.4-.29-.4-.44,0-.44,1.11-.59,2.18-.29,3.22.15.75.44,1.39,1.17,1.96,1.47,1.25,3.23,1.99,5.42,2.26,3.22.35,6.01.16,8.64-.6,3.66-1.11,7.18-3.05,10.26-5.83,2.34-1.99,4.25-3.9,5.71-5.7,2.49-3,4.98-6.09,7.18-9.27,3.08-4.23,6.01-8.44,9.09-12.64.29-.44.29-.48-.15-.1-.29.31-.58.6-1.02.89-.29.35-.73.64-.88.88-1.91,1.76-3.81,3.49-5.71,5.2,0,.01-.73.79-2.49,2.31-1.47,1.36-3.08,2.71-4.84,4.04-1.02.82-2.2,1.45-3.37,1.89-1.47.48-2.64.6-3.81.35-1.76-.37-2.93-1.39-3.37-3.06-.29-1.17-.29-2.51.15-4.01.44-1.32.88-2.58,1.76-3.77,2.05-3.34,4.54-6.49,7.18-9.45,1.61-1.85,3.08-3.81,4.4-5.89,1.02-1.58,1.61-2.97,1.76-4.15.15-1.68-.15-3.21-1.02-4.57-.88-1.42-2.34-2.53-4.25-3.37-1.76-.73-3.52-1.1-5.57-1.1-3.66,0-7.18.62-10.55,1.85-7.03,2.51-12.89,6.49-17.58,11.94-.73.84-1.47,1.79-2.05,2.84-.88,1.29-1.47,2.33-1.76,3.12-.73,1.66-.88,3.36-.59,5.07.15,1.19.73,2.21,1.47,3.05.73.75,1.76,1.27,2.93,1.61,2.05.59,4.1.44,6.16-.44,2.49-1.04,4.83-2.45,6.89-4.22,5.71-4.79,10.11-10.58,13.19-17.33,0-.09.15-.16.15-.18.15-.06.15.04.15.29,0,2.24-.44,4.44-1.32,6.56-.73,1.8-1.76,3.72-3.23,5.77-2.2,3.19-4.98,5.89-8.35,8.07-2.34,1.6-4.98,2.59-7.77,2.99-1.76.25-3.52.16-5.27-.29-3.22-.86-5.13-2.9-5.57-6.11-.29-2.1.15-4.28,1.32-6.53,1.17-2.3,2.78-4.44,4.69-6.42,1.47-1.41,3.22-2.89,5.42-4.47,5.71-4.26,12.01-6.87,19.19-7.81,2.2-.29,4.4-.16,6.59.38,2.2.6,4.1,1.58,5.57,2.96,2.93,2.65,3.81,6.26,2.78,10.83-.29,1.17-.88,2.58-1.76,4.19-1.32,2.29-2.78,4.42-4.4,6.43-1.76,2.02-3.37,4.04-5.13,6.08-.88,1.07-1.61,2.21-2.2,3.41-.59.84-.88,1.71-.88,2.65-.15.5,0,.95.15,1.35.15.34.59.62,1.03.82,1.02.51,2.05.53,3.22.06,1.91-.86,3.95-2.14,5.86-3.82,3.81-3.28,7.47-6.68,11.13-10.21,4.69-4.72,9.67-11.28,16.26-16.57,6.3-4.85,13.77-7.16,23.74-7.34,3.81-.07,8.5.12,14.06.44,8.35.5,14.21.79,17.87.86,3.81.07,7.77-.21,12.16-.84.44-.07.88-.18,1.47-.31.44-.13.88-.25,1.32-.37.15-.01.29.03.29.12,0,.16,0,.29-.29.42-2.64,1.64-5.57,2.68-8.64,3.12-4.84.69-9.67.67-14.65-.06-1.91-.28-3.81-.59-5.71-.89-4.54-.73-8.64-1.25-12.31-1.58-1.47-.13-3.08-.19-4.83-.18-1.91.01-3.52.16-4.98.47-6.3,1.27-11.87,4.19-16.7,8.73-1.61,1.55-3.08,3.28-4.25,5.22-.73,1.13-1.02,2.31-1.32,3.53,0,.82.15,1.6.58,2.32.73,1.23,1.91,2.04,3.23,2.42,2.49.69,4.98.57,7.47-.32,2.64-1,4.98-2.52,6.89-4.57,2.93-2.96,5.13-6.31,6.74-10.08h0c0-.09.15-.13.29-.1h0c.15.12.15.29,0,.56,0,.21-.15.32-.15.34-2.34,5.95-6.3,10.49-11.87,13.61-2.93,1.63-6.01,2.1-9.09,1.44-1.61-.35-2.93-1.13-3.95-2.36-.73-1.07-1.32-2.43-1.47-4.09-.15-1.17,0-2.31.29-3.4Zm-20.22,36.86c-.44,1.03-.44,2.02-.15,3,.15.78.73,1.52,1.61,2.29,1.9,1.74,4.4,2.65,7.33,2.71,2.93.07,5.57-.35,8.06-1.26,1.9-.66,3.81-1.82,6.01-3.47,3.81-2.99,7.33-6.58,10.4-10.77,4.4-5.79,8.64-11.57,12.89-17.38,1.9-2.48,3.22-4.31,4.25-5.48,2.64-3.09,5.57-6.02,8.79-8.81,2.35-2.04,4.84-3.66,7.47-4.86.15-.04.29-.01.29.07.15.16,0,.31-.15.42-.15.09-.29.15-.29.16-4.98,3.28-8.94,7.49-11.87,12.61-.73,1.14-1.02,1.73-1.02,1.73-2.2,3.56-4.84,7.82-8.06,12.79-1.91,2.84-3.81,5.46-5.71,7.84-1.76,2.1-3.37,3.82-4.69,5.17-3.08,3.11-6.74,5.82-10.99,8.13-4.98,2.75-10.26,4.03-15.53,3.78-1.32-.06-2.49-.23-3.51-.56-1.03-.35-2.2-.86-3.23-1.52-.73-.48-1.32-1.07-1.76-1.76-.59-.69-.88-1.45-1.03-2.29-.29-1.36-.15-2.67.44-3.91.44-.89,1.02-1.52,1.76-1.89.59-.28,1.17-.41,1.91-.38.59.03,1.17.22,1.76.56.88.66,1.17,1.64.73,2.96-.15.48-.29.86-.73,1.16-.44.25-.88.41-1.32.47-1.32.18-2.49-.35-3.37-1.55v-.03c0-.07-.15-.06-.15.03-.15,0-.15.01-.15.03Z" style="fill:#fff; fill-rule:evenodd; stroke:#fff; stroke-linejoin:round; stroke-width:.21px;"/><path d="m33.52,10.48s-.15,2.42-1.21,5.3-5.3,8.93-9.54,12.42-7.87,5.13-9.39,5.22-7.72.84-9.99-2.94.3-9.69,2.12-11.96,8.78-9.54,13.48-11.36,9.84-4.45,17.26-4.65,10.14,5.71,10.75,9.49-4.54,11.05-9.39,17.11-6.96,11.05-4.39,12.57,5.45.76,7.57-.91c0,0,14.84-12.72,16.65-14.23s14.65-14.84,14.65-14.84c0,0-10.89,13.83-19.86,25.34-5.73,7.35-9.73,12.84-12.66,16.15,0,0-5,4.24-9.84,6.36s-10.75,3.03-15.59,1.82-3.03-1.36-5-3.03.61-5.9.61-5.9c0,0,2.57-2.27,2.73,1.06,0,0-.49.91-2.24,1.52" style="fill:none; fill-rule:evenodd; stroke:red; stroke-miterlimit:10; stroke-width:5px;"/><path d="m93.6,12.02s-3.03,6.81-6.6,10.39-5.76,4.57-9.93,5.66-8.34-1.59-8.74-3.28-.51-6.02,1.09-8.34,2.68-3.77,6.16-6.46c4.64-3.58,11.12-4.67,13.91-4.97s6.36-1.29,14.1-.6c0,0,12.52,1.89,17.28,1.79s14.6.24,17.88-1.09,3.79-1.29,4.43-2.28" style="fill:none; fill-rule:evenodd; stroke:red; stroke-miterlimit:10; stroke-width:4px;"/><path d="m114.18,10.93l-9.1,7s-6.66,7.34-10.93,14.05-2.88,6.41-9.83,14.56-10.03,10.43-14.01,12.61-7.45,4.07-11.92,4.47-7.92-.98-9.54-2.28-2.88-2.09-2.38-6.95,3.96-2.54,4.64-1.53c.63.94,1.42,2.02-1.66,2.52s-2.28.2-2.28.2" style="fill:none; fill-rule:evenodd; stroke:red; stroke-miterlimit:10; stroke-width:6px;"/></svg>